<?xml version="1.0" encoding="UTF-8" standalone="no"?>
<!-- Created with Inkscape (http://www.inkscape.org/) -->

<svg
   xmlns:dc="http://purl.org/dc/elements/1.1/"
   xmlns:cc="http://creativecommons.org/ns#"
   xmlns:rdf="http://www.w3.org/1999/02/22-rdf-syntax-ns#"
   xmlns:svg="http://www.w3.org/2000/svg"
   xmlns="http://www.w3.org/2000/svg"
   xmlns:sodipodi="http://sodipodi.sourceforge.net/DTD/sodipodi-0.dtd"
   xmlns:inkscape="http://www.inkscape.org/namespaces/inkscape"
   width="210mm"
   height="297mm"
   viewBox="0 0 744.09448819 1052.3622047"
   id="svg2"
   version="1.1"
   inkscape:version="0.91 r13725"
   sodipodi:docname="artwork.svg">
  <defs
     id="defs4" />
  <sodipodi:namedview
     id="base"
     pagecolor="#ffffff"
     bordercolor="#666666"
     borderopacity="1.0"
     inkscape:pageopacity="0.0"
     inkscape:pageshadow="2"
     inkscape:zoom="0.35"
     inkscape:cx="-52.142857"
     inkscape:cy="520"
     inkscape:document-units="px"
     inkscape:current-layer="layer1"
     showgrid="false"
     inkscape:window-width="1366"
     inkscape:window-height="705"
     inkscape:window-x="-8"
     inkscape:window-y="-8"
     inkscape:window-maximized="1" />
  <metadata
     id="metadata7">
    <rdf:RDF>
      <cc:Work
         rdf:about="">
        <dc:format>image/svg+xml</dc:format>
        <dc:type
           rdf:resource="http://purl.org/dc/dcmitype/StillImage" />
        <dc:title></dc:title>
      </cc:Work>
    </rdf:RDF>
  </metadata>
  <g
     inkscape:label="Layer 1"
     inkscape:groupmode="layer"
     id="layer1">
    <path
       style="fill:#000000"
       d="m -303.7142,954.86958 c -70.00454,-0.72999 -147.77971,-26.51822 -185.18574,-89.59901 3.74807,-28.62919 4.95904,-62.64918 1.6669,-94.71839 6.67809,-33.62788 -11.5297,-66.83651 -4.96581,-101.30128 -0.0591,-29.77188 7.85588,-55.68458 -0.76064,-84.80467 2.59277,-23.98139 -0.8465,-44.23569 0.67922,-68.41801 -0.92173,-21.66383 -21.74212,-60.82382 -17.67678,-68.98535 11.72186,24.31831 39.11186,41.73086 65.01308,55.27794 10.47536,12.05603 49.4859,9.41476 13.28484,2.63778 -10.20357,-6.08909 -25.12262,-11.43627 -16.21448,-10.76944 -7.64183,-6.37109 -21.98015,-3.752 -9.87485,-10.63861 -10.59297,-4.64522 -20.4023,-13.95049 -20.23952,-18.98066 -26.30862,-16.81586 -15.17373,-38.44651 -18.35953,-68.70834 33.12182,7.49787 66.49341,-24.58835 88.07674,-48.80385 14.84019,-21.77151 32.56968,-42.36825 60.83324,-31.82512 19.03889,-30.7361 -6.65233,-77.4981 13.16224,-104.70814 -12.51084,-3.3384 -12.37186,-18.32563 -17.42877,-14.34899 -20.60789,10.74317 -61.04073,-12.28494 -20.60905,-18.17182 16.75548,0.55649 29.22716,-8.13162 4.40632,-6.04312 -16.76299,4.18955 -7.32371,-3.19092 -25.65282,7.99163 5.95615,-36.43505 67.25939,11.25609 57.46874,-29.73238 -6.22984,-10.62468 -14.01589,-71.617399 -1.0669,-33.16505 5.39176,28.03116 8.48159,61.148 44.21992,45.2106 17.4679,36.45544 54.64999,-5.36681 74.7949,-22.05084 19.76665,-2.44696 -23.44265,24.72436 -30.0259,32.90875 -18.84131,12.67205 36.55669,10.32824 4.2352,20.96702 -48.75445,-14.9312 -23.14145,46.95609 -28.93152,73.46773 -3.49393,28.24907 5.00339,59.51707 40.688,50.13563 37.92522,3.57731 -69.23803,-3.63086 -17.88209,5.52869 -23.64731,1.49259 67.97419,8.79237 18.40192,6.60265 -23.85334,-9.51118 -45.35368,3.19783 -40.94862,27.68909 -11.54674,17.72351 13.05515,15.7209 4.41651,40.29679 6.3456,20.96782 -7.94065,47.00229 25.33205,52.23358 18.52664,5.61327 36.97401,-0.63326 20.13431,14.33548 14.24915,4.69625 28.4442,-8.79921 33.89386,-2.13316 12.87477,9.41314 -0.34441,-15.20684 17.40709,0.38701 7.37399,-7.89999 19.48108,1.43676 7.19165,-9.88873 26.63859,-1.57913 3.90265,12.3285 -2.56442,11.31292 12.05862,11.50593 -20.09888,11.13341 -8.21597,15.10694 -14.51843,-2.6303 1.82144,-17.16289 -12.86793,-5.08232 -5.59067,-4.77761 6.39269,7.77777 -2.25379,11.57073 2.88654,16.78836 24.58525,-2.67524 15.71973,-4.19787 12.28039,-7.21676 6.20194,15.30404 12.98297,15.85515 -19.93333,-6.34853 9.24246,12.07375 -13.45364,11.11495 -4.73738,-13.58363 -31.64259,6.255 -14.34368,-14.69228 -1.80107,-9.586 -9.54443,17.01769 -15.48659,10.6162 -10.72433,2.20398 2.49056,10.17654 -8.59133,14.10059 -3.27671,7.02908 -16.86245,5.41883 -18.719,3.27478 -8.47085,6.96826 -8.76752,4.79985 -24.40152,9.46147 36.29578,0.83988 70.24631,-14.44868 104.96184,-22.66458 26.66992,-9.78815 44.17955,-22.89156 64.21431,-42.49913 17.58761,-12.85553 21.79432,-57.33133 21.497749,-59.11978 11.950245,35.28276 -21.33284,63.98823 -15.568953,100.04692 -0.629271,35.32889 -0.253828,73.99997 -4.577753,106.49265 13.592516,47.71846 11.888738,98.67815 5.157033,147.59173 -0.607722,-35.66094 -19.302286,0.81695 -1.938271,17.88112 -0.04857,18.86731 -11.611086,37.77964 -0.851641,57.14197 -14.38683,58.77261 -71.944874,97.01775 -128.130124,110.39162 -30.0348,7.44683 -61.19192,9.64433 -92.05273,8.42081 z m -187.31148,-99.06092 -0.0203,1.03808 0.0203,-1.03808 z m 6.95114,-55.62966 c -1.49402,-3.19374 -0.50887,3.08365 0,0 z m 0.35806,-3.35356 c -2.66454,-3.51866 1.05582,4.4913 0,0 z m -0.35806,-26.64178 c -4.10787,-2.82934 -4.10787,2.82934 0,0 z m 391.51613,-22.32538 c -2.502862,-0.81742 2.744534,4.7426 0,0 z M -488.63138,626.58894 c -0.95791,-3.08154 -1.35261,3.11415 0,0 z m -1.3336,-32.15982 c -1.48181,-8.44259 -2.04913,5.13293 0,0 z m 0.78485,-2.30292 c -1.02678,-1.67083 -1.02675,1.67083 0,0 z m 0.16172,-6.41355 c -1.59288,1.17689 1.87894,3.37274 0,0 z m -3.13998,-0.419 c -1.25648,-1.81017 -1.2868,2.8085 0,0 z m 5.83132,-3.05953 -0.004,1.9031 0.004,-1.9031 z m -2.64033,0.9573 c -2.31064,-3.1578 -2.31064,3.1578 0,0 z m 0.6382,-2.31496 c -1.21753,-11.09564 -4.41858,-3.78503 0,0 z m 1.70187,-3.19099 c -0.62647,-2.28305 -1.38975,1.627 0,0 z m 2.41023,-6.57332 c -5.58995,-5.54133 -6.46363,1.93061 0,0 z m -1.13384,-3.43581 c 2.1069,-8.98848 -6.59388,-10.06617 0,0 z m -3.24986,-9.37467 c -1.39674,-2.46449 -1.39674,2.46449 0,0 z m 1.70186,-6.80746 c -0.41483,-2.2708 -0.94633,2.32744 0,0 z m -1.33025,-2.43255 c -1.81168,-1.99176 1.26001,5.00227 0,0 z m -0.69389,-4.89788 c -2.02292,0.76944 1.31946,1.31798 0,0 z m 163.76003,-2.24255 c -1.80132,-2.12619 -5.4599,2.63436 0,0 z m -162.31522,-2.76553 c -0.45697,-2.27887 -1.86443,2.3565 0,0 z m -1.35317,-6.27128 c -1.9472,-4.51626 -1.08044,3.0344 0,0 z m 225.75661,-0.27523 c -0.5794,-4.4032 -2.58704,2.06394 0,0 z m -2.73573,-0.89914 c -0.95498,-1.64761 -0.56011,1.61323 0,0 z m -103.3882,-1.67676 c -1.51018,-3.39997 -1.3263,1.63949 0,0 z m -3.82919,-1.67736 c -2.46743,-2.35663 -2.66073,1.84918 0,0 z m -41.69566,-2.17693 c -0.5601,-1.61324 -0.955,1.64761 0,0 z m 43.82298,-1.70187 c -1.10045,-1.73507 -1.46011,1.76988 0,0 z m 287.48008,-0.50524 -0.07857,0.76857 0.07857,-0.76857 z M -378.851,523.49797 c -17.60124,-5.3959 -17.9765,0.4988 0,0 z m 154.52336,0.12823 c -1.70103,-1.64106 -0.92888,2.19076 0,0 z m -15.3384,-0.56978 c 0.4703,-3.33181 -4.86981,2.55951 0,0 z m 4.56731,-0.47359 -1.52237,-0.81172 1.52237,0.81172 z m -252.22567,-1.29669 c -0.95465,-2.33886 -0.40178,2.27819 0,0 z m 86.9189,-1.06367 c -11.12847,-15.14525 -14.84176,-5.5094 0,0 z m 183.09804,0.6131 c -1.38975,-1.627 -0.62646,2.28306 0,0 z m -272.31321,-0.0813 c -0.0131,-5.42554 -3.4267,0.23495 0,0 z m 97.14466,-0.48895 c -5.34555,-3.94504 -7.08628,2.926 0,0 z m 4.13128,0.16985 c -0.95464,-2.33885 -0.40175,2.27819 0,0 z m 155.17981,-0.0443 -0.78087,0.0242 0.78087,-0.0242 z m -2.97826,-1.27639 -0.78087,0.0242 0.78087,-0.0242 z m 1.70211,-0.46168 c -2.47089,-4.0865 -1.56782,2.3033 0,0 z m 17.55908,-0.13219 c -1.54924,-3.26869 -1.46878,3.00732 0,0 z m -2.12733,-0.35718 c -3.77282,-2.75005 -4.97861,2.48628 0,0 z m -205.41592,-1.21249 c 2.78035,-8.17318 -5.76578,4.02439 0,0 z m 199.88486,0.71874 c -1.46011,-1.76988 -1.10045,1.73507 0,0 z m -184.22671,-0.85093 c -1.57538,-3.29738 -0.33539,2.83509 0,0 z m -11.02731,0 c -0.68325,-2.52317 -3.66818,2.09177 0,0 z m 8.68725,0 c -2.71586,-2.08523 -1.56032,1.92511 0,0 z m 15.10404,0 c -1.38488,-2.38211 -2.55859,2.64143 0,0 z m 32.62076,-0.70738 c -2.26216,-0.34513 0.69606,2.12957 0,0 z m 128.69003,0.29608 c 1.72186,-4.41372 -7.73521,4.09231 0,0 z m 13.0328,0.0653 -1.13348,0.31937 1.13348,-0.31937 z m -192.63862,-0.0795 c 6.4686,-2.52576 -8.00248,-2.50983 0,0 z m 195.07609,-1.2764 3.34769,-0.45364 -3.34769,0.45364 z m -183.73533,-0.23108 c -0.88524,-4.02429 -4.62499,2.11721 0,0 z m 132.46669,-0.19439 c -1.53872,-1.79326 -1.53876,1.79325 0,0 z m 36.39054,-0.40411 c -2.06493,-1.15115 0.58526,2.1249 0,0 z m 86.64709,-0.11356 c -1.7315,-0.48326 1.72303,1.8969 0,0 z m -280.45999,-0.16606 c 8.40615,-1.65472 -10.57806,-1.96276 0,0 z m 31.05249,0.36463 c -2.7253,-5.12295 -3.83074,2.41645 0,0 z m 3.83571,0.15844 c -1.15652,-2.40878 -1.93671,1.04142 0,0 z m 155.93323,-0.26481 -1.44055,-0.16404 1.44055,0.16404 z m -195.50155,-0.6633 c -1.34239,-1.56197 -0.15005,2.17308 0,0 z m 207.65631,-0.68564 c -4.30758,-1.85881 1.29192,2.13801 0,0 z m -190.63768,-0.35292 c -1.53872,-1.79326 -1.53876,1.79325 0,0 z m 203.79814,0 c -0.68738,-1.589 -2.56469,1.71888 0,0 z m 3.40372,-0.42547 c -0.94953,-2.97396 -1.1531,3.09431 0,0 z m -193.7389,-0.21273 c -2.69737,-2.81673 0.77095,2.30899 0,0 z m 148.53893,0.25647 c 7.6482,-2.34169 -4.84108,-0.31252 0,0 z m 31.58507,0 c -2.9807,-2.42056 -4.68417,0.59722 0,0 z m -204.85663,-1.24585 -0.71768,0.8589 0.71768,-0.8589 z m 210.81315,0.35118 c -3.04564,-2.17343 -2.07931,1.62406 0,0 z m -192.73603,-0.87603 c -1.38974,-1.62703 -0.62648,2.28307 0,0 z m 180.24725,-0.45219 c -6.97934,-4.14345 -2.53796,3.66898 0,0 z m -183.65097,0.47729 c -0.95498,-1.64765 -0.56012,1.61325 0,0 z m 5.10559,-0.42547 c -2.99504,-2.35945 0.42643,1.73356 0,0 z m 25.78825,-0.53183 c -6.81662,-5.22521 -1.73564,3.24466 0,0 z m -110.45595,0.10637 c -1.02676,-1.67085 -1.0268,1.67084 0,0 z m 60.30092,0.1684 -0.78087,0.0242 0.78087,-0.0242 z m 77.97547,-0.1684 c -0.5601,-1.61324 -0.955,1.64761 0,0 z m 117.32221,-0.10637 c -2.30576,-2.30052 -2.30576,2.30052 0,0 z m 1.5955,0.10637 c -1.10042,-1.73508 -1.46016,1.76987 0,0 z m 12.55124,0 c -2.02011,-1.88938 -2.6435,1.94946 0,0 z m 9.78571,0 c -2.56488,-1.8856 -2.56491,1.88559 0,0 z m -34.59756,-1.78164 -0.0786,0.76858 0.0786,-0.76858 z m -160.85811,-0.57276 c -0.74628,-1.51073 -0.97376,2.39924 0,0 z m -7.49153,0.22707 c -0.95496,-1.64764 -0.56014,1.61323 0,0 z m 14.8913,-0.87604 c -1.54105,-3.03915 -0.56551,3.73632 0,0 z m 186.23881,1.04444 -0.78087,0.0242 0.78087,-0.0242 z m -191.16453,-1.07252 c -1.97047,-1.64117 -1.97043,1.64118 0,0 z m 39.92029,-0.1136 c 3.18284,-4.97139 -9.39288,4.0891 0,0 z m -53.88348,-0.99439 c -2.02292,0.76945 1.31949,1.31795 0,0 z m 5.61941,0.19899 c -2.51629,-4.77932 -2.85187,5.28363 0,0 z m 193.65848,0.31369 c 3.89604,-4.58912 -5.41093,1.12313 0,0 z m -173.04969,-0.21571 c -3.6895,-1.89566 -1.26614,1.57945 0,0 z m -30.52718,-1.26312 c -2.4946,-0.70454 0.47007,2.76808 0,0 z m 16.26521,1.01933 -0.78087,0.0242 0.78087,-0.0242 z m 9.05001,-0.1684 c -1.02676,-1.67084 -1.02676,1.67084 0,0 z m 169.62604,-0.50524 -0.0786,0.76858 0.0786,-0.76858 z m -95.59498,0.0798 c -1.46016,-1.76987 -1.10042,1.73508 0,0 z m 93.60248,-0.42546 c -1.02676,-1.67085 -1.02679,1.67085 0,0 z m 17.65683,-0.42547 c 0.79906,-3.08918 -3.92593,3.41624 0,0 z m -279.31832,-0.4506 c -1.38975,-1.62699 -0.62646,2.28305 0,0 z m 84.24224,0.47699 c -2.07929,-1.5423 -2.02183,1.70167 0,0 z m 216.99524,-0.67385 c 9.82733,-12.27102 -11.35127,4.53769 0,0 z m 14.9981,0.79383 -1.25514,-9.8e-4 1.25514,9.8e-4 z m -280.76665,-1.5158 c -2.17852,-0.59741 0.52968,2.48991 0,0 z m 234.70188,0.26021 c 11.5105,-2.46941 -6.69712,0.8754 0,0 z m -12.60461,-4.29759 c -8.47894,-19.92302 35.85327,-6.9368 8.22786,-24.31622 -10.18418,-19.1083 -34.96356,-7.56918 -28.38417,6.78939 -19.4721,0.40469 40.14821,11.66758 7.13961,9.3078 -16.49485,-2.4645 -14.59899,10.51272 2.20215,3.73613 -0.0617,2.2516 15.3588,10.62816 10.81455,4.4829 z m -20.36899,-4.37893 c 2.05401,-1.89533 1.56681,1.83296 0,0 z m 9.14751,-2.12733 c 0.95496,-1.64764 0.56014,1.61323 0,0 z m 21.06056,-6.80746 c 0.56014,-1.61323 0.95496,1.64764 0,0 z m 2.17884,0.0833 c -0.13842,-3.3034 2.81293,0.24608 0,0 z m -21.963,-1.99793 c -8.50528,-7.84055 20.26308,-6.3481 0,0 z m 22.31946,-1.09197 c -0.56505,-2.16754 1.40315,1.63562 0,0 z m -29.71211,-1.45392 c -2.28089,-4.73704 4.37826,2.17319 0,0 z m -1.9676,-0.64511 c 1.02678,-1.67083 1.02675,1.67083 0,0 z m 19.76136,-0.57754 c -1.2122,-7.69927 5.75459,3.03545 0,0 z m -8.27378,0.15208 c 1.10041,-1.73507 1.46015,1.76987 0,0 z m 14.2531,-0.85093 c 1.46012,-1.76988 1.10047,1.73507 0,0 z m 2.42516,-0.93603 c -2.22209,-5.84656 6.98836,1.50989 0,0 z m -24.62005,-2.63229 2.96524,-1.54589 -2.96524,1.54589 z m 5.28263,0.71526 c 1.43684,-4.84138 3.19721,1.72176 0,0 z m 16.91226,-0.1252 c 1.10042,-1.73508 1.46016,1.76987 0,0 z m -2.76552,-0.66331 c 1.38976,-1.62701 0.62644,2.28307 0,0 z m -21.86736,-0.43875 c -0.0196,-4.1913 2.55054,3.42829 0,0 z m 11.01798,-0.17434 c 1.56678,-1.83297 2.05405,1.89533 0,0 z m 7.96578,-0.23686 c -5.1722,-8.60767 4.09231,1.04781 0,0 z m -10.91867,-0.99849 c -0.47138,-2.73924 2.23481,-0.37383 0,0 z m 14.08485,-0.22518 c -0.63951,-7.37802 3.04688,1.91622 0,0 z m -9.111,-1.19725 c -16.82948,-8.08157 5.88803,-2.80141 0,0 z m 6.89696,-0.3736 c 0.64096,-4.74299 2.65077,2.68594 0,0 z m -4.66327,-2.07421 c -1.85672,-1.64284 3.55891,1.52969 0,0 z m -12.6576,-0.32225 c -4.40532,-4.2823 3.32793,-0.10144 0,0 z m 10.53028,-0.10322 c 0.95499,-1.6476 0.56008,1.61324 0,0 z m -8.82842,-0.45954 c -2.58574,-4.29333 4.74364,1.25426 0,0 z m 13.60572,-0.22329 c 0.30204,-3.17808 3.79858,1.72856 0,0 z m -8.47354,-3.01153 0.76855,0.0786 -0.76855,-0.0786 z m 18.69391,37.13938 c -2.25934,-3.91762 -1.64448,2.91012 0,0 z m 23.93245,0.40462 -0.83187,-0.24397 0.83187,0.24397 z m -10.41374,-1.12085 c -0.13054,-4.25087 -1.65684,3.45988 0,0 z M -450.57452,501.497 c -1.56559,-4.36076 -4.97808,3.82215 0,0 z m 17.55588,0.43036 c -0.56014,-1.61324 -0.95496,1.64763 0,0 z m 21.94012,-0.75137 c -3.36654,-0.0768 -0.0512,1.858 0,0 z m 244.4363,0.75137 c -0.0933,-3.32179 -3.00653,2.42222 0,0 z m -202.55654,-0.85089 c -4.79231,-5.55377 -8.19808,2.70595 0,0 z m 122.21506,-0.28179 -1.03806,0.0203 1.03806,-0.0203 z m 28.82531,-0.35641 c -2.18217,-3.38425 -0.98281,2.20904 0,0 z m 5.10559,0.21274 c -1.02675,-1.67083 -1.02678,1.67083 0,0 z m -280.98258,-1.59333 -0.16321,1.50163 0.16321,-1.50163 z m 71.55465,0.74239 c -2.47734,-3.40595 0.81298,2.98603 0,0 z m 9.29408,-0.226 c -0.24138,-4.45295 -5.57869,4.61955 0,0 z m 18.67355,0.80498 c 0.40646,-2.85273 -3.01112,1.68603 0,0 z m 111.26627,-0.8363 c 7.50616,-7.08187 -12.18842,4.3238 0,0 z m 5.31049,0.68279 c -0.67474,-1.72651 -1.92613,1.60045 0,0 z m 56.16149,0 c -1.02676,-1.67084 -1.02676,1.67084 0,0 z m 44.26202,-0.44742 c -4.52424,-6.24338 -6.73996,1.68579 0,0 z m -128.71699,0.022 c -1.56682,-1.83295 -2.05399,1.89532 0,0 z m 91.90062,-0.83051 c 3.15427,-4.77142 -4.29669,1.33629 0,0 z m 2.5528,1.08877 -1.01618,-0.2854 1.01618,0.2854 z m 6.69222,-0.0899 -0.78087,0.0242 0.78087,-0.0242 z m 74.57175,-0.1684 c 0.50961,-1.82889 -3.06081,2.45778 0,0 z m -289.00653,-0.25706 -0.78087,0.0242 0.78087,-0.0242 z m 131.15871,-0.1684 c -1.10042,-1.73508 -1.46016,1.76987 0,0 z m 41.85903,-0.3191 c 1.63393,-5.13496 -3.93675,1.31479 0,0 z m 72.45721,0.27225 c 0.6499,-4.09991 -8.481,-2.48987 0,0 z m -52.6237,-0.99639 c -1.37508,-3.05674 -1.77408,3.00636 0,0 z m 98.1674,0.78617 -0.78088,0.0242 0.78088,-0.0242 z m -144.45242,-1.4448 c -0.87981,-4.51525 -0.28122,4.4658 0,0 z m -119.00328,-0.34939 -0.71768,0.8589 0.71768,-0.8589 z m 18.71532,0.77486 c -1.10043,-1.73509 -1.46014,1.76989 0,0 z m 132.87298,-0.0851 c 1.94959,-4.68745 -4.45886,2.41491 0,0 z m 55.09642,-0.53975 c -3.65151,-4.39838 0.32363,3.6929 0,0 z m -39.26909,0.19937 c -1.02679,-1.67085 -1.02676,1.67085 0,0 z m 17.20382,0.0446 c -0.74103,-2.2287 -1.7394,1.63049 0,0 z m -232.48953,-0.47005 c -1.53872,-1.79326 -1.53876,1.79325 0,0 z m 6.80745,-0.21273 c -0.41479,-2.27082 -0.94637,2.3274 0,0 z m 176.99379,0.25825 c -3.32187,-3.62074 -1.51396,1.67439 0,0 z m -182.31211,-0.47099 c -1.02678,-1.67083 -1.02675,1.67083 0,0 z m 154.4441,0 c -0.56014,-1.61323 -0.95496,1.64764 0,0 z m 8.50932,-0.21273 c -4.71326,-3.975 -2.16078,2.41047 0,0 z m 13.08307,0.32076 c -0.003,-10.80573 -9.75497,0.53955 0,0 z m 45.84394,-0.10803 c -1.02679,-1.67085 -1.02676,1.67085 0,0 z m 6.93063,-0.85135 c -2.06367,-3.17397 0.0419,3.54365 0,0 z m 49.23086,0.84774 -3.78297,0.27243 3.78297,-0.27243 z m -226.03758,-0.25345 -0.78087,0.0242 0.78087,-0.0242 z m 5.95652,0 -0.78087,0.0242 0.78087,-0.0242 z m -25.25793,-0.80418 c -1.64021,-1.71761 -0.73731,2.30637 0,0 z m 126.02144,0.25175 c 6.6267,-2.26429 -2.76794,-2.45587 0,0 z m 55.07221,0.004 c -0.96839,-2.09549 -1.99739,1.0552 0,0 z m 1.95518,-2.00778 c -3.36965,-0.67606 1.72234,4.95055 0,0 z m 55.05725,0.98032 0.3135,-0.0642 -0.3135,0.0642 z m 6.61221,0.95364 c -1.80175,-3.73714 -4.10684,2.49008 0,0 z m -220.13225,-0.60991 c -1.10083,-2.11437 -1.10079,2.11438 0,0 z m 109.2809,0.023 c -1.77455,-2.98833 -2.32834,2.25729 0,0 z m 2.36298,0.15248 c -0.004,-3.27736 -2.19197,1.75126 0,0 z m 66.56249,-0.3031 c -1.49405,-4.0613 -3.18405,1.55054 0,0 z m 2.58736,0.0213 c 2.82523,-6.71199 -2.71475,0.356 0,0 z m 17.80509,-1.70187 c -4.03086,-2.25801 0.78921,5.10483 0,0 z m 4.71004,-0.18052 c -4.11839,-2.39577 -1.9514,6.30109 0,0 z m -97.00622,1.43565 c 6.74442,-7.36664 -9.11749,-8.59979 0,0 z m -115.30124,-1.41123 c -2.36909,-1.27194 -4.65834,4.03428 0,0 z m 162.00563,0.30055 c 17.08171,-6.15783 -10.10794,0.73192 0,0 z m 10.30804,0.60012 c -1.02676,-1.67085 -1.0268,1.67084 0,0 z m 44.46118,0 c -1.46012,-1.76988 -1.10047,1.73507 0,0 z m -267.40528,-0.6382 c -0.71241,-2.43424 -1.74171,2.2995 0,0 z m 25.95341,0.21273 c -1.02679,-1.67085 -1.02676,1.67085 0,0 z m 19.8159,0.0514 c -3.41638,-3.31455 -1.62164,1.6984 0,0 z m 22.30522,-0.0514 c -1.46015,-1.76987 -1.10041,1.73507 0,0 z m -102.1118,-0.42546 c -0.95496,-1.64764 -0.56014,1.61323 0,0 z m 15.31677,0 c -1.02675,-1.67083 -1.02678,1.67083 0,0 z m 15.74224,0 c -1.46012,-1.76988 -1.10047,1.73507 0,0 z m 273.57453,-0.54494 c 10.77719,-6.37605 -11.44583,-3.53696 0,0 z m -213.58385,-0.51869 c -0.71241,-2.43424 -1.7417,2.29948 0,0 z m 168.34078,-0.74456 -0.0203,1.03807 0.0203,-1.03807 z m 48.85953,0.95729 c -1.46014,-1.76985 -1.10042,1.73507 0,0 z m -229.63237,-2.62614 c -3.37342,-3.5312 -1.52174,6.30177 0,0 z m 135.39169,1.56248 c -2.39158,-5.75698 -2.43651,3.9528 0,0 z m 55.73602,0.6382 c -0.89907,-1.97514 -2.24519,1.90423 0,0 z m -168.27174,-0.42547 c -1.46015,-1.76987 -1.10041,1.73507 0,0 z m 37.28921,0.0467 c 0.38421,-5.80543 -6.58713,3.14573 0,0 z m 7.5349,-0.89761 c 0.83613,-3.65228 -7.15163,1.71008 0,0 z m 111.64883,-0.94921 c -1.70404,-2.55749 -4.03445,4.64189 0,0 z m 14.955,1.54188 c 2.24369,-3.13585 -5.54648,1.49178 0,0 z m -242.268,-0.59267 c -1.02676,-1.67084 -1.02676,1.67084 0,0 z m 30.93537,-0.26668 c -1.73055,-3.34647 -2.74341,3.22684 0,0 z m 20.68413,0.41219 c 10.09484,-0.0237 -8.40626,-5.60228 0,0 z m 5.09074,-0.57098 c -1.36467,-3.19898 -0.41203,3.0931 0,0 z m 135.17485,0 c -2.33792,-3.81422 -0.85901,2.67043 0,0 z m 56.58696,0.42547 c -1.46012,-1.76988 -1.10044,1.73508 0,0 z m -256.83799,-0.61088 c -4.60472,-3.76133 -1.41631,2.43269 0,0 z m 74.42716,-0.24005 c -2.07407,-2.07887 -8.4144,0.76923 0,0 z m 98.59406,0.21273 c 0.19291,-3.05184 -4.34908,3.43619 0,0 z m 10.67144,0.21273 c -1.33426,-6.32463 -6.96726,1.37417 0,0 z m 63.04052,0.14368 -1.03807,0.0203 1.03807,-0.0203 z m 7.97748,-0.35641 c -0.31543,-2.80629 -5.2909,2.61305 0,0 z m -234.21894,-0.21273 c -1.10042,-1.73508 -1.46016,1.76987 0,0 z m 219.96584,0 c -2.73726,-5.83248 -4.50036,1.36213 0,0 z m -161.46429,-0.35454 c -1.11801,-2.94975 -1.18398,1.46658 0,0 z m 40.41925,-0.75465 c -1.86555,-2.41164 -1.19385,3.0225 0,0 z m 102.53727,0.2029 c 14.70438,-1.30451 7.3706,-3.35423 -1.56175,-0.37075 l 1.56175,0.37075 z m 120.20538,0.13751 -0.68839,0.39794 0.68839,-0.39794 z m -340.59668,-0.2698 c -0.58707,-2.90125 -1.48769,2.37087 0,0 z m 75.46154,-0.0255 c 1.50538,-11.68639 10.01907,-12.13384 9.54709,-4.15025 -0.0449,-11.06395 18.26857,-18.59182 6.27864,-21.88798 9.75587,-3.41252 4.73991,-1.77469 10.57297,-8.49611 -7.04211,-17.18589 -11.72664,-13.46473 2.54385,-28.39176 -9.22458,-11.89928 -1.16106,-25.93841 -2.64588,-25.20566 17.18859,-24.41405 10.67068,-62.3627 -3.95208,-85.56105 -36.27038,-3.7179 -49.07006,42.39249 -59.55684,67.26579 -17.36182,13.03972 -63.41048,33.87068 -18.19447,34.80065 4.45975,-2.15819 17.74666,-9.69747 25.13085,-18.87194 22.91189,7.63077 33.38901,32.09283 37.49143,37.64114 5.19581,7.51218 -5.47115,8.26898 -9.68034,22.13122 11.30375,-5.42622 19.14328,3.14514 0.85355,4.93115 -20.22147,13.58841 -3.35658,10.60929 8.68971,5.44619 -0.86803,21.06351 -43.09847,-9.60268 -26.50289,18.55618 6.43464,1.20816 13.17411,-0.65344 19.42441,1.79243 z m -1.74959,-1.36332 c -3.02222,-2.33651 5.05481,0.65455 0,0 z m -13.40217,-1.25793 1.03807,0.0203 -1.03807,-0.0203 z m 4.63263,-0.35659 c 0.95464,-2.33885 0.40177,2.2782 0,0 z m 8.66318,-1.07662 c 5.40312,-2.23368 1.72822,1.66013 0,0 z m -14.46584,-1.41619 -0.13429,-0.7661 0.13429,0.7661 z m 6.38458,-2.50641 c 4.30094,-2.62779 5.85121,2.38989 0,0 z m -4.36362,-2.31425 c -13.54508,-11.72069 4.37201,0.77854 0,0 z m -4.65353,-2.97561 0.76856,0.0786 -0.76856,-0.0786 z m 28.38602,-3.5179 c 0.38172,-3.29205 2.72158,0.65277 0,0 z m -15.34106,-0.46476 c 2.46261,-5.84358 5.53258,0.71307 0,0 z m 23.99621,0.16088 c -8.17156,-9.83705 7.70615,2.70134 0,0 z m -9.63408,-2.34935 c 1.10457,-2.56517 1.04825,2.00125 0,0 z m -13.28694,-1.38424 c 0.58863,-3.8062 1.37648,3.04507 0,0 z m 13.89258,-0.95292 c 2.13214,-3.04951 5.49387,1.13642 0,0 z m -7.5106,-0.98679 c 2.05404,-1.89532 1.56678,1.83296 0,0 z m 3.1733,-0.0286 c 3.86122,-5.54335 9.05225,1.05839 0,0 z m -3.59876,-3.40021 0.83188,0.24399 -0.83188,-0.24399 z m 4.68012,-1.25128 c 1.00298,-3.04159 1.00298,3.04159 0,0 z m 10.89352,-3.22939 c -8.96195,-0.80894 16.91136,-9.49501 0,0 z m -2.80967,-1.12172 c 0.90481,-4.7678 1.2257,2.77201 0,0 z m -12.90263,-4.74307 c 0.97034,-5.77741 10.8397,2.69618 0,0 z m 12.90263,0.59821 1.26238,0.23701 -1.26238,-0.23701 z m -3.7956,-1.82158 c 2.43714,-2.6568 0.55779,3.2755 0,0 z m 6.80745,-1.41822 0.30143,0.26297 -0.30143,-0.26297 z m 4.99223,-1.31885 0.76856,0.0786 -0.76856,-0.0786 z m -13.66858,-2.11196 c 2.86102,-4.88462 7.93193,3.01925 0,0 z m 8.8555,-0.15019 1.68044,-1.33003 -1.68044,1.33003 z m -3.191,-2.5528 c 2.05404,-1.89532 1.56678,1.83296 0,0 z m 3.8292,-1.2764 c 0.0506,-1.46551 1.97138,1.29926 0,0 z m -0.81735,-4.50284 0.30143,0.26295 -0.30143,-0.26295 z m -3.43731,-2.30461 c -4.57088,-1.58144 1.74214,-1.26808 0,0 z m 2.55279,-0.59268 1.46939,-0.20479 -1.46939,0.20479 z m -4.68012,-1.74922 c -2.62642,-4.43982 10.25209,1.77494 0,0 z m 14.8913,-1.91276 c 1.02678,-1.67083 1.02675,1.67083 0,0 z m -1.70186,-0.85093 c 1.53873,-1.79328 1.53873,1.79328 0,0 z m -13.18944,-1.08878 c 1.38977,-1.62698 0.62643,2.28308 0,0 z m 7.44565,-0.18762 c 0.955,-1.64761 0.5601,1.61324 0,0 z m 1.48913,-0.0251 0.83187,0.24399 -0.83187,-0.24399 z m -15.64941,-0.89156 c 2.16272,-2.0135 0.83637,1.64259 0,0 z m 21.52616,0.20057 0.76854,0.0786 -0.76854,-0.0786 z m -12.8464,-0.904 c -0.99042,-4.12518 4.71274,0.0874 0,0 z m 3.33028,-0.5443 c -0.36853,-2.97727 1.81148,1.63338 0,0 z m 3.77457,-0.58127 c 2.52574,-5.09861 6.37614,-1.52509 0,0 z m -2.04011,-0.31411 c -1.48434,-4.14 2.01325,0.72487 0,0 z m 1.69218,-1.19489 c 0.56014,-1.61324 0.95496,1.64763 0,0 z m -13.72653,-2.91576 c 4.88097,-5.45041 10.40523,1.85542 0,0 z m 13.40743,-0.34427 c 3.61294,-5.77867 5.77423,1.53305 0,0 z m -2.66102,-0.57216 c 1.39081,-3.28554 2.74189,2.67233 0,0 z m -18.03435,-3.42552 c -1.36154,-4.06674 3.90747,2.77992 0,0 z m 21.49881,0.23753 c 2.90585,-2.68847 4.44854,2.47292 0,0 z m -26.96959,-3.4649 c -1.34324,-3.00825 6.65678,2.0072 0,0 z m -44.78028,-1.85343 c 1.46015,-1.76987 1.10041,1.73507 0,0 z m 42.54658,0.0502 c 0.39763,-2.10056 1.59845,0.8208 0,0 z m -33.82453,-0.90115 c 1.53876,-1.79325 1.53872,1.79326 0,0 z m -33.50544,-1.13271 1.03808,0.0203 -1.03808,-0.0203 z m 28.45872,-1.20735 c 1.02603,-2.41306 1.37676,2.43486 0,0 z m 44.04753,-1.43644 c 0.33529,-2.76201 2.33261,1.64155 0,0 z m -42.61727,-1.09124 c 0.62643,-2.28306 1.38976,1.62696 0,0 z m 46.88796,-1.70656 c 0.42229,-2.93491 1.28372,3.76497 0,0 z m 15.33642,0.72581 c -1.05842,-3.11571 6.83671,1.60175 0,0 z m 4.60153,-0.71276 c 0.92637,-1.50452 2.22471,2.18943 0,0 z m 2.47075,-0.11313 c -0.25008,-2.27012 3.31391,2.83249 0,0 z m -62.91467,-5.23866 c 1.77551,-4.36677 1.77551,4.36677 0,0 z m -2.20711,0.13482 0.76855,0.0786 -0.76855,-0.0786 z m 59.85773,-0.13482 c -0.0879,-2.54764 3.81199,2.39774 0,0 z m -59.85773,-1.14157 0.76855,0.0786 -0.76855,-0.0786 z m 65.60152,-0.32245 c 0.62643,-2.28308 1.38977,1.62698 0,0 z m -53.2896,-0.53811 1.90309,0.004 -1.90309,-0.004 z m 31.93121,-0.63576 c 2.00129,-1.55939 0.45216,1.79369 0,0 z m 17.10373,-0.79095 0.83188,0.24399 -0.83188,-0.24399 z m -63.07531,-2.38399 1.03807,0.0203 -1.03807,-0.0203 z m 81.37034,-23.54431 c 1.02675,-1.67083 1.02678,1.67083 0,0 z M -456.84473,488.738 c -1.02679,-1.67085 -1.02676,1.67085 0,0 z m 89.09842,0.0593 c 0.0674,-2.33681 -3.59283,2.1598 0,0 z m 25.90589,-0.64428 c -3.45009,-3.65835 0.58802,3.8696 0,0 z m 7.10439,0.58493 c -1.10045,-1.73507 -1.46011,1.76988 0,0 z m -148.48758,-0.42545 c -1.53872,-1.79326 -1.53876,1.79325 0,0 z m 12.12578,0 c -0.5601,-1.61324 -0.955,1.64761 0,0 z m 215.07298,-0.23784 c -1.3424,-1.56197 -0.15004,2.1731 0,0 z m -4.80416,-0.77248 c -2.52251,-2.16958 -2.0688,2.70498 0,0 z m 56.2048,0.32178 c -4.19074,-2.64463 1.10747,2.98229 0,0 z m -203.91866,-0.1438 -1.44896,0.24374 1.44896,-0.24374 z m 155.48977,0.0878 c -0.17338,-2.89462 -2.63596,0.21967 0,0 z m 43.61676,-0.10637 c -1.10045,-1.73507 -1.46011,1.76988 0,0 z m 16.37712,-0.3191 c -1.89704,-4.8332 -2.35015,2.60987 0,0 z m -154.01532,-0.10636 c -1.02676,-1.67085 -1.02679,1.67085 0,0 z m 11.48758,0.0683 -2.35217,-1.36131 2.35217,1.36131 z m 76.15838,-0.70649 c -1.47358,-4.31236 -1.21872,3.32216 0,0 z m 157.19146,0.24213 c -0.0404,-2.16759 -1.40338,1.46034 0,0 z m -304.2738,-0.66177 c -1.60563,-2.27293 -1.77683,2.26941 0,0 z m 41.77654,0.2118 -0.6503,0.27937 0.6503,-0.27937 z m 95.09462,-0.005 c -0.95494,-1.64763 -0.56013,1.61323 0,0 z m -101.39569,-0.93071 -0.0786,0.76856 0.0786,-0.76856 z m 14.1752,0.74308 -1.02381,-0.17029 1.02381,0.17029 z m 3.69436,-0.74308 -0.0786,0.76857 0.0786,-0.76857 z m 6.73141,0.50224 c -0.65929,-2.48421 -2.61229,1.21181 0,0 z m 2.57385,-0.0341 c -0.002,-3.3592 -2.30005,1.68257 0,0 z m 134.21156,0.0371 c -1.53873,-1.79328 -1.53873,1.79328 0,0 z m 2.94835,-2.02096 c -1.68268,-3.52723 0.0628,6.5306 0,0 z m 4.4973,2.02096 c -2.5649,-1.88561 -2.5649,1.88561 0,0 z m -129.55435,-0.42547 c -0.56014,-1.61323 -0.95496,1.64764 0,0 z m 67.95931,0.16842 -0.78088,0.0242 0.78088,-0.0242 z m 52.02206,-0.4166 c -1.53125,-2.05195 -1.29311,2.50296 0,0 z m -159.55621,-1.63096 -0.46458,1.40169 0.46458,-1.40169 z m -38.28541,1.02821 c -1.46015,-1.76987 -1.10041,1.73507 0,0 z M -279,484.05788 c -2.04914,-1.86166 -2.04918,1.86166 0,0 z m 78.71118,-0.24313 c -1.23485,-7.31433 -2.12666,2.22885 0,0 z m 101.89906,-0.18234 c -2.00627,-3.17984 -3.31198,1.57093 0,0 z m -258.89596,-0.42546 c -0.95496,-1.64764 -0.56014,1.61323 0,0 z m 261.65498,-0.10637 c -0.05455,-3.91743 -1.380963,1.81394 0,0 z m -304.20156,-0.0608 -1.26238,-0.237 1.26238,0.237 z m 32.87533,-0.11186 -1.25515,-0.001 1.25515,0.001 z m 12.22405,-0.14639 c -0.56013,-1.61324 -0.95497,1.64764 0,0 z m -60.41615,-0.18762 -0.83187,-0.24399 0.83187,0.24399 z m 206.77639,-0.2032 c -5.66262,-5.83106 -5.11669,2.11109 0,0 z m 10.21118,-0.27254 c -1.38976,-1.62701 -0.62644,2.28307 0,0 z m -8.76399,-2.15943 c -4.51635,-5.41473 1.09187,7.1289 0,0 z m -193.43927,0.58716 c 4.97596,-3.49584 -6.73829,-2.68423 0,0 z m 40.44882,-0.0241 c 10.03816,-9.95298 -9.66758,0.70173 0,0 z m 167.20873,-0.6122 c -1.83773,-3.44958 -2.41008,4.39423 0,0 z m -296.53445,-1.24418 c -3.23124,-0.7015 1.23702,3.10234 0,0 z m 27.50408,1.1378 c -1.10042,-1.73508 -1.46016,1.76987 0,0 z m 116.01638,-0.25439 c 3.33662,-4.29999 -5.26908,2.39802 0,0 z m 144.15598,0.29991 c -0.18468,-1.98054 -2.15373,1.11567 0,0 z m 102.67848,-0.22526 c 6.565413,-4.01311 -8.16601,-0.47289 0,0 z m -307.33111,-0.65999 c 0.57381,-3.28869 -3.16867,1.76044 0,0 z m 210.49392,0.15721 -0.78088,0.0242 0.78088,-0.0242 z m 116.2674,-0.0871 c 0.63982,-4.82944 -3.143536,1.44355 0,0 z m -373.69383,-1.01203 -0.0786,0.76857 0.0786,-0.76857 z m 258.80455,-2.60978 c -4.38741,0.38386 -2.66748,4.60837 0,0 z m -300.79084,2.26409 c -1.10045,-1.73509 -1.46014,1.76989 0,0 z m 85.09317,0.23784 -0.83188,-0.24397 0.83188,0.24397 z m -77.00932,-0.87603 c -0.41481,-2.27083 -0.94634,2.32744 0,0 z m 24.49369,-0.2603 c -0.63641,-3.58418 -2.86893,1.83759 0,0 z m 57.78646,-0.88021 c 3.11142,-4.66967 -6.90774,4.11278 0,0 z m 312.03772,1.07686 c 1.381846,-3.30708 -9.0388,1.75113 0,0 z m -104.94773,-2.27641 c -1.86528,-1.64931 -0.59653,4.46523 0,0 z m -260.17246,0.62092 c 13.21866,-4.38825 -10.94005,0.0884 0,0 z m 57.17189,-0.008 c -5.69449,-3.47312 -0.67997,3.41477 0,0 z m -97.64441,0.23784 c -1.02678,-1.67086 -1.02678,1.67086 0,0 z m 124.97509,-0.39854 c 7.19048,-11.48223 -7.05018,1.54258 0,0 z m 169.23453,0.63638 -0.83188,-0.24398 0.83188,0.24398 z m 11.66505,-0.5121 c 2.85732,-7.51772 -7.13185,-5.22115 0,0 z m -18.4725,0.0866 -0.83187,-0.24399 0.83187,0.24399 z m -254.00311,-0.66331 c -2.04913,-1.86167 -2.04917,1.86166 0,0 z m 245.91926,0.23784 -0.83187,-0.24398 0.83187,0.24398 z m 5.63742,-0.33165 c -2.47384,-8.10735 -8.86754,1.73642 0,0 z m 13.08308,-0.7815 c 0.80764,-5.45901 -5.52188,3.34717 0,0 z m -299.33416,0.48048 c -0.0729,-11.90039 -9.73781,-1.89059 0,0 z m 143.49843,0.13777 -0.78088,0.0242 0.78088,-0.0242 z m 100.0997,-0.16102 c -2.48741,-2.26674 -7.56179,2.37811 0,0 z m 34.39509,-0.53922 c -7.22096,-16.42046 -5.0906,0.30181 0,0 z m -275.63422,0.13504 c 6.12889,-1.86467 -2.73662,-1.90782 0,0 z m 120.61957,-0.0287 c -1.34298,-1.85366 -0.65477,1.75701 0,0 z m 115.6626,-0.65183 c -2.43412,-2.63819 -0.267,2.82218 0,0 z m 84.73181,0.65183 c -0.56011,-1.61323 -0.95498,1.64761 0,0 z m -220.81677,-0.85094 c -1.56683,-1.83295 -2.05402,1.89533 0,0 z m 228.68788,0.0171 c -3.08916,-2.8081 -5.91821,1.68405 0,0 z m -324.30637,-0.30917 -1.68751,-0.002 1.68751,0.002 z m 28.06692,0.0353 -0.78088,0.0242 0.78088,-0.0242 z m 207.10622,-0.17141 c 1.89042,-6.27355 -5.17818,0.35255 0,0 z m 2.12547,0.003 c -0.5601,-1.61324 -0.955,1.64761 0,0 z m 45.62235,0.16841 -0.78089,0.0242 0.78089,-0.0242 z m 122.6813,-0.28541 -0.736742,0.27516 0.736742,-0.27516 z m -411.88284,-0.5212 c -1.01751,-2.35119 -1.01751,2.35119 0,0 z m 292.18886,-0.10637 c -1.54718,-4.56765 -4.49923,2.15215 0,0 z m 30.73971,0.17231 c -2.37106,-6.94321 -2.25252,1.71144 0,0 z m 92.55907,-1.88936 c -3.434059,0.0862 -0.101986,3.54388 0,0 z m -305.866,0.54702 c -0.28538,-3.85067 -3.61702,2.96277 0,0 z m 221.81625,0.36601 c 0.22516,-5.4726 -5.99068,-3.04934 0,0 z m -33.85799,-0.68311 c 0.0263,-3.7575 -4.58251,2.29517 0,0 z m 26.6336,-0.52355 c -3.4196,-3.11124 0.99072,3.21625 0,0 z m -292.57517,-0.43578 c -1.02601,-2.41303 -1.37678,2.43483 0,0 z m 80.73658,-0.49993 c -1.77241,-0.42347 2.06385,2.54569 0,0 z m 181.62198,0.039 c -1.53124,-2.05194 -1.2931,2.50294 0,0 z m 10.05681,0.23237 c 5.13159,-6.08666 -7.88734,-2.38802 0,0 z m -67.14533,-0.87137 -0.43798,-0.51201 0.43798,0.51201 z m 53.68479,0.46172 c -0.56008,-1.61324 -0.95499,1.6476 0,0 z m 43.20296,0.0294 c 4.87168,-7.05945 -4.02352,-1.94881 0,0 z m 83.20026,-0.0507 c 2.136899,-3.22515 -3.471127,1.5493 0,0 z m -301.43809,-1.13982 c -2.02177,0.76511 1.31925,1.32415 0,0 z m 32.92928,0.52297 c -0.7124,-2.43424 -1.74169,2.29951 0,0 z m 93.60249,0.1729 c -0.051,-3.87394 -4.29131,1.57168 0,0 z m 3.11813,-0.8111 c 0.78313,-4.1774 -4.83209,4.13559 0,0 z m 34.65082,0.50524 c -1.48143,-2.04755 -1.32702,2.46828 0,0 z m 44.13322,0.34569 c -3.82464,-1.89902 -2.93124,1.89449 0,0 z m 3.68028,-0.75875 c -9.3355,-7.88654 -1.24078,3.17784 0,0 z m -26.4427,-0.37778 c 1.05535,-11.20661 -8.87063,-3.13565 0,0 z m -188.0559,-1.06366 c 4.46711,-7.19098 -9.98361,2.96742 0,0 z m 30.84627,0.0729 c -1.02679,-1.67085 -1.02676,1.67085 0,0 z M -504.77524,465.869 c -1.88016,-8.08432 -4.00961,0.90565 0,0 z m 29.63548,-0.77555 c -1.90996,-2.26561 -1.91456,2.65884 0,0 z m 1.9146,-0.27644 c -1.67126,-1.49159 -1.22701,2.32715 0,0 z m 79.98758,0.52037 c -2.04916,-1.8617 -2.04916,1.8617 0,0 z m 217.86132,-0.35361 c 6.84187,-9.4945 -9.16948,1.71392 0,0 z m 93.09532,0.14088 c -1.403492,-2.44421 -0.995241,2.41711 0,0 z m -419.48188,-0.16812 c 0.67512,-8.20465 -7.14135,1.58678 0,0 z m 300.1976,-0.66946 c -1.78466,-1.72068 -1.29079,2.34379 0,0 z m -148.70031,-0.22609 c -1.46016,-1.76987 -1.10042,1.73508 0,0 z m 271.22617,-2.32232 c 4.573182,-13.06085 -5.206957,8.68243 0,0 z m -302.34405,1.68412 c -0.95466,-2.33886 -0.40176,2.27819 0,0 z m 125.78403,-0.21273 c -1.02678,-1.67086 -1.02678,1.67086 0,0 z m -154.86957,-0.42547 c -1.02679,-1.67085 -1.02676,1.67085 0,0 z m 177.20652,0 c -1.02679,-1.67085 -1.02676,1.67085 0,0 z m -183.58199,-0.95729 c 21.10938,-0.9518 19.98908,-31.37545 3.94353,-23.5957 8.64532,-3.77923 -16.69758,-8.27479 2.40943,-6.41845 -14.03098,-3.18237 -32.05417,-1.61506 -53.16539,-8.25414 -19.45739,-3.72651 17.64889,32.41599 29.14675,31.99518 4.75575,7.53435 14.58394,0.32219 17.66568,6.27311 z m 0.0879,-3.79339 c 3.08075,-2.36814 1.26911,1.7794 0,0 z m -3.28543,-0.78037 c 0.95496,-1.64764 0.56014,1.61323 0,0 z m 12.97671,-0.6382 c 1.0175,-2.35118 1.0175,2.35118 0,0 z m -2.51921,-0.88639 0.30143,0.26297 -0.30143,-0.26297 z m -10.4575,-0.17727 c 0.95496,-1.64764 0.56014,1.61323 0,0 z m -18.7205,-1.2764 c 0.25211,-3.7229 1.73746,1.93143 0,0 z m 26.80435,-1.70187 c 1.02678,-1.67083 1.02675,1.67083 0,0 z m -14.8913,-8.50931 c 0.95496,-1.64763 0.56014,1.61324 0,0 z m 20.91501,-0.19107 c 0.93508,-1.53803 0.69875,2.5056 0,0 z m 2.69834,0.19107 c 1.02675,-1.67083 1.02678,1.67083 0,0 z m -5.29586,-0.38913 c -0.006,-2.1837 1.9507,0.98155 0,0 z m -20.77006,-0.29067 c -0.7586,-4.1455 2.83482,1.27832 0,0 z m -27.54278,-1.873 c 1.0268,-1.67084 1.02676,1.67085 0,0 z m 39.85197,0.14182 c -1.28048,-3.03908 3.92789,1.69032 0,0 z m -31.98085,-0.56728 c 1.02675,-1.67083 1.02678,1.67083 0,0 z m 39.78106,-1.2764 c 1.02676,-1.67085 1.02679,1.67085 0,0 z m -38.26415,-1.03019 c 0.92635,-1.50453 2.22473,2.18941 0,0 z m 7.9763,-0.11138 0.76856,0.0786 -0.76856,-0.0786 z m -17.36433,-1.99032 c 3.87641,-3.03336 2.54068,2.85417 0,0 z M -416,436.16786 c 1.38976,-1.62701 0.62644,2.28307 0,0 z m -13.61491,-1.88949 c 1.00298,-3.0416 1.00298,3.0416 0,0 z m 8.93478,0.21274 c 1.01747,-2.35116 1.01752,2.35115 0,0 z m -18.60603,-1.35851 1.25575,0.0285 -1.25575,-0.0285 z m -20.96229,-7.15081 c 2.05316,-2.63773 2.05316,2.63773 0,0 z m 240.81366,36.11497 -1.68554,0.2176 1.68554,-0.2176 z m -287.35918,-0.82112 c 0.16015,-4.58021 -2.39829,3.47657 0,0 z m 29.73962,0.012 c -2.95581,-1.93263 -1.60948,4.37414 0,0 z m 70.75851,0.61409 c -1.34369,-1.86032 -1.34365,1.86033 0,0 z m 157.84428,-0.47864 c 1.48324,-4.21139 -5.79043,2.61249 0,0 z m 68.5851,-0.17316 -1.26238,0.23701 1.26238,-0.23701 z m -60.13438,-1.12451 -0.0203,1.03808 0.0203,-1.03808 z m -55.56042,0.41483 -0.73674,0.27516 0.73674,-0.27516 z m 132.66157,0.15806 c 1.12901,-3.35872 -3.2216,1.33078 0,0 z m -220.28751,-1.17918 c -1.66583,-1.75141 1.47193,3.27781 0,0 z m -15.50353,-0.21805 -0.0786,0.76856 0.0786,-0.76856 z m -11.99095,0.0798 c -1.53872,-1.79326 -1.53876,1.79325 0,0 z m 176.14286,0 c -1.10042,-1.73508 -1.46016,1.76987 0,0 z m 3.40372,0 c -1.53872,-1.79326 -1.53876,1.79325 0,0 z m -66.07261,-0.92408 c 16.88689,-4.93932 -14.29263,0.77639 0,0 z m -183.03764,-1.20327 c -0.65036,-6.12465 -2.01364,6.47009 0,0 z m -2.54819,-0.6296 c -2.8013,-4.09438 1.09718,5.20539 0,0 z m 241.66,1.48053 c -1.53873,-1.79328 -1.53873,1.79328 0,0 z m 5.36264,-0.7357 c -2.02178,0.7651 1.31923,1.32417 0,0 z m -134.53676,0.0619 c -0.61776,-1.90577 -1.06319,2.85438 0,0 z m 68.45624,-0.17896 c -3.56248,-7.31722 -3.03574,2.50901 0,0 z m 40.01124,0.24754 -0.6679,-1.9961 0.6679,1.9961 z m 35.81067,-0.0168 c 0.8897,-5.9067 -9.99844,-0.56918 0,0 z m -13.09193,-0.486 -0.78088,0.0242 0.78088,-0.0242 z m 81.66456,-0.8758 c -2.26215,-0.34513 0.69607,2.12955 0,0 z m -134.81411,0.25002 c -1.34365,-1.86033 -1.34369,1.86032 0,0 z m 61.77409,-0.39356 c -1.53876,-1.79325 -1.53872,1.79326 0,0 z m -278.79535,-0.25702 -0.78088,0.0242 0.78088,-0.0242 z m 257.8323,0 -0.78088,0.0242 0.78088,-0.0242 z m 20.11212,-1.07144 c -2.48275,-2.0443 -1.50866,3.68662 0,0 z m -275.70186,0.47756 c 7.90203,-3.01276 -5.16335,-1.74099 0,0 z m 208.47826,0 c -1.10045,-1.73509 -1.46014,1.76989 0,0 z m 61.40325,-0.77522 c 1.37376,-4.78597 -21.40439,1.66165 0,0 z m -44.14424,0.2512 c -6.00152,-2.83893 -2.90936,2.21392 0,0 z m 204.83445,-3.04958 c -2.722374,-0.19674 0.387196,2.90486 0,0 z m -168.24699,-0.0564 c -10.22545,-9.75891 -11.10391,2.16401 0,0 z m 173.79643,-1.26287 c -1.860616,-2.33198 -3.120293,2.12378 0,0 z m -416.73809,-0.39067 c 2.49806,-2.65468 -4.83988,1.97784 0,0 z m 90.81258,-0.48536 c -1.28874,-2.48309 -1.34254,3.47097 0,0 z m 4.15715,-0.10785 c -1.48142,-2.04755 -1.32701,2.46828 0,0 z m 14.64824,-1.82879 c -1.33587,-1.96145 -0.61122,4.07885 0,0 z m 122.95983,0.47262 c 2.48998,-2.63622 -8.43838,2.1059 0,0 z m -232.26617,-0.85093 c -2.18715,-3.12335 0.36871,2.87695 0,0 z m 92.06799,-0.0798 -0.0786,0.76856 0.0786,-0.76856 z m -114.31549,-0.34567 c -0.955,-1.64761 -0.5601,1.61324 0,0 z m 255.48819,-1.11923 c -6.11728,-2.9129 -3.28687,2.73144 0,0 z m -200.6031,0.2683 c -1.53872,-1.79329 -1.53872,1.79329 0,0 z m 194.16629,-0.21273 c -3.25816,-4.01245 -1.87583,2.76832 0,0 z m 192.8728,-0.71798 -0.07857,0.76856 0.07857,-0.76856 z m -306.87357,-0.60394 -1.44007,-0.7973 1.44007,0.7973 z m -120.58477,-1.86908 c -1.53876,-1.79325 -1.53872,1.79326 0,0 z m 426.74224,-0.87604 c -1.360951,-3.74743 -0.594422,4.55201 0,0 z m 2.09741,0.76968 c 0.39149,-4.57272 -2.502182,1.80922 0,0 z m -201.42816,-0.3191 c -1.11411,-2.25457 -2.56811,2.22016 0,0 z m -127.92515,-0.98916 c -2.89207,-2.89681 -2.94019,3.66883 0,0 z m 19.64409,0.56369 c -1.53875,-1.79326 -1.53871,1.79327 0,0 z m 24.67702,-0.85093 c -1.5668,-1.83298 -2.05402,1.89535 0,0 z m 85.09317,-0.42547 c -0.56014,-1.61323 -0.95496,1.64764 0,0 z m -106.36646,-0.85093 c -1.56682,-1.83295 -2.05399,1.89532 0,0 z m 0.85093,-1.05031 c -1.7177,-1.70552 -0.80577,2.28339 0,0 z m -3.72282,-0.0824 -1.03807,0.0203 1.03807,-0.0203 z m 108.77942,-2.63394 c -0.46514,-3.89161 -1.66803,4.17261 0,0 z m -105.25261,-1.3916 c -1.60086,-5.46684 -2.75417,6.2117 0,0 z m 22.99323,0.90359 -2.41323,-1.60514 2.41323,1.60514 z m -19.39349,-0.61313 c 2.45457,-5.72091 -6.21393,2.17788 0,0 z m 302.50621,-1.72693 c -0.989322,-3.75242 -0.989286,3.75244 0,0 z m -427.1677,-0.6382 c -0.955,-1.64761 -0.5601,1.61324 0,0 z m 87.40568,0.0446 c -1.40666,-2.72938 -5.10945,3.16261 0,0 z m 59.8055,-0.0446 c -1.02678,-1.67083 -1.02675,1.67083 0,0 z m -80.41304,-3.19099 c -1.84644,-2.59357 -1.17839,2.53834 0,0 z m 23.82608,0.26235 c -4.75489,-2.08744 -3.17102,1.98227 0,0 z m -7.63041,-1.34098 c 2.97026,-3.12747 -4.87788,1.27327 0,0 z m 141.01395,0.015 c -0.65475,-1.75701 -1.34298,1.85366 0,0 z m -108.8838,-0.85093 c 2.80622,-12.39666 -10.24496,0.19001 0,0 z m -14.48774,-1.69852 c -1.22378,-3.04709 -2.12487,5.40203 0,0 z m -27.69638,0.0412 c -0.38859,-2.1398 -2.37653,2.03122 0,0 z m 152.56094,-0.67809 c -2.03588,-2.33601 0.0228,2.18423 0,0 z m -185.08153,-0.40502 c -0.88127,-3.98602 -1.91732,2.734 0,0 z m 75.30746,-3.47436 -1.26238,0.237 1.26238,-0.237 z m -94.12546,-1.09792 c -1.32701,-2.46828 -1.48142,2.04755 0,0 z m 36.68757,-1.17151 c -1.59312,-4.31358 -0.81489,3.02829 0,0 z m 89.77329,0.0245 c -1.89767,-2.37311 -2.20531,1.80716 0,0 z m -37.60434,-1.6717 c -2.48973,-0.89632 2.24171,3.41253 0,0 z m -37.27765,-0.2674 c -0.71028,-6.1852 -1.13762,5.2433 0,0 z m -28.44239,-0.45058 c -1.10081,-2.11442 -1.10081,2.11442 0,0 z m 166.475,-0.4346 c 2.16047,-3.27898 -5.76159,3.01905 0,0 z m -66.14241,-1.24655 c 9.5219,-0.66237 -5.4379,-1.03753 0,0 z m 1.01436,-3.73886 c -3.14919,-1.54758 0.53031,3.9363 0,0 z m -65.03344,0.9526 c -0.56014,-1.61323 -0.95496,1.64764 0,0 z m 22.97214,-0.42059 -0.65029,0.2794 0.65029,-0.2794 z m 2.22785,-0.26193 -0.78088,0.0242 0.78088,-0.0242 z m -7.23292,-3.40372 -0.78088,0.0242 0.78088,-0.0242 z m -99.97286,-1.22938 c 3.32233,-6.8193 -3.93675,1.68601 0,0 z m 92.1685,-0.015 c -1.65073,-8.3378 -10.18018,2.20521 0,0 z m 6.21773,-0.21376 -2.30355,-0.32226 2.30355,0.32226 z m -2.7837,-2.08458 c -0.0404,-2.1676 -1.40337,1.46036 0,0 z m 53.8396,-1.3058 c -2.2452,-1.90421 -0.89907,1.97511 0,0 z m -59.99069,-1.48913 c -1.3474,-2.57155 -0.48602,2.26682 0,0 z m 60.28133,-1.14344 -0.0786,0.76856 0.0786,-0.76856 z m -124.84577,-5.73306 -1.03807,0.0203 1.03807,-0.0203 z m 20.84559,-9.71667 c -0.48887,-3.84556 -2.62398,4.6744 0,0 z m 115.40985,0.6382 c -0.56013,-1.61324 -0.95497,1.64764 0,0 z m -4.04193,-3.40373 c -1.02679,-1.67085 -1.02676,1.67085 0,0 z m 13.18265,-29.16867 c -3.95903,-8.41002 1.80047,8.16427 0,0 z m 7.22052,-0.7203 c 0.13628,-6.21023 -2.73593,1.84838 0,0 z m -6.73633,-1.45722 c -1.7724,-0.42352 2.06381,2.54569 0,0 z m 5.47912,-2.66596 c -0.62643,-2.28308 -1.38977,1.62698 0,0 z m 1.2764,-2.60302 c -1.27549,-2.27944 -0.0589,2.85524 0,0 z m -10.46943,-1.49882 c 1.41313,-6.36462 -2.97537,1.87283 0,0 z m -0.4349,-3.96281 0.43637,-2.07975 -0.43637,2.07975 z m 1.96955,-0.0443 c -0.955,-1.64761 -0.5601,1.61324 0,0 z m 8.50932,-26.59161 c -0.95465,-2.33886 -0.40178,2.27819 0,0 z m 46.94987,-10.22481 c -1.37422,-2.16677 0.0816,2.94675 0,0 z m -69.92503,-24.6885 c -1.34241,-1.56197 -0.15002,2.17311 0,0 z m 1.06367,-1.46402 c -0.56011,-1.61323 -0.95498,1.64761 0,0 z m 66.15993,-0.85093 c -0.93633,-3.03896 -0.32716,2.97268 0,0 z m -15.54637,-63.5422 c 1.89842,-3.66704 -8.30692,3.82077 0,0 z m 10.01532,-2.47331 c -2.24756,-1.13741 -3.60801,4.04377 0,0 z m 1.91459,-1.2081 c -1.19874,-1.82421 -1.85776,1.87842 0,0 z m 2.2337,-7.22711 c 10.00367,-13.71146 -9.88394,-0.37198 0,0 z m -9.95095,-10.00425 c -0.4148,-2.27081 -0.94636,2.32741 0,0 z m 3.88806,-2.09247 c -1.77644,-6.65762 -12.25073,4.32715 0,0 z m 28.60372,-7.73757 -0.78088,0.0242 0.78088,-0.0242 z m -90.33373,-6.58149 c 8.13755,-6.68112 -9.10905,-1.02994 0,0 z m 3.65392,-1.45804 c -1.0175,-2.35118 -1.0175,2.35118 0,0 z m -36.27076,-5.63742 c -1.90763,-2.26534 -1.93541,2.64065 0,0 z m 52.86393,-10.50517 -1.0238,-0.17029 1.0238,0.17029 z m 1.06367,-1.51424 c -0.56011,-1.61323 -0.95498,1.64761 0,0 z m 98.49534,-12.33851 c 2.04017,-3.09338 -3.89559,3.57238 0,0 z m 133.809,665.42859 c 0.954948,-1.64763 0.560154,1.61323 0,0 z m -399.93788,-27.22986 c 0.95499,-1.6476 0.56008,1.61324 0,0 z m -1.44672,-3.08463 c -0.67653,-8.88108 3.4358,4.87616 0,0 z m 406.85941,-7.7579 c -1.755119,-9.00664 4.671649,2.04762 0,0 z m -4.60269,-11.59267 c -2.626491,-10.9675 9.024123,-1.9822 0,0 z m 1.46795,-7.51462 1.016171,-0.2854 -1.016171,0.2854 z m -401.60617,-2.20829 0.30143,0.26294 -0.30143,-0.26294 z m -0.88452,-9.96301 c 1.00298,-3.04159 1.00298,3.04159 0,0 z m -5.42469,-117.21405 c -1.98272,-2.74513 3.61152,2.03368 0,0 z m 2.2337,-3.19278 c 0.5601,-1.61324 0.955,1.64761 0,0 z m 2.9272,-1.46875 c -4.54368,-7.37143 4.48625,2.4196 0,0 z m -6.29564,-28.68223 c -1.3198,-2.06275 1.65749,0.42154 0,0 z m -1.29531,-6.41258 c -1.49118,-4.16953 3.1486,-0.15281 0,0 z m 415.2542,-45.65772 c 2.020709,-5.61882 -0.13645,4.86511 0,0 z m -152.54542,-11.38121 c 2.04915,-1.86169 2.04915,1.86169 0,0 z m 12.76398,-2.12733 c 1.2751,-2.7689 1.27505,2.76892 0,0 z m 4.25465,0.68781 1.68555,-0.21758 -1.68555,0.21758 z m 4.68013,-0.68781 c 2.56491,-1.88559 2.56488,1.8856 0,0 z m -0.54947,-1.69905 c 7.47586,-3.73708 2.29409,2.3987 0,0 z m -10.29991,-1.27921 c 1.343,-1.85367 0.65472,1.75702 0,0 z m 11.55849,-0.92186 c -1.91614,-5.94263 4.17256,5.01563 0,0 z m 9.92753,-0.78 c 1.02676,-1.67085 1.0268,1.67084 0,0 z m -11.91304,-2.12733 c 1.46012,-1.76988 1.10047,1.73507 0,0 z m 5.87675,0.13483 0.76853,0.0786 -0.76853,-0.0786 z m 6.24903,-0.13483 c 2.56488,-1.8856 2.56491,1.88559 0,0 z m -4.04193,-0.85093 c 1.02675,-1.67083 1.02678,1.67083 0,0 z m 6.14146,-0.37663 c -14.60261,-7.43325 16.97603,2.69268 0,0 z m 10.45171,0.37663 c 0.83633,-1.70638 3.00774,1.91961 0,0 z m -309.31367,-1.06367 c -13.54898,-5.79407 3.11623,-3.88367 0,0 z m 313.99379,-0.49056 c -2.85106,-2.35448 4.74417,2.14224 0,0 z m 1.81727,-1.10757 c -22.59828,-5.0014 13.21371,-7.23333 0,0 z m 1.35556,-0.71253 c -0.0404,-2.16756 -1.40337,1.46032 0,0 z m -314.9063,0.48724 c -6.08308,-8.20898 4.50206,-1.46268 0,0 z m 329.92214,-2.07482 1.03807,0.0203 -1.03807,-0.0203 z m -253.89674,-0.4484 c -6.93665,-1.90708 5.33528,-3.10299 0,0 z m 242.94099,-0.009 c -8.46795,-0.40323 2.34355,-2.09146 0,0 z m -5.53105,-0.96934 c -1.3864,-6.44006 3.963,0.89345 0,0 z m -18.0823,-0.41887 c -0.76318,-1.6004 3.19575,1.41672 0,0 z m 8.05859,-0.0408 c -7.20678,-3.37121 6.55639,-2.93634 0,0 z m -11.03685,-0.81009 c 2.02013,-1.88938 2.64344,1.94947 0,0 z m 5.74379,-0.87603 0.83188,0.24397 -0.83188,-0.24397 z m 1.06487,-0.82205 c -0.4194,-4.74728 2.12897,2.95663 0,0 z m 17.23016,0.42168 c 1.02679,-1.67085 1.02676,1.67085 0,0 z m -19.14597,-1.51423 c 1.34239,-1.56197 0.15004,2.17307 0,0 z m 59.88432,-3.87314 1.03808,0.0203 -1.03808,-0.0203 z m -56.48059,-1.87065 0.83187,0.24397 -0.83187,-0.24397 z m 31.37811,-0.70061 1.9031,0.004 -1.9031,-0.004 z m -336.86258,-1.00123 c 1.42087,-2.32702 0.57262,3.02554 0,0 z m 344.20186,-0.99738 c 5.9388,-8.87514 8.69916,-0.74621 0,0 z m -39.99379,-0.84251 1.68556,-0.21757 -1.68556,0.21757 z m 4.68013,-0.21622 c -5.57739,-1.2628 1.77078,-2.46183 0,0 z m 68.07453,-2.17345 c 1.46016,-1.76987 1.10044,1.73508 0,0 z m -333.56522,-1.2764 c 1.46016,-1.76987 1.10042,1.73508 0,0 z m 293.57143,-0.0251 0.83189,0.24397 -0.83189,-0.24397 z m 7.87112,0.0251 c 0.955,-1.64761 0.5601,1.61324 0,0 z m -5.7102,-0.67364 0.30143,0.26296 -0.30143,-0.26296 z m 3.23547,-0.55063 c -18.66767,-20.92705 22.64181,-24.00639 10.34445,-10.8501 -12.11382,4.7177 13.93821,10.60918 -10.34445,10.8501 z m 1.41107,-2.86726 c 11.58526,-3.27234 -6.80665,-4.22933 0,0 z m 2.42331,-5.84948 c 5.29851,-14.68428 -9.93715,6.72698 0,0 z m 3.08951,-3.87428 c -3.6754,-1.67391 1.18395,3.54325 0,0 z m 2.80667,-0.68762 c -1.76909,-4.25608 -4.98608,2.39743 0,0 z m -10.02136,-1.23932 c -1.56678,-1.83297 -2.05405,1.89533 0,0 z m 1.48913,-0.42547 c -0.56013,-1.61323 -0.95494,1.64763 0,0 z m 4.4674,0 c -0.95498,-1.64761 -0.56011,1.61323 0,0 z m 73.60559,13.82764 c 1.017494,-2.35118 1.017494,2.35118 0,0 z m -84.66771,0.0486 3.12527,-2.25977 -3.12527,2.25977 z m -19.41361,-0.98644 c 2.60875,-2.95061 6.07633,0.67536 0,0 z m 38.8754,-0.60336 c 1.58405,-2.67096 1.78358,2.22968 0,0 z m 3.0879,0.45244 0.83187,0.24397 -0.83187,-0.24397 z m 14.38607,-0.26553 0.76855,0.0786 -0.76855,-0.0786 z m 10.92915,-0.28353 c 5.33379,-3.03067 -1.11261,2.28336 0,0 z m -72.10414,-1.11106 c -1.35706,-2.34071 3.92228,2.42145 0,0 z m 57.7208,0.13674 c 1.5712,-3.83565 7.83756,2.8579 0,0 z m -7.82721,-0.73116 c -3.73418,-1.97283 3.84246,-0.75293 0,0 z m -6.27749,-0.66921 c 0.16224,-2.23279 1.68324,1.65897 0,0 z m 2.12733,0 c 0.0404,-2.16758 1.40338,1.46032 0,0 z m -46.60668,-0.37766 1.09007,-0.76267 -1.09007,0.76267 z m 42.63227,-0.18581 c -1.0995,-2.5327 2.50713,0.12157 0,0 z m -34.3472,-0.76097 c -1.79192,-11.84683 6.10736,-2.9358 0,0 z m 69.40644,0.13353 c 1.07283,-4.56659 5.49937,2.89735 0,0 z m -351.26605,-0.96582 c 2.04914,-1.86166 2.04918,1.86166 0,0 z m 279.61754,-0.34757 c 1.67019,-3.09755 2.21875,2.1481 0,0 z m 19.48495,-0.0779 c 1.00298,-3.04159 1.00298,3.04159 0,0 z m 19.09299,-0.10637 c 1.8733,-12.09292 15.0919,-2.60254 0,0 z m 6.22223,-4.02621 c -2.6422,-2.82244 -3.26029,1.62861 0,0 z m 1.06366,-1.17239 c -1.71767,-1.70548 -0.80573,2.28334 0,0 z m -46.42082,3.49783 c 2.69026,-4.32791 0.75098,2.38035 0,0 z m 22.59473,0.1162 c -7.37191,-6.30793 3.04829,-1.15986 0,0 z m 24.67702,0.23078 c 5.6393,-7.12649 9.85862,-2.66362 0,0 z m 29.61808,-1.27755 c 2.18789,-2.63835 2.08544,1.75353 0,0 z m -361.30504,-0.29935 c 1.01723,-1.91483 1.54631,1.21831 0,0 z m 344.37116,0.19363 0.76857,0.0786 -0.76857,-0.0786 z m 3.69624,-0.13483 c 0.56013,-1.61325 0.95497,1.64763 0,0 z m -352.39208,-0.34869 c -3.66113,-2.0656 4.70967,-0.47861 0,0 z m 1.62908,-1.60136 0.30143,0.26296 -0.30143,-0.26296 z m 351.7203,-0.0617 c -22.28643,1.59499 4.81984,-3.70289 0,0 z m 40.54068,-1.07283 c 3.28565,-13.03561 0.11397,5.95839 0,0 z m -399.24384,0.24813 c -1.0808,-2.81121 3.9222,1.10082 0,0 z m 311.2065,-1.04631 c 7.07595,-1.18122 0.45912,-2.6594 0,0 z m -308.72462,0.47902 c -0.87414,-2.70376 2.79276,1.67402 0,0 z m 2.34006,-0.6382 c 1.35676,-3.58546 1.7635,3.99626 0,0 z m -7.23291,0 c 3.32152,-1.82153 -1.59861,-2.18515 0,0 z m -6.18074,-0.65677 1.44894,-0.24375 -1.44894,0.24375 z m 345.38338,-0.38288 c -2.11183,-5.9257 5.01506,2.15648 0,0 z m 6.67785,-0.0961 c 7.61104,-6.4487 4.51739,3.57597 0,0 z m 11.43104,0.20691 0.76856,0.0786 -0.76856,-0.0786 z m -355.18421,-0.78637 c 0.80578,-2.28339 1.71772,1.70551 0,0 z m -1.70186,-0.62485 c 1.10047,-1.73507 1.46012,1.76988 0,0 z m 355.21079,0.13323 c -6.80533,-6.50329 11.33415,3.18082 0,0 z m -40.33248,-1.23235 0.30143,0.26297 -0.30143,-0.26297 z m 29.85539,-0.38205 c 0.48808,-9.05245 1.96045,3.71888 0,0 z m 18.61413,-0.56106 c -0.1408,-14.85019 19.198498,-9.56948 0,0 z m -12.54695,0.77277 c -0.40752,-4.01372 2.18808,1.04263 0,0 z m 17.86527,-0.007 c 1.02678,-1.67083 1.02675,1.67083 0,0 z m -27.54891,-0.29328 c -2.76233,-2.35629 2.92011,0.45571 0,0 z m 5.89661,-0.80268 c -0.82529,-2.86827 2.45752,1.25216 0,0 z m -19.97219,-1.10133 c -2.42197,-5.65728 13.7562,2.52971 0,0 z m 24.64879,-0.18436 c -10.90089,-2.84828 3.9388,-7.08919 0,0 z m -33.6453,-0.64324 c 2.24364,-10.76544 4.17824,3.82156 0,0 z m 37.50248,0.61392 c 1.7411,-3.02123 7.96415,3.50942 0,0 z m -19.00415,-1.18037 c 1.50806,-3.61801 0.92791,2.31563 0,0 z m 5.31832,0.18762 c 11.02125,-21.80143 -3.86832,-3.87985 -5.19948,-11.29204 10.77844,-21.82158 7.49132,6.24584 20.72538,-6.77327 -4.62971,6.05608 -11.2774,13.71937 -15.5259,18.06531 z m 1.05716,-0.9573 c 0.0354,-3.92727 -1.86387,2.0748 0,0 z m 4.18599,-6.98493 c -1.28234,-3.17913 -1.5728,2.73244 0,0 z m -1.62669,-0.32924 c -1.15749,-4.93254 -2.66689,3.96689 0,0 z m -8.08385,-0.66331 c -0.56011,-1.61323 -0.95498,1.64761 0,0 z m 1.20377,-6.10642 c -2.04966,-2.60995 -1.64228,3.37856 0,0 z m 7.73101,-2.59052 -0.83188,-0.24399 0.83188,0.24399 z m -352.71118,16.35538 c 0.95497,-1.64764 0.56013,1.61324 0,0 z m 334.84162,-0.42547 c -6.29761,-3.88007 2.77085,-0.62649 0,0 z m 5.13337,-0.17926 c 0.92635,-1.50453 2.22474,2.18944 0,0 z m -9.10438,-0.10438 c -0.9129,-2.84883 2.18917,1.17849 0,0 z m 32.96608,-0.43891 c -11.95597,-4.58111 21.826224,-15.92142 1.6386,-17.74023 18.92074,-14.75677 18.16576,0.74589 14.25174,8.04641 10.239997,0.0825 -14.79108,5.12831 -15.89034,9.69382 z m 5.0422,-7.3613 c -1.56683,-1.83295 -2.05397,1.89531 0,0 z m 2.55279,-0.42546 c -2.05397,-1.89532 -1.56684,1.83295 0,0 z m 8.33462,-9.57298 c 0.74421,-6.42054 -11.20999,2.16014 0,0 z m -0.0562,-4.07133 c -1.68326,-1.659 -0.16226,2.2328 0,0 z m -38.48649,20.47687 0.50527,-0.54522 -0.50527,0.54522 z m 1.27971,0.0813 c 3.69812,-5.15586 2.62551,1.62409 0,0 z m 43.93956,-0.23056 c -11.62094,-4.51304 5.352706,-3.77978 0,0 z m -34.58263,-0.4889 c 0.62644,-2.28306 1.38976,1.627 0,0 z m -14.67457,-0.15994 c -1.60207,-13.16406 -3.93423,-1.60595 0,0 z m 9.14352,-1.56703 c 1.54015,-2.50626 1.54015,2.50626 0,0 z m -359.27061,-0.15567 c -1.32104,-2.06187 1.65815,0.41976 0,0 z m 282.68676,-0.63609 2.54646,-0.83729 -2.54646,0.83729 z m -295.06056,-0.27195 c 1.10045,-1.73507 1.46011,1.76988 0,0 z m 358.0295,0 c 0.955,-1.64761 0.5601,1.61324 0,0 z m 25.97001,-0.93115 c -2.05743,-5.76947 5.85395,3.93612 0,0 z m -372.9374,0.0802 c 0.955,-1.64761 0.5601,1.61324 0,0 z m 316.84226,-0.6382 c 0.57912,-1.94744 0.11275,2.71483 0,0 z m -302.16369,0.23785 c 0.62643,-2.28308 1.38977,1.62698 0,0 z m 292.89505,-0.29177 c -1.6497,-4.67636 1.97639,1.14682 0,0 z m -20.52081,-0.8922 c -2.2671,-4.97819 8.18741,5.00503 0,0 z m -286.62735,-0.54299 c 0.95498,-1.64761 0.56011,1.61323 0,0 z m 308.5957,0.13483 0.76854,0.0786 -0.76854,-0.0786 z m 43.11749,-0.4376 c -2.65544,-5.98726 3.04123,2.83736 0,0 z m -343.84207,-0.1478 0.83188,0.24397 -0.83188,-0.24397 z m -23.11697,-0.684 c -1.95614,-1.25514 1.58625,-1.14692 0,0 z m 13.54399,-0.14182 c 2.05399,-1.89532 1.56682,1.83295 0,0 z m 10.99675,-0.057 c 3.96769,-1.24537 -1.21695,1.68914 0,0 z m -13.68041,-0.56797 c -1.01891,-3.2799 5.75581,3.62716 0,0 z m 296.46782,-0.0132 c -6.77036,-7.86215 6.94944,-13.74655 0,0 z m 2.65916,0.36132 c -1.66881,-3.12178 5.93783,1.48273 0,0 z m 30.89946,0.14924 c -15.83156,-1.56513 11.83106,-14.69158 2.47845,-1.0876 l -2.47845,1.0876 0,0 z m 77.09607,-0.97148 0.301452,0.26295 -0.301452,-0.26295 z m -100.65624,-0.17728 c 1.46011,-1.76988 1.10045,1.73507 0,0 z m -297.12071,-0.85096 c 0.36885,-1.93649 0.36887,1.93644 0,0 z m 306.69369,0.0251 c 0.57259,-3.02557 1.42088,2.32698 0,0 z m 40.31289,0.53253 c -3.43266,-4.66543 5.89543,1.63204 0,0 z m 45.20574,-0.13218 c 3.089059,-1.87949 3.089028,1.87949 0,0 z m -411.85093,-0.6382 c 1.37679,-2.43484 1.02602,2.41306 0,0 z m 321.01827,0.2058 1.00504,0.24664 -1.00504,-0.24664 z m -9.56874,-0.62098 c -0.64782,-2.19976 1.95413,2.16731 0,0 z m -313.4319,-0.41803 c -2.52355,-5.47742 3.09194,-0.73896 0,0 z m 347.46063,0.22013 c 0.77921,-2.26826 1.63265,1.71578 0,0 z m -324.63043,-0.68841 c 1.38976,-1.62701 0.62644,2.28307 0,0 z m 309.31366,-0.40036 c -10.3159,-3.00067 5.06553,-0.42 0,0 z m 77.11305,0.35554 c -1.33072,-2.00055 3.60039,1.24551 0,0 z m -82.6441,-0.78101 c 1.17839,-2.53833 1.84642,2.59357 0,0 z m 43.39751,-0.21273 c 3.0269,-5.51589 1.07229,4.83388 0,0 z m 46.48215,0.3191 c 2.818233,-2.34469 2.818233,2.34469 0,0 z m -93.28339,-0.70977 c -1.61315,-6.93189 3.13601,1.78043 0,0 z m -30.20807,-0.0348 c 1.02676,-1.67085 1.02679,1.67085 0,0 z m 54.03416,-0.19939 c 1.78469,-1.72065 1.29076,2.3438 0,0 z m 68.41958,-0.25787 c 0.20274,-5.42103 9.28382,1.58129 0,0 z M -501.9441,452.5734 c 1.02679,-1.67085 1.02676,1.67085 0,0 z m 342.07453,0 c 1.02678,-1.67083 1.02675,1.67083 0,0 z m 9.36025,-0.63819 c 4.02342,-3.17741 -0.82367,-2.97782 0,0 z m -36.69643,-0.0691 1.03807,0.0203 -1.03807,-0.0203 z m 43.56183,-0.0373 c -12.44785,-7.80695 -31.90744,-1.44893 -11.36702,-8.94607 -6.75073,-15.90026 21.68638,-7.37112 8.00927,-3.22412 8.80074,6.97754 8.4186,-13.47055 23.45812,1.06258 -1.31199,24.44232 -7.62759,-14.71494 -20.10037,11.10761 z m -1.33435,-2.65917 c -1.46011,-1.76988 -1.10046,1.73507 0,0 z m 1.94328,-2.65916 c -2.07412,-7.26754 -17.51836,1.59464 0,0 z m 3.80051,-1.5955 c -1.46011,-1.76988 -1.10046,1.73507 0,0 z m 13.56785,-0.24355 c 0.76407,-6.98264 -5.118,3.2895 0,0 z m -21.43896,-2.30925 c -0.95498,-1.64761 -0.56011,1.61323 0,0 z m -2.44643,-0.74431 c -2.67273,-2.87912 -5.1486,1.68688 0,0 z m 22.86879,-0.61718 c -1.74568,-1.77566 0.20081,2.8883 0,0 z m -10.20263,-1.41432 c -0.21122,-2.94858 -4.81981,3.70107 0,0 z m -12.77253,-0.9934 c 1.12003,-10.70613 -4.53658,3.5797 0,0 z m 19.57143,0.36549 c -0.95495,-1.64763 -0.56015,1.61323 0,0 z m -1.70186,-0.42547 c -0.56015,-1.61323 -0.95495,1.64763 0,0 z m -18.42986,-4.33443 -0.0786,0.76856 0.0786,-0.76856 z m 33.7802,16.77931 c 1.41345,-2.01213 0.62239,4.29152 0,0 z m 13.58133,0.71945 0.83187,0.24399 -0.83187,-0.24399 z m -414.12008,-0.25849 c -1.55196,-1.87542 1.9501,0.27352 0,0 z m 292.01139,-0.30434 c 0.1667,-2.88878 1.76201,1.52448 0,0 z m 64.95445,0.30434 c -0.74539,-2.62129 2.62129,0.74535 0,0 z m 6.09834,-0.14182 c 3.62316,-1.85572 3.62319,1.8557 0,0 z m -57.43789,-0.42547 c 1.02678,-1.67086 1.02678,1.67086 0,0 z m 34.25,0 c 0.95497,-1.64764 0.56013,1.61324 0,0 z m 63.40769,-0.12472 c -0.99705,-3.42496 1.59611,1.88626 0,0 z m -128.29123,-0.30075 c 1.10047,-1.73507 1.46012,1.76988 0,0 z m 13.21935,-0.74456 c 0.48849,-3.00833 0.63072,4.3904 0,0 z m 40.49572,0.88825 c -3.00627,-3.72859 3.71431,1.51867 0,0 z m -24.78339,-0.59426 0.83187,0.24398 -0.83187,-0.24398 z m 14.8913,-0.18762 c 1.73937,-2.27523 1.59129,2.26052 0,0 z m 12.97671,0.21273 c 0.95496,-1.64764 0.56014,1.61323 0,0 z m -30.84627,-0.82582 c 1.99372,-4.62448 3.03462,3.86053 0,0 z m 15.99026,0.45745 c -1.32101,-2.06185 1.65817,0.41979 0,0 z m -9.82101,-0.46892 c -11.45344,-5.12027 6.2441,-0.99009 0,0 z m 7.44566,0.004 c -2.9702,-1.79392 5.10406,1.08302 0,0 z m -16.16771,-0.61015 1.46939,-0.20479 -1.46939,0.20479 z m -297.90432,-1.32388 c -0.82184,-4.59733 2.88017,3.73546 0,0 z m 365.59402,0.66511 c -0.41096,-2.4112 2.51971,1.1359 0,0 z m -345.94435,-1.40228 c -2.52171,-2.41205 5.70163,2.28195 0,0 z m 272.04485,-0.0642 c -7.26319,-2.29819 3.88341,-0.95865 0,0 z m 55.13838,-0.26047 c 0.43751,-9.39046 4.45716,2.85046 0,0 z m -78.71118,-0.42547 c 1.46014,-1.76989 1.10043,1.73509 0,0 z m 26.99417,-0.46254 c 0.10977,-3.45575 2.30864,1.45077 0,0 z m 5.34123,-0.60112 c 3.06433,-2.83681 0.37565,2.52419 0,0 z m -304.68886,-1.02051 c -2.92974,-3.70156 3.68889,0.17105 0,0 z m 282.56464,-0.0432 c 1.02679,-1.67085 1.02676,1.67085 0,0 z m 67.2236,0 c 0.955,-1.64761 0.5601,1.61324 0,0 z m 48.57828,-0.2352 c 1.2672,-2.70262 1.42079,2.52291 0,0 z m -388.94444,-0.93482 c 1.69166,-1.42618 1.19196,2.54593 0,0 z m 261.65498,-0.46092 c 0.95838,-4.89558 0.36272,3.95052 0,0 z m 60.41615,0.86511 c -0.20496,-6.0315 3.05215,1.5024 0,0 z m 13.10966,0.0497 0.76855,0.0786 -0.76855,-0.0786 z m 15.82201,-0.98576 c 5.04011,-3.27497 0.30878,2.20979 0,0 z m 41.09273,0.0571 c -1.32099,-2.0619 1.65815,0.41983 0,0 z m -135.75887,-0.48257 c 1.02679,-1.67085 1.02676,1.67085 0,0 z m 23.40062,0 c 1.10045,-1.73507 1.46011,1.76988 0,0 z m 109.77018,0 c 2.64347,-1.94945 2.02014,1.88937 0,0 z m -98.9208,-0.42546 c 1.02676,-1.67085 1.02679,1.67085 0,0 z m 63.39441,-0.21274 c 1.0175,-2.35118 1.0175,2.35118 0,0 z m -358.66771,-0.85089 c 1.26114,-3.45381 1.26114,3.45381 0,0 z m 354.09841,-0.079 c 1.95437,-6.3852 5.28588,0.66982 0,0 z m -98.22439,-0.34657 c -1.4449,-2.25246 3.92046,1.82388 0,0 z m 81.37857,-0.0708 c -1.68587,-2.77617 1.64442,-0.83832 0,0 z m 9.77368,-0.35455 c 0.95464,-2.33885 0.40175,2.27819 0,0 z m -343.83527,-0.21274 c 0.5601,-1.61324 0.955,1.64761 0,0 z m 249.8814,0.13482 0.76855,0.0786 -0.76855,-0.0786 z m 82.40742,-0.13482 c 1.10041,-1.73507 1.46015,1.76987 0,0 z m 3.19099,0 c 1.02675,-1.67083 1.02678,1.67083 0,0 z m 72.01626,-0.89204 c -8.09216,-4.52616 8.065775,-1.44703 0,0 z m -412.31597,-2.07597 c -2.73061,-9.43067 4.59341,9.15532 0,0 z m 6.52176,2.11708 c 2.05399,-1.89532 1.56682,1.83295 0,0 z m 257.61892,-0.23248 c -2.8635,-2.47007 4.76161,2.18358 0,0 z m 144.15379,0.3673 0.76857,0.0786 -0.76857,-0.0786 z m -398.36898,-0.56029 c 1.46014,-1.76989 1.10043,1.73509 0,0 z m 318.03571,-0.85093 c 1.02675,-1.67083 1.02678,1.67083 0,0 z m -71.68968,-0.8488 c 2.98116,-1.60938 5.65582,1.7123 0,0 z m 101.61411,-1.05398 c 1.13234,-2.39183 1.34363,1.99949 0,0 z m 72.68002,-0.65002 c 0.368855,-1.93645 0.368855,1.93645 0,0 z m -42.8265,-0.43205 c -15.00947,-5.69399 -27.92218,-1.18509 -9.10571,-7.7678 -0.93946,-1.65862 26.90774,6.19259 9.10571,7.7678 z m -384.83385,-1.08219 c 2.68185,-3.11221 3.26445,2.07121 0,0 z m 355.46523,0.21926 1.44894,-0.24374 -1.44894,0.24374 z m 13.87269,-0.65507 0.30144,0.26298 -0.30144,-0.26298 z m 23.33757,0.071 1.17171,-0.69132 -1.17171,0.69132 z m 2.19038,-1.3474 0.30144,0.26298 -0.30144,-0.26298 z m 57.09475,-1.02821 c 0.324912,-3.4231 0.3249,3.42313 0,0 z m -21.38919,0.42547 c 1.002985,-3.04159 1.002985,3.04159 0,0 z m -432.27329,0 c 1.02677,-1.67087 1.02677,1.67087 0,0 z m 18.0823,-0.42547 c 0.56013,-1.61323 0.95494,1.64763 0,0 z m 263.38773,-0.24751 c -0.45517,-2.27226 2.51562,2.28487 0,0 z m 145.9104,0.24751 c 0.954982,-1.64761 0.560114,1.61323 0,0 z m 2.76553,0 c 1.026784,-1.67083 1.026746,1.67083 0,0 z m -178.27019,-0.61308 c 0.62644,-2.28307 1.38978,1.62697 0,0 z m -251.35564,-0.4747 c -4.1553,-4.53234 4.62871,1.83558 0,0 z m 361.12583,0.23685 c 1.02678,-1.67083 1.02675,1.67083 0,0 z m 63.26418,-0.69754 c -0.462021,-2.79918 2.428055,0.75824 0,0 z m -37.64918,-1.56204 c -1.8837,-6.21786 4.04672,1.9835 0,0 z m -25.50863,-0.30647 0.25553,-0.73663 -0.25553,0.73663 z m -361.32687,-0.41221 c 1.53876,-1.79325 1.53872,1.79326 0,0 z m 371.9559,-0.42546 c -9.09548,1.68782 -1.84862,-3.78812 0,0 z m -8.60807,-0.013 c 0.13545,-5.0688 3.41136,0.7778 0,0 z m -110.40839,-0.41246 c 1.53873,-1.79328 1.53873,1.79328 0,0 z m 99.77174,-0.18762 c 0.62644,-2.28307 1.38978,1.62697 0,0 z m 5.95653,0.22242 c -2.30466,-3.98054 2.23189,0.8001 0,0 z m -3.26191,-0.73137 c 2.1911,-2.24221 1.08341,1.7122 0,0 z m 4.96377,-0.18282 c 3.91611,-2.2059 1.39542,1.76231 0,0 z m -46.80124,-0.82247 c 1.02676,-1.67085 1.02679,1.67085 0,0 z m 90.87805,-0.359 c -0.0282,-2.27946 2.20617,0.5257 0,0 z m -405.46664,-0.98457 c -4.30812,-9.12673 3.41911,2.01064 0,0 z m 327.77803,0.29486 c 0.48065,-1.92581 3.23515,0.97959 0,0 z m -22.54969,-1.07863 c 1.02676,-1.67085 1.02679,1.67085 0,0 z m 28.71894,-0.42547 c 2.22533,-2.43719 4.64407,0.47462 0,0 z m 120.72687,-2.34006 c 0.49756,-2.70188 0.158773,3.46662 0,0 z m -194.11973,0.6382 c 1.53872,-1.79326 1.53876,1.79325 0,0 z m 109.77019,-0.45058 0.83187,0.24399 -0.83187,-0.24399 z m -105.16984,-1.11646 0.76856,0.0786 -0.76856,-0.0786 z m 188.3505,-0.26979 c -0.514123,-4.30216 1.842626,1.2627 0,0 z m -454.61234,-2.36574 c 0.27917,-2.88561 2.13819,1.66516 0,0 z m 11.70031,0.37338 c 1.46012,-1.76988 1.10047,1.73507 0,0 z m 275.06367,-0.24819 c 1.49185,-2.04633 1.28899,2.49761 0,0 z m 59.35062,0.24518 c 1.39083,-3.28553 2.7419,2.67235 0,0 z m -37.65186,-0.53595 c 7.56807,-5.11919 3.09328,2.46369 0,0 z m -7.3127,-0.17715 0.76856,0.0786 -0.76856,-0.0786 z m 14.3799,-0.31665 c 1.69867,-2.56266 1.47095,2.20065 0,0 z m -29.54397,-0.54424 c 4.66213,-2.53566 1.73473,1.70252 0,0 z m 3.3308,0.3006 c 1.56678,-1.83296 2.05404,1.89532 0,0 z m 2.75405,0.0186 1.44895,0.24376 -1.44895,-0.24376 z m 21.92297,-0.25644 c 1.38976,-1.62696 0.62643,2.28306 0,0 z m -296.33695,-1.03856 c 0.56011,-1.61325 0.95497,1.64763 0,0 z m 385.47205,-0.42547 c 0.56015,-1.61322 0.95493,1.64763 0,0 z m 1.48913,0 c 1.02679,-1.67085 1.02676,1.67085 0,0 z m 50.23853,-0.67365 0.30145,0.26298 -0.30145,-0.26298 z m -140.17337,-0.41003 c 0.77814,-2.68676 2.90218,1.16842 0,0 z m -296.17541,-0.19271 c 1.20814,-4.62533 6.87763,3.34559 0,0 z m 274.10636,0.14369 1.03808,0.0203 -1.03808,-0.0203 z m -36.0459,-0.55514 c 2.1933,-4.7971 13.3968,4.39098 0,0 z m -240.71982,-1.39678 c 1.93537,-2.64066 1.90764,2.26534 0,0 z m 3.72302,-1.17003 c 2.04915,-1.86167 2.04918,1.86167 0,0 z m 236.13354,-1.06367 c 3.82462,-2.97043 2.64145,2.11037 0,0 z m 8.2851,0.19415 1.44895,-0.24374 -1.44895,0.24374 z m -249.52423,-0.85746 0.83187,0.24399 -0.83187,-0.24399 z m 2.89849,0.15994 0.76856,0.0786 -0.76856,-0.0786 z m 1.78164,-0.56029 c -0.50964,-1.82887 3.06082,2.45772 0,0 z m 291.86956,-0.42547 c 1.02676,-1.67084 1.02676,1.67084 0,0 z m 78.71118,-1.48913 c 1.39461,-3.51759 1.61116,4.07073 0,0 z m -137.16721,-0.0348 c 1.32452,-4.25635 6.27609,2.34025 0,0 z m 5.03502,0.0483 c -1.97477,-2.97251 3.85045,2.88142 0,0 z m 56.71128,0.1464 0.71219,-0.17085 -0.71219,0.17085 z m 5.00632,-0.37266 c 0.95494,-1.64763 0.56013,1.61323 0,0 z m -59.50112,-1.05004 c 0.38177,-3.28468 1.85598,2.24751 0,0 z m 3.97782,0.19911 c 1.02676,-1.67085 1.0268,1.67084 0,0 z m 12.65761,-0.70725 1.03808,0.0203 -1.03808,-0.0203 z m 104.77097,-0.14369 c 1.02679,-1.67085 1.02676,1.67085 0,0 z m -112.59602,-0.57421 c 1.8977,-2.09863 6.00293,2.40048 0,0 z m 42.68389,-0.0208 c 3.17764,-7.06043 17.5717,-4.26619 0,0 z m 92.24908,-0.25591 c 1.53876,-1.79325 1.53872,1.79326 0,0 z m -16.46021,-0.29064 0.76856,0.0786 -0.76856,-0.0786 z m -112.82206,-0.43003 c -0.75831,-2.42809 2.79922,0.46195 0,0 z m 95.98957,-0.32396 c -2.07709,-4.95087 9.75088,3.08475 0,0 z m 79.94929,-0.0899 c -2.717427,-3.36557 4.854766,-6.06847 0,0 z m -69.84448,-1.81858 c 0.62645,-2.28308 1.38977,1.627 0,0 z m 67.64907,-1.2764 c 0.626439,-2.28307 1.389753,1.627 0,0 z m -142.8172,-1.2064 c -3.27764,-5.69897 6.32835,1.56384 0,0 z m -13.70642,-0.90748 c 1.19088,-4.39291 -3.04526,-0.73721 0,0 z m -22.81023,-0.46402 c 0.5601,-1.61324 0.955,1.64761 0,0 z m 24.26973,0.0294 c 0.57654,-2.64271 4.26268,2.80907 0,0 z m -41.5011,-0.71969 1.38152,0.49082 -1.38152,-0.49082 z m 26.73823,0.40475 c -4.96863,-4.60419 3.92868,-3.32317 0,0 z m 10.49004,-0.13993 c 0.56013,-1.61323 0.95494,1.64763 0,0 z m 8.2168,-0.29064 0.76855,0.0786 -0.76855,-0.0786 z m 14.97108,-0.32244 c 0.57256,-3.02558 1.42094,2.32696 0,0 z m 135.97153,-0.24977 c -3.477479,-5.00705 3.622024,-1.53663 0,0 z m -183.83643,-1.68994 3.58205,-0.3545 -3.58205,0.3545 z m 29.14441,0.42546 c 1.02679,-1.67085 1.02676,1.67085 0,0 z m -260.02379,-1.92781 c -4.18412,-23.06389 21.51089,-55.12399 39.68402,-47.29077 7.43143,-10.23267 40.58001,-45.20763 42.36558,-23.82002 -24.75384,13.29993 -47.861,32.95877 -61.34062,58.15532 22.93446,-9.85397 -8.6985,22.78021 -20.70898,12.95547 z m 7.08952,-7.35637 -0.71768,0.85887 0.71768,-0.85887 z m 0.63302,-1.96557 -1.0238,-0.17029 1.0238,0.17029 z m 12.12578,-3.21611 c -0.56014,-1.61323 -0.95496,1.64764 0,0 z m 37.20719,-51.98223 c 2.88183,-3.63988 -5.24941,3.18189 0,0 z m 182.97138,65.59714 c 1.53876,-1.79325 1.53872,1.79326 0,0 z m -14.12014,-0.29064 0.76854,0.0786 -0.76854,-0.0786 z m 145.64099,-0.71049 c -0.92644,-3.08742 2.63947,1.38001 0,0 z m -151.15114,-0.55893 c 4.02309,-3.10093 7.6682,1.96494 0,0 z m 27.17829,0.45692 c -6.97633,-4.33881 11.03243,-3.07312 0,0 z m 165.82933,-0.59872 c 0.560114,-1.61323 0.954982,1.64761 0,0 z m -135.9228,-0.3191 c 3.12295,-5.04877 7.42881,0.9479 0,0 z m -43.79824,-0.55174 c -23.20378,-3.76061 26.71757,-0.63989 0,0 z m 179.08284,-0.35594 c -8.093388,-2.38432 3.470154,-2.16704 0,0 z m -192.52329,-0.90055 c 0.65474,-1.75701 1.34299,1.85367 0,0 z m 34.74981,-0.71001 c 2.21503,-3.08604 2.23291,2.70977 0,0 z m 8.08628,-0.24729 c 3.00077,-6.06719 3.52522,4.34887 0,0 z m 4.17789,0.10637 c 1.00298,-3.0416 1.00298,3.0416 0,0 z m 142.76153,-0.33683 c 0.416806,-2.91064 3.808981,2.12956 0,0 z m -131.82653,-0.35758 c -0.93884,-3.03951 4.81421,1.39214 0,0 z M -247.941,385.3498 c 1.53873,-1.79328 1.53873,1.79328 0,0 z m 32.369,-0.24819 0.30143,0.26298 -0.30143,-0.26298 z m 106.25309,-0.0425 0.76857,0.0786 -0.76857,-0.0786 z m -140.53668,-0.56028 -2.90431,-0.75227 2.90431,0.75227 z m 26.80434,-0.42547 c 1.46016,-1.76987 1.10042,1.73508 0,0 z m -32.9736,-0.45057 0.83188,0.24397 -0.83188,-0.24397 z m 45.09938,-0.40036 0.97222,-0.11317 -0.97222,0.11317 z m 2.79377,-2.5093 c -1.35886,-2.23145 2.92961,1.77319 0,0 z m 7.84288,-0.46896 c 1.10043,-1.73509 1.46014,1.76989 0,0 z m 77.9835,-2.12733 c -8.63723,-3.34621 4.46408,-1.33153 0,0 z m -123.61322,-1.48523 c 3.4264,-3.8014 6.63116,4.0661 0,0 z m 165.18562,-1.5181 0.831876,0.24399 -0.831876,-0.24399 z m -44.30274,-1.11822 c 0.17256,-2.21385 3.5535,3.08123 0,0 z m -149.28123,-0.77487 c -1.23948,-11.00882 4.75427,3.60991 0,0 z m 2.5498,0.21634 c 1.02676,-1.67085 1.0268,1.67084 0,0 z m -3.48749,-5.34415 c 0.0689,-6.10162 1.03655,5.13672 0,0 z m 159.31389,-5.30593 c -31.68131,-6.01207 -9.04011,-25.22959 9.55119,-10.20059 4.41294,4.27899 -6.79721,9.72801 -9.55119,10.20059 z m 9.67982,-3.3903 c 0.95497,-1.6476 0.56011,1.61323 0,0 z m -29.09549,-4.45242 c -3.11546,-7.2896 3.99941,3.5175 0,0 z m 22.28803,-10.88946 0.83187,0.24399 -0.83187,-0.24399 z m -55.07027,-16.52348 c 1.28572,-2.62679 4.70809,2.98001 0,0 z m -49.24863,-8.84453 0.76854,0.0786 -0.76854,-0.0786 z m -178.42146,-1.61345 c -3.27002,-7.21136 7.81318,5.58302 0,0 z m 2.8456,-2.40332 c -13.88815,-14.02174 19.49978,-20.61744 0,0 z m 183.95381,0.0553 c 3.04119,-3.88432 5.83283,2.67756 0,0 z m -138.27799,-6.86458 c -15.90791,0.9042 -45.85406,-5.09527 -13.85495,-1.30853 -0.18817,0.69306 17.3148,-0.28862 13.85495,1.30853 z m 5.81096,-61.21253 c 0.36887,-1.93644 0.36885,1.93649 0,0 z m -34.10444,-47.22671 c 0.955,-1.64761 0.5601,1.61324 0,0 z m 93.07065,-24.12635 1.9031,0.004 -1.9031,-0.004 z m -61.16071,-9.05998 c 1.02676,-1.67085 1.02679,1.67085 0,0 z m 22.97515,-5.87932 1.09008,-0.76267 -1.09008,0.76267 z m 0.24146,-7.37235 c -0.88386,-18.59542 -18.8708,-65.772963 -7.54853,-65.691397 0.79414,17.928427 20.39172,54.785217 7.54853,65.691397 z"
       id="path4147"
       inkscape:connector-curvature="0" />
  </g>
</svg>
