<?xml version="1.0" encoding="UTF-8" standalone="no"?>
<!-- Created with Inkscape (http://www.inkscape.org/) -->

<svg
   xmlns:dc="http://purl.org/dc/elements/1.1/"
   xmlns:cc="http://creativecommons.org/ns#"
   xmlns:rdf="http://www.w3.org/1999/02/22-rdf-syntax-ns#"
   xmlns:svg="http://www.w3.org/2000/svg"
   xmlns="http://www.w3.org/2000/svg"
   xmlns:sodipodi="http://sodipodi.sourceforge.net/DTD/sodipodi-0.dtd"
   xmlns:inkscape="http://www.inkscape.org/namespaces/inkscape"
   width="210mm"
   height="297mm"
   viewBox="0 0 744.09448819 1052.3622047"
   id="svg2"
   version="1.1"
   inkscape:version="0.91 r13725"
   sodipodi:docname="bouncing-betty.svg">
  <defs
     id="defs4" />
  <sodipodi:namedview
     id="base"
     pagecolor="#ffffff"
     bordercolor="#666666"
     borderopacity="1.0"
     inkscape:pageopacity="0.0"
     inkscape:pageshadow="2"
     inkscape:zoom="0.35"
     inkscape:cx="-52.142857"
     inkscape:cy="520"
     inkscape:document-units="px"
     inkscape:current-layer="layer1"
     showgrid="false"
     inkscape:window-width="1366"
     inkscape:window-height="705"
     inkscape:window-x="-8"
     inkscape:window-y="-8"
     inkscape:window-maximized="1" />
  <metadata
     id="metadata7">
    <rdf:RDF>
      <cc:Work
         rdf:about="">
        <dc:format>image/svg+xml</dc:format>
        <dc:type
           rdf:resource="http://purl.org/dc/dcmitype/StillImage" />
        <dc:title></dc:title>
      </cc:Work>
    </rdf:RDF>
  </metadata>
  <g
     inkscape:label="Layer 1"
     inkscape:groupmode="layer"
     id="layer1">
    <path
       style="fill:#ff5555"
       d="m 353.41468,1051.9471 c -84.37044,-0.8798 -178.10616,-31.9601 -223.18844,-107.98599 4.51722,-34.50431 5.97671,-75.50566 2.00897,-114.15592 8.04854,-40.52879 -13.89576,-80.55229 -5.98485,-122.08972 -0.0713,-35.88148 9.468,-67.11183 -0.91674,-102.20778 3.12484,-28.90271 -1.02022,-53.31346 0.8186,-82.45833 -1.11088,-26.10955 -26.203902,-73.30573 -21.30431,-83.14211 14.12736,29.30876 47.13817,50.29462 78.35468,66.62173 12.62504,14.53011 59.6411,11.34681 16.01108,3.1791 -12.29748,-7.33866 -30.27813,-13.78315 -19.54192,-12.97948 -9.21004,-7.67852 -26.49078,-4.52196 -11.90131,-12.8218 -12.7668,-5.59849 -24.58914,-16.81333 -24.39295,-22.87576 -31.70752,-20.2667 -18.28759,-46.33627 -22.12716,-82.80825 39.91887,9.03653 80.13879,-29.63423 106.15132,-58.81909 17.8856,-26.23933 39.25342,-51.0628 73.31707,-38.35607 22.94593,-37.04358 -8.01748,-93.4018 15.86332,-126.19571 -15.07825,-4.02349 -14.91074,-22.08631 -21.00541,-17.29361 -24.83691,12.94783 -73.56713,-14.80599 -24.83832,-21.90092 20.19394,0.67069 35.22499,-9.80035 5.31056,-7.28327 -20.20298,5.04932 -8.82664,-3.84573 -30.91714,9.63163 7.17844,-43.912029 81.06197,13.56601 69.26214,-35.833877 -7.50829,-12.80501 -16.89215,-86.314292 -1.28585,-39.970982 6.49823,33.783549 10.22214,73.696429 53.29447,54.488442 21.05255,43.936607 65.86494,-6.468149 90.14386,-26.57598 23.82304,-2.949109 -28.25341,29.798143 -36.18764,39.662087 -22.70781,15.27254 44.05864,12.44774 5.10433,25.26974 -58.75955,-17.99528 -27.8904,56.59215 -34.86868,88.54434 -4.21093,34.04617 6.03017,71.7308 49.03774,60.42416 45.70801,4.31143 -83.44663,-4.37596 -21.55173,6.66326 -28.50007,1.7989 81.92344,10.59668 22.17825,7.9576 -28.74838,-11.463 -54.66088,3.85408 -49.35185,33.37129 -13.9163,21.36062 15.73426,18.94704 5.32284,48.56625 7.64781,25.27071 -9.57018,56.64781 30.53054,62.95264 22.32857,6.7652 44.56159,-0.76322 24.26616,17.27732 17.17327,5.65999 34.28134,-10.60494 40.84934,-2.57091 15.51685,11.34484 -0.41509,-18.3275 20.97927,0.46643 8.88723,-9.52118 23.47887,1.7316 8.66748,-11.91804 32.1052,-1.90319 4.70353,14.85848 -3.09067,13.63449 14.53321,13.8671 -24.22345,13.41814 -9.90201,18.20709 -17.49781,-3.17008 2.19523,-20.68496 -15.50861,-6.12528 -6.73795,-5.75804 7.70456,9.37388 -2.71629,13.9452 3.4789,20.23357 29.63048,-3.22424 18.94563,-5.05933 14.8005,-8.69773 7.47467,18.44465 15.64726,19.10885 -24.02392,-7.65133 11.13914,14.55145 -16.21452,13.3959 -5.70955,-16.37119 -38.13609,7.53861 -17.28719,-17.70734 -2.17068,-11.55319 -11.5031,20.50995 -18.66466,12.79478 -12.92512,2.65628 3.00166,12.26492 -10.35439,16.99423 -3.94914,8.47155 -20.32286,6.53086 -22.56041,3.94682 -10.20918,8.39824 -10.56674,5.78484 -29.40904,11.40309 43.74416,1.01224 84.66182,-17.41375 126.50147,-27.31566 32.14296,-11.79682 53.24581,-27.58924 77.39198,-51.22056 21.19684,-15.49366 26.26682,-69.09651 25.90939,-71.25198 14.40261,42.52328 -25.71063,77.11951 -18.76391,120.57796 -0.75841,42.57887 -0.30593,89.18578 -5.51719,128.34642 16.3819,57.51096 14.32848,118.92829 6.21535,177.87961 -0.73244,-42.97905 -23.26339,0.9846 -2.33603,21.55058 -0.0585,22.73915 -13.99385,45.53255 -1.02642,68.8683 -17.33921,70.83358 -86.70898,116.92711 -154.42422,133.04551 -36.19836,8.975 -73.74936,11.6234 -110.94324,10.1489 z m -225.7504,-119.38961 -0.0245,1.25111 0.0245,-1.25111 z m 8.3776,-67.04565 c -1.80061,-3.84914 -0.6133,3.71646 0,0 z m 0.43154,-4.04175 c -3.21134,-4.24074 1.2725,5.41298 0,0 z m -0.43154,-32.10905 c -4.95086,-3.40996 -4.95086,3.40996 0,0 z m 471.86071,-26.90686 c -3.01649,-0.98516 3.30776,5.71585 0,0 z M 130.54992,656.29868 c -1.15449,-3.71391 -1.63019,3.75321 0,0 z m -1.60728,-38.75947 c -1.7859,-10.17512 -2.46964,6.18629 0,0 z m 0.94591,-2.7755 c -1.23749,-2.01372 -1.23745,2.0137 0,0 z m 0.19491,-7.72971 c -1.91976,1.41841 2.26452,4.06488 0,0 z m -3.78435,-0.50498 c -1.51433,-2.18165 -1.55086,3.38483 0,0 z m 7.02799,-3.68738 -0.004,2.29364 0.004,-2.29364 z m -3.18216,1.15374 c -2.78482,-3.80583 -2.78482,3.80583 0,0 z m 0.76917,-2.79002 c -1.46739,-13.37262 -5.32534,-4.56177 0,0 z m 2.05112,-3.84584 c -0.75504,-2.75156 -1.67496,1.96089 0,0 z m 2.90484,-7.92225 c -6.73709,-6.67849 -7.79007,2.3268 0,0 z m -1.36653,-4.14089 c 2.53928,-10.83303 -7.94703,-12.13188 0,0 z m -3.91677,-11.29848 c -1.68337,-2.97023 -1.68337,2.97024 0,0 z m 2.05111,-8.20444 c -0.49997,-2.7368 -1.14053,2.80506 0,0 z m -1.60323,-2.93174 c -2.18347,-2.40049 1.51858,6.02879 0,0 z m -0.83629,-5.90299 c -2.43806,0.92734 1.59022,1.58845 0,0 z m 197.36587,-2.70277 c -2.17098,-2.5625 -6.58035,3.17498 0,0 z m -195.62458,-3.33305 c -0.55073,-2.74652 -2.24703,2.8401 0,0 z m -1.63086,-7.55822 c -2.34678,-5.44307 -1.30215,3.65709 0,0 z m 272.08503,-0.33172 c -0.6983,-5.3068 -3.11793,2.48748 0,0 z m -3.29714,-1.08366 c -1.15096,-1.98571 -0.67505,1.94428 0,0 z m -124.60491,-2.02085 c -1.82008,-4.09769 -1.59846,1.97594 0,0 z m -4.61499,-2.02157 c -2.97378,-2.84025 -3.20675,2.22865 0,0 z m -50.25219,-2.62368 c -0.67503,-1.9443 -1.15097,1.98573 0,0 z m 52.81606,-2.05111 c -1.32626,-2.09113 -1.75973,2.13307 0,0 z m 346.47502,-0.60893 -0.0947,0.9263 0.0947,-0.9263 z M 262.85876,532.052 c -21.21325,-6.50321 -21.66553,0.60116 0,0 z m 186.23372,0.15454 c -2.05011,-1.97782 -1.1195,2.64034 0,0 z m -18.48605,-0.6867 c 0.5668,-4.01555 -5.86917,3.08475 0,0 z m 5.50458,-0.57078 -1.83479,-0.9783 1.83479,0.9783 z M 132.1251,529.38627 c -1.15055,-2.81883 -0.48422,2.74571 0,0 z m 104.75588,-1.28195 c -13.41219,-18.25328 -17.88749,-6.64001 0,0 z m 220.67231,0.73891 c -1.67494,-1.96087 -0.75501,2.75157 0,0 z m -328.19568,-0.098 c -0.0157,-6.53894 -4.12991,0.28315 0,0 z m 117.0801,-0.58929 c -6.44253,-4.75462 -8.54048,3.52646 0,0 z m 4.97907,0.2047 c -1.15054,-2.81881 -0.48419,2.7457 0,0 z m 187.02488,-0.0534 -0.94111,0.0292 0.94111,-0.0292 z m -3.58944,-1.53833 -0.94111,0.0292 0.94111,-0.0292 z m 2.05142,-0.55643 c -2.97797,-4.9251 -1.88958,2.77598 0,0 z m 21.16244,-0.15931 c -1.86718,-3.93947 -1.7702,3.62447 0,0 z m -2.56389,-0.43048 c -4.54706,-3.3144 -6.00028,2.9965 0,0 z m -247.57013,-1.46132 c 3.3509,-9.85042 -6.94901,4.85026 0,0 z m 240.90402,0.86624 c -1.75974,-2.13308 -1.32628,2.09114 0,0 z m -222.0326,-1.02555 c -1.89868,-3.97404 -0.40422,3.41689 0,0 z m -13.29028,0 c -0.82346,-3.04095 -4.42093,2.52103 0,0 z m 10.46999,0 c -3.27318,-2.51315 -1.88052,2.32018 0,0 z m 18.20361,0 c -1.66907,-2.87095 -3.08365,3.18349 0,0 z m 39.315,-0.85255 c -2.72639,-0.41595 0.8389,2.56659 0,0 z m 155.09901,0.35684 c 2.07522,-5.31947 -9.32258,4.93212 0,0 z m 15.70732,0.0788 -1.36608,0.38491 1.36608,-0.38491 z m -232.17076,-0.0958 c 7.79605,-3.04407 -9.6447,-3.02488 0,0 z m 235.10843,-1.53834 4.03469,-0.54672 -4.03469,0.54672 z m -221.44038,-0.27848 c -1.0669,-4.85014 -5.57411,2.55168 0,0 z m 159.6507,-0.23429 c -1.85448,-2.16127 -1.85454,2.16125 0,0 z m 43.85839,-0.48704 c -2.48869,-1.38738 0.70537,2.56097 0,0 z m 104.42828,-0.13686 c -2.08682,-0.58243 2.07662,2.28616 0,0 z M 203.7285,520.61421 c 10.13121,-1.99429 -12.74883,-2.36555 0,0 z m 37.42489,0.43946 c -3.28456,-6.17426 -4.61686,2.91233 0,0 z m 4.62285,0.19095 c -1.39386,-2.9031 -2.33415,1.25514 0,0 z m 187.93291,-0.31916 -1.73617,-0.1977 1.73617,0.1977 z m -235.62121,-0.7994 c -1.61786,-1.88251 -0.18084,2.61901 0,0 z m 250.2703,-0.82636 c -5.19157,-2.24026 1.55703,2.57677 0,0 z m -229.7592,-0.42533 c -1.85448,-2.16127 -1.85453,2.16124 0,0 z m 245.62036,0 c -0.82843,-1.91509 -3.091,2.07161 0,0 z m 4.10222,-0.51279 c -1.14438,-3.58425 -1.38973,3.7293 0,0 z M 234.82479,518.1052 c -3.25091,-3.39477 0.92915,2.78283 0,0 z m 179.02119,0.3091 c 9.21772,-2.82224 -5.83454,-0.37666 0,0 z m 38.06677,0 c -3.59238,-2.91731 -5.64543,0.71978 0,0 z m -246.89607,-1.50151 -0.86496,1.03515 0.86496,-1.03515 z m 254.07495,0.42324 c -3.67064,-2.61945 -2.50602,1.95734 0,0 z M 226.80348,516.2802 c -1.67493,-1.96093 -0.75505,2.75158 0,0 z m 217.23649,-0.545 c -8.41159,-4.99374 -3.05879,4.4219 0,0 z m -221.33871,0.57524 c -1.15095,-1.98577 -0.67506,1.94431 0,0 z m 6.15333,-0.51277 c -3.60967,-2.84365 0.51394,2.0893 0,0 z m 31.08036,-0.64097 c -8.21549,-6.29751 -2.09182,3.91049 0,0 z m -133.12306,0.12819 c -1.23746,-2.01374 -1.23751,2.01371 0,0 z m 72.67551,0.20296 -0.94111,0.0292 0.94111,-0.0292 z m 93.97714,-0.20296 c -0.67504,-1.9443 -1.15098,1.98573 0,0 z m 141.39835,-0.12819 c -2.77892,-2.77263 -2.77892,2.77261 0,0 z m 1.92293,0.12819 c -1.32624,-2.09115 -1.7598,2.13307 0,0 z m 15.12693,0 c -2.43467,-2.27711 -3.18599,2.34952 0,0 z m 11.79388,0 c -3.09124,-2.27256 -3.09127,2.27254 0,0 z m -41.69747,-2.14725 -0.0947,0.9263 0.0947,-0.9263 z m -193.86845,-0.69031 c -0.89942,-1.82075 -1.17358,2.8916 0,0 z m -9.02888,0.27367 c -1.15094,-1.98575 -0.6751,1.94429 0,0 z m 17.9472,-1.05581 c -1.85731,-3.66283 -0.68157,4.50306 0,0 z m 224.45761,1.25877 -0.94111,0.0292 0.94111,-0.0292 z m -230.39417,-1.29262 c -2.37483,-1.97796 -2.37479,1.97798 0,0 z m 48.1125,-0.13692 c 3.836,-5.99158 -11.32043,4.92825 0,0 z m -64.94112,-1.19844 c -2.43806,0.92735 1.59027,1.58842 0,0 z m 6.77258,0.23982 c -3.03267,-5.7601 -3.4371,6.36791 0,0 z m 233.39991,0.37808 c 4.69556,-5.53089 -6.52133,1.3536 0,0 z m -208.5619,-0.26004 c -4.44663,-2.28467 -1.52597,1.90358 0,0 z m -36.79179,-1.52233 c -3.00652,-0.84911 0.56654,3.33614 0,0 z m 19.60307,1.22852 -0.94113,0.0292 0.94113,-0.0292 z m 10.9072,-0.20296 c -1.23748,-2.01372 -1.23748,2.01372 0,0 z m 204.43566,-0.60892 -0.0947,0.9263 0.0947,-0.9263 z m -115.21241,0.0961 c -1.75979,-2.13307 -1.32623,2.09115 0,0 z m 112.81103,-0.51277 c -1.23746,-2.01372 -1.23751,2.01374 0,0 z m 21.28025,-0.51279 c 0.96304,-3.72311 -4.73159,4.11731 0,0 z M 126.29911,508.0757 c -1.67494,-1.96087 -0.75502,2.75156 0,0 z m 101.52993,0.57488 c -2.50599,-1.85881 -2.43674,2.05087 0,0 z m 261.52569,-0.81213 c 11.84404,-14.78921 -13.6807,5.46887 0,0 z m 18.07592,0.95673 -1.51271,-0.001 1.51271,0.001 z m -338.38388,-1.82687 c -2.62559,-0.72 0.63837,3.00088 0,0 z m 282.86598,0.31361 c 13.87261,-2.97616 -8.07146,1.05505 0,0 z m -15.19125,-5.17951 c -10.21895,-24.01151 43.21086,-8.36033 9.91632,-29.30626 -12.27411,-23.02958 -42.13857,-9.12247 -34.20899,8.18267 -23.46805,0.48774 48.38718,14.06193 8.60476,11.2179 -19.87983,-2.97025 -17.59492,12.67008 2.65406,4.50283 -0.0744,2.71366 18.51064,12.80922 13.03385,5.40286 z m -24.54899,-5.27755 c 2.47552,-2.28428 1.88834,2.20911 0,0 z m 11.02471,-2.5639 c 1.15092,-1.98574 0.67509,1.94429 0,0 z m 25.38248,-8.20443 c 0.67509,-1.94429 1.15092,1.98575 0,0 z m 2.62596,0.10044 c -0.16682,-3.9813 3.39018,0.29658 0,0 z m -26.47011,-2.40793 c -10.25068,-9.44954 24.42134,-7.65081 0,0 z m 26.89972,-1.31606 c -0.681,-2.61235 1.69109,1.97128 0,0 z m -35.80945,-1.75229 c -2.74896,-5.70914 5.27674,2.61917 0,0 z m -2.37139,-0.77748 c 1.23751,-2.01371 1.23747,2.01371 0,0 z m 23.81668,-0.69607 c -1.46096,-9.27927 6.93552,3.65837 0,0 z m -9.97168,0.1833 c 1.32623,-2.09114 1.7598,2.13307 0,0 z m 17.17803,-1.02556 c 1.75977,-2.13309 1.32631,2.09113 0,0 z m 2.92284,-1.12812 c -2.67809,-7.04635 8.42248,1.81974 0,0 z m -29.67243,-3.17247 3.57375,-1.86313 -3.57375,1.86313 z m 6.36671,0.86204 c 1.7317,-5.8349 3.85332,2.07509 0,0 z m 20.38288,-0.15089 c 1.32625,-2.09115 1.75981,2.13307 0,0 z m -3.33304,-0.79944 c 1.67496,-1.96088 0.75501,2.7516 0,0 z m -26.35484,-0.52877 c -0.0235,-5.05142 3.07395,4.13181 0,0 z m 13.27903,-0.21013 c 1.8883,-2.20912 2.47557,2.28428 0,0 z m 9.60045,-0.28546 c -6.23359,-10.37409 4.93211,1.26283 0,0 z m -13.15932,-1.2034 c -0.56812,-3.30137 2.69342,-0.45055 0,0 z m 16.97526,-0.27138 c -0.77076,-8.8921 3.67214,2.30945 0,0 z m -10.98071,-1.44295 c -20.28312,-9.74003 7.09634,-3.3763 0,0 z m 8.31231,-0.45027 c 0.77249,-5.71632 3.19475,3.23714 0,0 z m -5.62024,-2.49986 c -2.23773,-1.97997 4.28925,1.84361 0,0 z m -15.25511,-0.38838 c -5.30935,-5.16109 4.01087,-0.12227 0,0 z m 12.69124,-0.12441 c 1.15097,-1.98571 0.67502,1.9443 0,0 z m -10.64013,-0.55385 c -3.11637,-5.17437 5.7171,1.51166 0,0 z m 16.39779,-0.26911 c 0.36403,-3.83026 4.57811,2.08329 0,0 z m -10.21242,-3.62954 0.92626,0.0947 -0.92626,-0.0947 z m 22.53016,44.7609 c -2.72298,-4.72155 -1.98194,3.50733 0,0 z m 28.84373,0.48766 -1.00259,-0.29404 1.00259,0.29404 z m -12.55079,-1.35086 c -0.15733,-5.1232 -1.99684,4.16989 0,0 z m -288.58425,-0.48001 c -1.88688,-5.25565 -5.99966,4.6065 0,0 z m 21.15858,0.51867 c -0.67508,-1.9443 -1.15093,1.98575 0,0 z m 26.44255,-0.90556 c -4.0574,-0.0926 -0.0618,2.23928 0,0 z m 294.59804,0.90556 c -0.11245,-4.00346 -3.62351,2.91929 0,0 z m -244.12398,-1.02553 c -5.77576,-6.69348 -9.88043,3.26125 0,0 z m 147.29531,-0.33961 -1.2511,0.0245 1.2511,-0.0245 z m 34.74066,-0.42955 c -2.62998,-4.07875 -1.1845,2.66236 0,0 z m 6.15333,0.2564 c -1.23746,-2.01372 -1.23749,2.01371 0,0 z m -338.64412,-1.92031 -0.19672,1.80978 0.19672,-1.80978 z m 86.23865,0.89474 c -2.98573,-4.10491 0.97981,3.59881 0,0 z m 11.20136,-0.27238 c -0.29092,-5.36675 -6.72352,5.56755 0,0 z m 22.50562,0.97018 c 0.48987,-3.43815 -3.62904,2.03203 0,0 z m 134.09966,-1.00793 c 9.04653,-8.53517 -14.68965,5.21111 0,0 z m 6.40029,0.82292 c -0.81322,-2.08082 -2.3214,1.92887 0,0 z m 67.6866,0 c -1.23747,-2.01373 -1.23747,2.01371 0,0 z m 53.34521,-0.53924 c -5.45268,-7.52461 -8.1231,2.03173 0,0 z m -155.13152,0.0265 c -1.88835,-2.2091 -2.47549,2.28426 0,0 z m 110.75992,-1.00103 c 3.80156,-5.75058 -5.17844,1.61052 0,0 z m 3.07666,1.3122 -1.22471,-0.34397 1.22471,0.34397 z m 8.06556,-0.10835 -0.94111,0.0292 0.94111,-0.0292 z m 89.87492,-0.20296 c 0.61419,-2.20419 -3.68893,2.96216 0,0 z m -348.31471,-0.30981 -0.94112,0.0292 0.94112,-0.0292 z m 158.07431,-0.20296 c -1.32625,-2.09114 -1.75981,2.13308 0,0 z m 50.44909,-0.38457 c 1.96923,-6.18874 -4.74463,1.5846 0,0 z m 87.32644,0.32811 c 0.78326,-4.94127 -10.22142,-3.00082 0,0 z m -63.42282,-1.20086 c -1.65726,-3.68403 -2.13815,3.6233 0,0 z m 118.31273,0.9475 -0.94114,0.0292 0.94114,-0.0292 z m -174.09608,-1.74124 c -1.06036,-5.44186 -0.33893,5.38223 0,0 z m -143.42442,-0.42109 -0.86495,1.03515 0.86495,-1.03515 z m 22.55597,0.93386 c -1.32626,-2.09115 -1.75979,2.1331 0,0 z m 160.14037,-0.1025 c 2.34967,-5.64938 -5.37388,2.91049 0,0 z m 66.40297,-0.65051 c -4.40085,-5.30099 0.39004,4.45074 0,0 z m -47.32765,0.24029 c -1.2375,-2.01375 -1.23747,2.01372 0,0 z m 20.73429,0.0538 c -0.89311,-2.68607 -2.09636,1.96508 0,0 z m -280.19964,-0.56652 c -1.85449,-2.16125 -1.85453,2.16125 0,0 z m 8.20443,-0.25638 c -0.49991,-2.73683 -1.14058,2.80502 0,0 z m 213.3154,0.31125 c -4.00357,-4.36376 -1.82465,2.01799 0,0 z m -219.7251,-0.56764 c -1.2375,-2.01371 -1.23745,2.0137 0,0 z m 186.13818,0 c -0.67509,-1.94429 -1.15093,1.98575 0,0 z m 10.25555,-0.25639 c -5.68049,-4.79072 -2.6042,2.90514 0,0 z m 15.76791,0.38658 c -0.003,-13.02322 -11.75683,0.65028 0,0 z m 55.25174,-0.13019 c -1.23749,-2.01375 -1.23746,2.01373 0,0 z m 8.3529,-1.02607 c -2.48717,-3.82531 0.0505,4.27086 0,0 z m 59.33372,1.02171 -4.55929,0.32834 4.55929,-0.32834 z m -272.42365,-0.30546 -0.94112,0.0292 0.94112,-0.0292 z m 7.17889,0 -0.94113,0.0292 0.94113,-0.0292 z m -30.44122,-0.96921 c -1.9768,-2.07008 -0.88862,2.77967 0,0 z m 151.8828,0.30342 c 7.9866,-2.72896 -3.33596,-2.95986 0,0 z m 66.3738,0.004 c -1.16711,-2.5255 -2.40727,1.27175 0,0 z m 2.3564,-2.4198 c -4.06115,-0.81479 2.07579,5.96648 0,0 z m 66.35578,1.18151 0.37783,-0.0774 -0.37783,0.0774 z m 7.96912,1.14933 c -2.17149,-4.50405 -4.94961,3.00107 0,0 z m -265.30646,-0.73508 c -1.32673,-2.54826 -1.32669,2.54829 0,0 z m 131.70686,0.0277 c -2.1387,-3.60158 -2.80615,2.72052 0,0 z m 2.8479,0.18377 c -0.004,-3.94992 -2.64179,2.11064 0,0 z m 80.22205,-0.36531 c -1.80064,-4.89473 -3.83747,1.86874 0,0 z m 3.11832,0.0257 c 3.405,-8.08937 -3.27186,0.42906 0,0 z m 21.45894,-2.05112 c -4.85804,-2.72137 0.95118,6.15243 0,0 z m 5.67661,-0.21755 c -4.96354,-2.88742 -2.35186,7.59416 0,0 z m -116.91325,1.73026 c 8.12846,-8.87838 -10.98854,-10.36458 0,0 z m -138.96267,-1.70053 c -2.85526,-1.53296 -5.6143,4.86217 0,0 z m 195.25145,0.36223 c 20.58713,-7.4215 -12.18224,0.88212 0,0 z m 12.42339,0.72327 c -1.23747,-2.01372 -1.23751,2.01373 0,0 z m 53.58524,0 c -1.75976,-2.13308 -1.32631,2.09113 0,0 z M 188.34517,496.0553 c -0.85859,-2.93378 -2.09913,2.7714 0,0 z m 31.27942,0.25638 c -1.2375,-2.01373 -1.23747,2.01373 0,0 z m 23.8824,0.062 c -4.11747,-3.99473 -1.95442,2.04694 0,0 z m 26.88257,-0.062 c -1.75979,-2.13307 -1.32623,2.09114 0,0 z m -123.06658,-0.51242 c -1.15092,-1.98576 -0.67508,1.94429 0,0 z m 18.45999,0 c -1.23745,-2.0137 -1.23749,2.01371 0,0 z m 18.97278,0 c -1.75977,-2.13308 -1.32631,2.09113 0,0 z m 329.71584,-0.65678 c 12.98882,-7.68449 -13.79468,-4.26279 0,0 z m -257.41424,-0.62512 c -0.85861,-2.93378 -2.09912,2.77137 0,0 z m 202.88666,-0.89737 -0.0245,1.25111 0.0245,-1.25111 z m 58.88618,1.15375 c -1.75978,-2.13304 -1.32624,2.09114 0,0 z m -276.75614,-3.16506 c -4.06569,-4.25584 -1.83403,7.59498 0,0 z m 163.17596,1.88312 c -2.88237,-6.93839 -2.93652,4.76398 0,0 z m 67.17383,0.76916 c -1.08357,-2.38046 -2.70593,2.29502 0,0 z m -202.80345,-0.51277 c -1.7598,-2.13308 -1.32624,2.09113 0,0 z m 44.94147,0.0563 c 0.46306,-6.99679 -7.9389,3.79127 0,0 z m 9.08116,-1.08181 c 1.00773,-4.40178 -8.61924,2.061 0,0 z m 134.56074,-1.14401 c -2.05373,-3.08232 -4.86237,5.59447 0,0 z m 18.02398,1.85831 c 2.70412,-3.77938 -6.6847,1.79791 0,0 z m -291.98478,-0.71435 c -1.23746,-2.01372 -1.23746,2.01372 0,0 z m 37.28374,-0.3214 c -2.08568,-4.03321 -3.3064,3.88903 0,0 z m 24.9288,0.49677 c 12.16644,-0.0286 -10.13134,-6.75194 0,0 z m 6.13543,-0.68815 c -1.64472,-3.85545 -0.49659,3.72785 0,0 z m 162.91462,0 c -2.8177,-4.59695 -1.03529,3.21844 0,0 z m 68.19939,0.51278 c -1.75976,-2.13308 -1.32626,2.09115 0,0 z m -309.54473,-0.73625 c -5.54968,-4.53319 -1.70696,2.93193 0,0 z m 89.70066,-0.2893 c -2.4997,-2.50549 -10.14117,0.92708 0,0 z m 118.82692,0.25638 c 0.23251,-3.67812 -5.24156,4.14134 0,0 z m 12.86138,0.25639 c -1.60807,-7.62253 -8.39703,1.65617 0,0 z m 75.97731,0.17317 -1.25109,0.0245 1.25109,-0.0245 z m 9.61458,-0.42956 c -0.38017,-3.38218 -6.37667,3.14929 0,0 z m -282.28395,-0.25638 c -1.32623,-2.09115 -1.75979,2.13307 0,0 z m 265.10591,0 c -3.29898,-7.02939 -5.42389,1.64166 0,0 z M 269.364,491.26983 c -1.34743,-3.55509 -1.42695,1.76754 0,0 z m 48.71384,-0.90952 c -2.24838,-2.90655 -1.43884,3.64276 0,0 z m 123.57936,0.24454 c 17.72191,-1.57221 8.88314,-4.04257 -1.88224,-0.44684 l 1.88224,0.44684 z m 144.8732,0.16572 -0.82966,0.47961 0.82966,-0.47961 z m -410.49188,-0.32516 c -0.70754,-3.49663 -1.79298,2.8574 0,0 z m 90.94731,-0.0307 c 1.81429,-14.08461 12.07512,-14.62388 11.50628,-5.00195 -0.0542,-13.33443 22.01755,-22.40712 7.56711,-26.37969 11.75791,-4.11282 5.7126,-2.13889 12.74268,-10.23963 -8.48724,-20.71269 -14.1331,-16.22788 3.06589,-34.21816 -11.11759,-14.34117 -1.39932,-31.26133 -3.18885,-30.3782 20.71592,-29.42415 12.86045,-75.16041 -4.7631,-103.11937 -43.71357,-4.48088 -59.13993,51.09202 -71.77875,81.06967 -20.92469,15.71565 -76.42318,40.82141 -21.92821,41.94222 5.37494,-2.60107 21.38851,-11.68753 30.28804,-22.74471 27.61374,9.19669 40.2409,38.67871 45.1852,45.36562 6.26206,9.05378 -6.59391,9.96588 -11.66688,26.67285 13.62344,-6.53975 23.07175,3.79057 1.0287,5.94309 -24.3712,16.37694 -4.04539,12.78647 10.47297,6.56383 -1.04616,25.38604 -51.94289,-11.57328 -31.94165,22.36416 7.75512,1.45609 15.87762,-0.78753 23.41057,2.16027 z m -2.10864,-1.6431 c -3.64242,-2.81599 6.09213,0.78888 0,0 z m -16.15249,-1.51608 1.25111,0.0245 -1.25111,-0.0245 z m 5.58332,-0.42976 c 1.15055,-2.81882 0.48423,2.74572 0,0 z m 10.44099,-1.29755 c 6.51191,-2.69207 2.08287,2.0008 0,0 z m -17.43443,-1.70681 -0.16186,-0.92332 0.16186,0.92332 z m 7.69478,-3.02077 c 5.18356,-3.16704 7.05196,2.88033 0,0 z m -5.2591,-2.78917 c -16.32472,-14.12593 5.26921,0.93831 0,0 z m -5.6085,-3.58625 0.92629,0.0947 -0.92629,-0.0947 z m 34.21124,-4.23981 c 0.46004,-3.96763 3.28008,0.78672 0,0 z m -18.48927,-0.56014 c 2.96797,-7.04276 6.66794,0.8594 0,0 z m 28.92057,0.1939 c -9.84847,-11.85575 9.28757,3.25569 0,0 z m -11.61112,-2.83148 c 1.33124,-3.09157 1.26336,2.41195 0,0 z m -16.01361,-1.66831 c 0.70943,-4.58728 1.65894,3.66997 0,0 z m 16.74353,-1.14847 c 2.56968,-3.6753 6.62129,1.36964 0,0 z m -9.05188,-1.18928 c 2.47556,-2.28428 1.8883,2.20911 0,0 z m 3.8245,-0.0345 c 4.6536,-6.68092 10.90991,1.27558 0,0 z m -4.33727,-4.09799 1.00259,0.29406 -1.00259,-0.29406 z m 5.64054,-1.50806 c 1.20881,-3.66576 1.20881,3.66577 0,0 z m 13.12902,-3.89211 c -10.80106,-0.97494 20.38182,-11.44351 0,0 z m -3.38626,-1.35191 c 1.0905,-5.74621 1.47724,3.34087 0,0 z m -15.55042,-5.71642 c 1.16947,-6.96301 13.06415,3.24948 0,0 z m 15.55042,0.72098 1.52145,0.28565 -1.52145,-0.28565 z m -4.5745,-2.1954 c 2.93727,-3.20201 0.67227,3.94769 0,0 z m 8.20444,-1.70926 0.36328,0.31694 -0.36328,-0.31694 z m 6.0167,-1.5895 0.92628,0.0947 -0.92628,-0.0947 z m -16.47356,-2.54535 c 3.44813,-5.88702 9.55967,3.63883 0,0 z m 10.67277,-0.18102 2.02529,-1.60296 -2.02529,1.60296 z m -3.84585,-3.07667 c 2.47557,-2.28426 1.88831,2.20912 0,0 z m 4.61501,-1.53833 c 0.061,-1.76626 2.37594,1.56588 0,0 z m -0.98507,-5.42688 0.36328,0.31691 -0.36328,-0.31691 z m -4.14269,-2.77756 c -5.5089,-1.90597 2.09964,-1.5283 0,0 z m 3.07665,-0.7143 1.77093,-0.24681 -1.77093,0.24681 z m -5.64054,-2.10818 c -3.16541,-5.35093 12.35596,2.13918 0,0 z m 17.94719,-2.30528 c 1.23749,-2.01372 1.23746,2.0137 0,0 z m -2.0511,-1.02556 c 1.8545,-2.16129 1.8545,2.16128 0,0 z m -15.89609,-1.31222 c 1.67497,-1.96085 0.75497,2.75161 0,0 z m 8.97359,-0.22612 c 1.15099,-1.98573 0.67505,1.9443 0,0 z m 1.79473,-0.0302 1.00258,0.29405 -1.00258,-0.29405 z m -18.86089,-1.07453 c 2.60654,-2.4267 1.00801,1.97966 0,0 z m 25.94363,0.24173 0.92625,0.0947 -0.92625,-0.0947 z m -15.48267,-1.08951 c -1.19367,-4.97173 5.67986,0.10533 0,0 z m 4.0137,-0.65601 c -0.44415,-3.58824 2.18323,1.96857 0,0 z m 4.54917,-0.70054 c 3.04405,-6.14493 7.68462,-1.83807 0,0 z m -2.45877,-0.37857 c -1.78894,-4.98959 2.4264,0.87362 0,0 z m 2.03944,-1.44011 c 0.6751,-1.9443 1.15094,1.98575 0,0 z m -16.5434,-3.51412 c 5.88261,-6.56891 12.54053,2.23619 0,0 z m 16.15882,-0.41491 c 4.35436,-6.96453 6.95917,1.84766 0,0 z m -3.20711,-0.68957 c 1.67623,-3.95979 3.30458,3.22072 0,0 z m -21.73524,-4.12849 c -1.64095,-4.90129 4.70934,3.3504 0,0 z m 25.91067,0.28627 c 3.50217,-3.24018 5.36144,2.9804 0,0 z m -32.50413,-4.17594 c -1.61889,-3.62558 8.02285,2.41911 0,0 z m -53.96982,-2.23379 c 1.75979,-2.13306 1.32623,2.09114 0,0 z m 51.27773,0.0606 c 0.47923,-2.53162 1.92647,0.98924 0,0 z m -40.76579,-1.08608 c 1.85453,-2.16125 1.85448,2.16125 0,0 z m -40.38123,-1.36516 1.25111,0.0245 -1.25111,-0.0245 z m 34.29885,-1.45511 c 1.23659,-2.90826 1.65929,2.93452 0,0 z m 53.0867,-1.73122 c 0.40409,-3.32882 2.8113,1.97842 0,0 z m -51.36294,-1.31518 c 0.75499,-2.75158 1.67497,1.96083 0,0 z m 56.51003,-2.05678 c 0.50895,-3.53719 1.54716,4.53761 0,0 z m 18.48368,0.87477 c -1.27563,-3.7551 8.2397,1.93045 0,0 z m 5.54582,-0.85904 c 1.11647,-1.81327 2.68125,2.63874 0,0 z m 2.97778,-0.13633 c -0.3014,-2.73599 3.99398,3.41375 0,0 z m -75.82563,-6.31371 c 2.13986,-5.2629 2.13986,5.26288 0,0 z m -2.66004,0.16249 0.92626,0.0947 -0.92626,-0.0947 z m 72.14137,-0.16249 c -0.1059,-3.07046 4.59426,2.88978 0,0 z m -72.14137,-1.37584 0.92626,0.0947 -0.92626,-0.0947 z m 79.06385,-0.38862 c 0.755,-2.75161 1.67499,1.96085 0,0 z m -64.22536,-0.64854 2.29363,0.004 -2.29363,-0.004 z m 38.48394,-0.76622 c 2.41198,-1.87941 0.54495,2.16178 0,0 z m 20.61366,-0.95327 1.00259,0.29405 -1.00259,-0.29405 z m -76.01925,-2.87322 1.25109,0.0245 -1.25109,-0.0245 z m 98.06867,-28.37594 c 1.23746,-2.0137 1.23749,2.01372 0,0 z M 168.85962,490.15879 c -1.23749,-2.01372 -1.23746,2.01374 0,0 z m 107.38267,0.0714 c 0.0812,-2.81634 -4.33012,2.60303 0,0 z m 31.22213,-0.7765 c -4.15808,-4.40909 0.7087,4.66371 0,0 z m 8.56231,0.70498 c -1.32626,-2.09114 -1.75973,2.13307 0,0 z m -178.9593,-0.51277 c -1.85448,-2.16125 -1.85453,2.16126 0,0 z m 14.61416,0 c -0.67504,-1.94429 -1.15097,1.98573 0,0 z m 259.20897,-0.28665 c -1.61788,-1.88251 -0.18084,2.61906 0,0 z m -5.79004,-0.931 c -3.04017,-2.61481 -2.49336,3.26009 0,0 z m 67.73881,0.38782 c -5.05074,-3.18734 1.33473,3.5943 0,0 z m -245.76563,-0.17331 -1.7463,0.29376 1.7463,-0.29376 z m 187.39845,0.10577 c -0.20897,-3.48863 -3.17689,0.26475 0,0 z m 52.56753,-0.12819 c -1.32629,-2.09114 -1.75975,2.13308 0,0 z m 19.73793,-0.38459 c -2.28634,-5.82503 -2.83244,3.14545 0,0 z M 301.1562,488.10761 c -1.23747,-2.01372 -1.23751,2.01374 0,0 z m 13.84499,0.0823 -2.83487,-1.64067 2.83487,1.64067 z m 91.78714,-0.85146 c -1.77597,-5.19733 -1.46882,4.0039 0,0 z m 189.44935,0.29181 c -0.0487,-2.61241 -1.69138,1.76002 0,0 z m -366.71504,-0.79758 c -1.93513,-2.73936 -2.14146,2.73513 0,0 z m 50.34967,0.25527 -0.78375,0.3367 0.78375,-0.3367 z m 114.60936,-0.005 c -1.1509,-1.98575 -0.67508,1.94429 0,0 z m -122.2035,-1.1217 -0.0947,0.92628 0.0947,-0.92628 z m 17.08416,0.89557 -1.23392,-0.20524 1.23392,0.20524 z m 4.45249,-0.89557 -0.0947,0.92629 0.0947,-0.92629 z m 8.11279,0.60531 c -0.7946,-2.99401 -3.14837,1.46048 0,0 z m 3.10204,-0.0411 c -0.002,-4.04855 -2.77205,2.02786 0,0 z m 161.75365,0.0447 c -1.8545,-2.16129 -1.8545,2.16128 0,0 z m 3.55339,-2.43569 c -2.028,-4.25107 0.0758,7.87078 0,0 z m 5.4202,2.43569 c -3.09125,-2.27256 -3.09125,2.27256 0,0 z m -156.14071,-0.51279 c -0.67508,-1.94429 -1.15093,1.98576 0,0 z m 81.90551,0.20299 -0.94113,0.0291 0.94113,-0.0291 z m 62.69771,-0.5021 c -1.84547,-2.47303 -1.55847,3.01661 0,0 z m -192.29937,-1.96565 -0.55991,1.68934 0.55991,-1.68934 z m -46.14211,1.23921 c -1.7598,-2.13308 -1.32622,2.09113 0,0 z m 157.42266,-0.51264 c -2.46965,-2.2437 -2.46969,2.2437 0,0 z m 94.86381,-0.29302 c -1.48825,-8.81533 -2.56307,2.68623 0,0 z m 122.81018,-0.21975 c -2.41799,-3.83239 -3.99164,1.89329 0,0 z m -312.02503,-0.51325 c -1.15093,-1.98576 -0.67509,1.94429 0,0 z m 315.35024,-0.1282 c -0.0657,-4.72134 -1.66435,2.18618 0,0 z m -366.62797,-0.0733 -1.52144,-0.28562 1.52144,0.28562 z m 39.62181,-0.1348 -1.51273,-0.001 1.51273,0.001 z m 14.73259,-0.17644 c -0.67507,-1.9443 -1.15095,1.98576 0,0 z m -72.81438,-0.22611 -1.0026,-0.29407 1.0026,0.29407 z m 249.20979,-0.24528 c -6.82467,-7.02767 -6.16672,2.54431 0,0 z m 12.30665,-0.32848 c -1.67495,-1.96089 -0.75499,2.75159 0,0 z m -10.56248,-2.60257 c -5.44316,-6.52591 1.31594,8.59185 0,0 z m -233.13571,0.70768 c 5.99709,-4.21324 -8.12108,-3.23506 0,0 z m 48.74948,-0.0291 c 12.09813,-11.99546 -11.6515,0.84574 0,0 z m 201.5223,-0.73782 c -2.21486,-4.15749 -2.90466,5.29598 0,0 z M 129.8144,478.01913 c -3.89434,-0.84546 1.49087,3.73898 0,0 z m 33.1483,1.3713 c -1.32625,-2.09114 -1.75981,2.13306 0,0 z m 139.82456,-0.3066 c 4.02134,-5.18241 -6.35037,2.89012 0,0 z m 173.73881,0.36145 c -0.22259,-2.38698 -2.59571,1.34462 0,0 z m 123.74953,-0.27147 c 7.91272,-4.83668 -9.84179,-0.56995 0,0 z m -370.39975,-0.79544 c 0.69157,-3.96357 -3.81893,2.12171 0,0 z m 253.69022,0.18947 -0.94113,0.0292 0.94113,-0.0292 z m 140.12709,-0.10499 c 0.77113,-5.82052 -3.78862,1.73978 0,0 z m -450.38103,-1.21972 -0.0947,0.92629 0.0947,-0.92629 z m 311.91486,-3.14533 c -5.28776,0.46261 -3.21488,5.55407 0,0 z m -362.51732,2.7287 c -1.32627,-2.09116 -1.75978,2.13311 0,0 z m 102.55548,0.28665 -1.00259,-0.29404 1.00259,0.29404 z m -92.81271,-1.0558 c -0.49993,-2.73684 -1.14054,2.80505 0,0 z m 29.52015,-0.31372 c -0.76702,-4.3197 -3.45768,2.2147 0,0 z m 69.64503,-1.06083 c 3.74993,-5.62796 -8.3253,4.95677 0,0 z m 376.07223,1.29784 c 1.66542,-3.98574 -10.89369,2.11047 0,0 z M 481.20537,473.2371 c -2.24805,-1.98778 -0.71894,5.38155 0,0 z m -313.56348,0.74834 c 15.93132,-5.28878 -13.1851,0.10656 0,0 z m 68.90436,-0.0103 c -6.86307,-4.18586 -0.81951,4.11552 0,0 z m -117.68241,0.28665 c -1.23749,-2.01375 -1.23749,2.01373 0,0 z m 150.62173,-0.48033 c 8.66607,-13.83855 -8.49698,1.85914 0,0 z m 203.96382,0.76698 -1.00259,-0.29405 1.00259,0.29405 z m 14.05888,-0.6172 c 3.44369,-9.06047 -8.59539,-6.2926 0,0 z m -22.26331,0.10433 -1.00258,-0.29406 1.00258,0.29406 z m -306.1281,-0.79944 c -2.46964,-2.24369 -2.46969,2.24371 0,0 z m 296.38533,0.28666 -1.00259,-0.29405 1.00259,0.29405 z m 6.79429,-0.39972 c -2.9815,-9.77108 -10.68728,2.09276 0,0 z m 15.76791,-0.94186 c 0.97339,-6.57928 -6.65503,4.03405 0,0 z m -360.7617,0.57907 c -0.0879,-14.34252 -11.73615,-2.27855 0,0 z m 172.94631,0.16604 -0.94112,0.0292 0.94112,-0.0292 z m 120.64156,-0.19406 c -2.99787,-2.7319 -9.11358,2.86613 0,0 z m 41.45344,-0.64987 c -8.70281,-19.79017 -6.13527,0.36374 0,0 z m -332.19821,0.16303 c 7.38661,-2.24734 -3.29822,-2.29934 0,0 z m 145.37239,-0.0346 c -1.61858,-2.23406 -0.78914,2.11758 0,0 z m 139.39818,-0.78559 c -2.93364,-3.17958 -0.32179,3.40133 0,0 z m 102.11995,0.78559 c -0.67504,-1.94428 -1.15094,1.98573 0,0 z m -266.13145,-1.02556 c -1.88837,-2.2091 -2.47553,2.28428 0,0 z m 275.61783,0.0206 c -3.72309,-3.38435 -7.1327,2.02964 0,0 z m -390.85857,-0.37262 -2.03381,-0.002 2.03381,0.002 z m 33.82665,0.0426 -0.94113,0.0292 0.94113,-0.0292 z m 249.60731,-0.20659 c 2.27835,-7.56096 -6.24082,0.4249 0,0 z m 2.56164,0.003 c -0.67504,-1.9443 -1.15098,1.98572 0,0 z m 54.9847,0.20296 -0.94114,0.0292 0.94114,-0.0292 z m 147.85722,-0.34397 -0.88793,0.33163 0.88793,-0.33163 z m -496.40696,-0.62816 c -1.22632,-2.83368 -1.22632,2.83369 0,0 z m 352.1501,-0.1282 c -1.86469,-5.505 -5.42254,2.59381 0,0 z m 37.04793,0.20767 c -2.85765,-8.36805 -2.71478,2.06265 0,0 z m 111.55348,-2.27708 c -4.13878,0.10388 -0.1229,4.27113 0,0 z m -368.63398,0.65928 c -0.34394,-4.64089 -4.35928,3.57076 0,0 z m 267.33605,0.44111 c 0.27136,-6.59565 -7.22006,-3.67511 0,0 z m -40.80613,-0.82329 c 0.0318,-4.52859 -5.52291,2.76617 0,0 z m 32.09919,-0.63099 c -4.12135,-3.74971 1.19402,3.87627 0,0 z m -352.61568,-0.5244 c -1.23656,-2.90822 -1.65933,2.93449 0,0 z m 97.30485,-0.60253 c -2.13614,-0.51037 2.48738,3.06811 0,0 z m 218.89335,0.047 c -1.84547,-2.47302 -1.55846,3.01657 0,0 z m 12.12061,0.28006 c 6.18466,-7.33573 -9.50593,-2.87809 0,0 z m -80.9245,-1.0502 -0.52785,-0.61708 0.52785,0.61708 z m 64.70167,0.55648 c -0.67501,-1.94431 -1.15097,1.98571 0,0 z m 52.06881,0.0354 c 5.87142,-8.50814 -4.8492,-2.34874 0,0 z m 100.27411,-0.0611 c 2.57543,-3.88701 -4.18345,1.86723 0,0 z m -363.29739,-1.37374 c -2.43667,0.92212 1.58997,1.59589 0,0 z m 39.68682,0.63029 c -0.85859,-2.93376 -2.0991,2.7714 0,0 z m 112.81104,0.20838 c -0.0615,-4.66892 -5.17195,1.89422 0,0 z m 3.75801,-0.97754 c 0.94384,-5.03466 -5.82371,4.98428 0,0 z m 41.76164,0.60892 c -1.78544,-2.46773 -1.59933,2.9748 0,0 z m 53.18998,0.41663 c -4.6095,-2.28872 -3.53277,2.28327 0,0 z m 4.43553,-0.91445 c -11.25129,-9.50497 -1.49541,3.82997 0,0 z m -31.86911,-0.45531 c 1.27192,-13.50637 -10.69101,-3.77913 0,0 z m -226.6476,-1.28194 c 5.38383,-8.66667 -12.03239,3.57638 0,0 z m 37.17635,0.0879 c -1.2375,-2.01374 -1.23747,2.01373 0,0 z m -180.5767,-0.38494 c -2.266,-9.74333 -4.83244,1.09151 0,0 z m 35.7171,-0.93469 c -2.30192,-2.73056 -2.30746,3.20447 0,0 z m 2.3075,-0.33318 c -2.01423,-1.79768 -1.47882,2.80472 0,0 z m 96.40215,0.62716 c -2.46968,-2.24375 -2.46968,2.24375 0,0 z m 262.5695,-0.42617 c 8.24592,-11.44291 -11.05118,2.06563 0,0 z m 112.19978,0.16979 c -1.69151,-2.9458 -1.19948,2.91313 0,0 z m -505.56542,-0.20263 c 0.81366,-9.88836 -8.60686,1.91242 0,0 z m 361.80235,-0.80685 c -2.15091,-2.07377 -1.55569,2.82477 0,0 z m -179.21569,-0.27248 c -1.75981,-2.13307 -1.32626,2.09115 0,0 z m 326.88555,-2.79888 c 5.51167,-15.74112 -6.27549,10.46419 0,0 z m -364.38926,2.02972 c -1.15058,-2.81883 -0.48421,2.74571 0,0 z m 151.59667,-0.25639 c -1.23749,-2.01374 -1.23749,2.01374 0,0 z m -186.65097,-0.51279 c -1.2375,-2.01373 -1.23747,2.01374 0,0 z m 213.57178,0 c -1.23752,-2.01373 -1.23746,2.01374 0,0 z m -221.25559,-1.15345 c 25.44133,-1.14712 24.09111,-37.81414 4.7528,-28.43787 10.41946,-4.55478 -20.12416,-9.97288 2.90388,-7.7356 -16.91033,-3.83544 -38.63213,-1.94649 -64.07567,-9.948 -23.45033,-4.49125 21.27068,39.0682 35.12807,38.56103 5.73169,9.0805 17.57676,0.38832 21.29092,7.56044 z m 0.10589,-4.57185 c 3.71297,-2.85411 1.52955,2.14457 0,0 z m -3.95964,-0.94051 c 1.15093,-1.98575 0.67508,1.94429 0,0 z m 15.63971,-0.76917 c 1.22631,-2.83367 1.22631,2.83367 0,0 z m -3.03618,-1.06828 0.36329,0.31693 -0.36329,-0.31693 z m -12.60353,-0.21365 c 1.15093,-1.98576 0.67508,1.94429 0,0 z m -22.56221,-1.53834 c 0.30385,-4.48689 2.09402,2.32778 0,0 z m 32.30498,-2.05112 c 1.23749,-2.0137 1.23745,2.01371 0,0 z m -17.9472,-10.25554 c 1.15093,-1.98575 0.67508,1.9443 0,0 z m 25.20706,-0.23027 c 1.12697,-1.85366 0.84213,3.01978 0,0 z m 3.25208,0.23027 c 1.23745,-2.0137 1.23748,2.01372 0,0 z m -6.38265,-0.46898 c -0.007,-2.63182 2.351,1.18299 0,0 z m -25.03237,-0.35032 c -0.91427,-4.99622 3.41657,1.54066 0,0 z m -33.19494,-2.25737 c 1.23752,-2.01371 1.23746,2.01374 0,0 z m 48.03015,0.17092 c -1.54325,-3.66274 4.73395,2.03721 0,0 z m -38.54377,-0.68368 c 1.23745,-2.01372 1.23748,2.0137 0,0 z m 47.94469,-1.53833 c 1.23747,-2.01375 1.23751,2.01372 0,0 z m -46.11648,-1.24161 c 1.11645,-1.81328 2.68127,2.6387 0,0 z m 9.61315,-0.13423 0.92627,0.0947 -0.92627,-0.0947 z m -20.92774,-2.39876 c 4.67191,-3.65585 3.06206,3.43988 0,0 z m 49.22667,-0.61428 c 1.67496,-1.9609 0.75499,2.75159 0,0 z m -16.40888,-2.27725 c 1.2088,-3.66577 1.2088,3.66579 0,0 z m 10.76831,0.25641 c 1.22627,-2.83365 1.22634,2.83363 0,0 z m -22.42424,-1.6373 1.51345,0.0345 -1.51345,-0.0345 z m -25.26405,-8.61825 c 2.4745,-3.17903 2.4745,3.17903 0,0 z m 290.23199,43.52626 -2.03143,0.26226 2.03143,-0.26226 z m -346.3293,-0.98962 c 0.19302,-5.52013 -2.89044,4.19 0,0 z m 35.84262,0.0144 c -3.5624,-2.32923 -1.93978,5.27178 0,0 z m 85.27913,0.74011 c -1.61942,-2.24208 -1.61938,2.24209 0,0 z m 190.23613,-0.57685 c 1.78762,-5.07564 -6.9787,3.1486 0,0 z m 82.65973,-0.20871 -1.52144,0.28566 1.52144,-0.28566 z m -72.4748,-1.35526 -0.0245,1.25111 0.0245,-1.25111 z m -66.9622,0.49994 -0.88793,0.33163 0.88793,-0.33163 z m 159.88558,0.19051 c 1.3607,-4.04799 -3.88271,1.60386 0,0 z m -265.49359,-1.42116 c -2.00768,-2.11083 1.774,3.95045 0,0 z m -18.68506,-0.2628 -0.0947,0.92627 0.0947,-0.92627 z m -14.45166,0.0961 c -1.85449,-2.16125 -1.85454,2.16127 0,0 z m 212.28983,0 c -1.32624,-2.09113 -1.7598,2.13309 0,0 z m 4.10222,0 c -1.8545,-2.16125 -1.85454,2.16127 0,0 z m -79.63163,-1.11371 c 20.35231,-5.95293 -17.22568,0.93572 0,0 z m -220.59953,-1.4502 c -0.78383,-7.3815 -2.42687,7.79786 0,0 z m -3.07111,-0.7588 c -3.37617,-4.93459 1.32234,6.27362 0,0 z m 291.25201,1.78435 c -1.8545,-2.16127 -1.8545,2.1613 0,0 z m 6.46313,-0.88667 c -2.43668,0.92212 1.58995,1.59592 0,0 z m -162.14559,0.0746 c -0.74453,-2.29686 -1.28137,3.44014 0,0 z m 82.50442,-0.21569 c -4.29355,-8.81881 -3.65871,3.0239 0,0 z m 48.22211,0.29835 -0.80496,-2.40573 0.80496,2.40573 z m 43.15951,-0.0202 c 1.07229,-7.11883 -12.05026,-0.68598 0,0 z m -15.77857,-0.58574 -0.94113,0.0292 0.94113,-0.0292 z m 98.42326,-1.05552 c -2.72637,-0.41596 0.83892,2.56656 0,0 z m -162.47985,0.30133 c -1.61939,-2.2421 -1.61943,2.24208 0,0 z m 74.451,-0.47433 c -1.85454,-2.16125 -1.85448,2.16127 0,0 z m -336.00805,-0.30976 -0.94113,0.0292 0.94113,-0.0292 z m 310.74309,0 -0.94112,0.0292 0.94112,-0.0292 z m 24.23942,-1.29132 c -2.99226,-2.46381 -1.81827,4.44317 0,0 z m -332.27975,0.57557 c 9.52364,-3.63103 -6.22294,-2.09827 0,0 z m 251.26091,0 c -1.32626,-2.09116 -1.75978,2.13308 0,0 z m 74.00407,-0.93431 c 1.65567,-5.76813 -25.79688,2.00264 0,0 z m -53.20326,0.30275 c -7.23313,-3.42152 -3.5064,2.66824 0,0 z m 246.86934,-3.67539 c -3.28104,-0.23712 0.46666,3.50097 0,0 z m -202.77362,-0.0681 c -12.32386,-11.76158 -13.38259,2.6081 0,0 z m 209.46188,-1.52202 c -2.24243,-2.81054 -3.76062,2.5596 0,0 z m -502.25857,-0.47085 c 3.01069,-3.19945 -5.83309,2.38372 0,0 z m 109.44859,-0.58497 c -1.55321,-2.99264 -1.61805,4.18327 0,0 z m 5.01026,-0.12998 c -1.78543,-2.46772 -1.59933,2.97482 0,0 z m 17.65427,-2.20407 c -1.61002,-2.36397 -0.73667,4.91589 0,0 z m 148.19289,0.5696 c 3.00096,-3.1772 -10.17004,2.53806 0,0 z m -279.93043,-1.02555 c -2.63599,-3.76431 0.44438,3.46733 0,0 z m 110.96162,-0.0961 -0.0947,0.92628 0.0947,-0.92628 z M 105.2752,439.39374 c -1.15099,-1.98571 -0.67505,1.94431 0,0 z m 307.91794,-1.3489 c -7.37264,-3.51067 -3.96139,3.29196 0,0 z m -241.76966,0.32336 c -1.85449,-2.1613 -1.85449,2.16129 0,0 z m 234.01191,-0.25639 c -3.92678,-4.83586 -2.26076,3.33642 0,0 z m 232.45301,-0.86531 -0.0947,0.92627 0.0947,-0.92627 z m -369.84833,-0.72789 -1.73559,-0.96091 1.73559,0.96091 z m -145.3304,-2.25259 c -1.85453,-2.16125 -1.85449,2.16126 0,0 z m 514.31572,-1.05582 c -1.64025,-4.51646 -0.7164,5.48615 0,0 z m 2.52781,0.92763 c 0.47183,-5.5111 -3.01565,2.18049 0,0 z m -242.76402,-0.38459 c -1.34273,-2.71723 -3.09512,2.67578 0,0 z M 242.61199,432.5611 c -3.48555,-3.49128 -3.54355,4.42172 0,0 z m 23.67535,0.67936 c -1.85453,-2.16126 -1.85449,2.16128 0,0 z m 29.74108,-1.02554 c -1.88833,-2.20913 -2.47554,2.2843 0,0 z m 102.55548,-0.51279 c -0.67508,-1.94429 -1.15094,1.98576 0,0 z m -128.19434,-1.02555 c -1.88835,-2.2091 -2.4755,2.28426 0,0 z m 1.02555,-1.26585 c -2.0702,-2.05551 -0.97113,2.75196 0,0 z m -4.4868,-0.0993 -1.25109,0.0245 1.25109,-0.0245 z m 131.10248,-3.17446 c -0.5606,-4.69022 -2.01032,5.02888 0,0 z m -126.85192,-1.67718 c -1.92937,-6.58871 -3.31936,7.48643 0,0 z m 27.71176,1.08902 -2.90845,-1.93454 2.90845,1.93454 z m -23.3733,-0.73895 c 2.95829,-6.89492 -7.48911,2.62481 0,0 z m 364.5847,-2.08132 c -1.19232,-4.52246 -1.19228,4.5225 0,0 z m -514.82848,-0.76916 c -1.15097,-1.98573 -0.67503,1.9443 0,0 z m 105.34256,0.0538 c -1.69533,-3.28949 -6.15799,3.81162 0,0 z m 72.07842,-0.0538 c -1.2375,-2.01371 -1.23745,2.0137 0,0 z m -96.91492,-3.84584 c -2.22535,-3.1258 -1.42021,3.05924 0,0 z m 28.71552,0.3162 c -5.73066,-2.51582 -3.82176,2.38904 0,0 z m -9.19627,-1.61618 c 3.5798,-3.76926 -5.87888,1.53457 0,0 z m 169.95198,0.0181 c -0.78911,-2.11758 -1.61857,2.23405 0,0 z m -131.22827,-1.02556 c 3.38208,-14.94062 -12.34736,0.22901 0,0 z m -17.46083,-2.04708 c -1.47492,-3.67239 -2.56093,6.5106 0,0 z m -33.38006,0.0498 c -0.46833,-2.57892 -2.86424,2.44805 0,0 z m 183.86856,-0.81726 c -2.45366,-2.81538 0.0275,2.63248 0,0 z m -223.06283,-0.48812 c -1.06212,-4.80401 -2.31079,3.29506 0,0 z m 90.7616,-4.18735 -1.52144,0.28564 1.52144,-0.28564 z m -113.44133,-1.32323 c -1.59932,-2.9748 -1.78541,2.46775 0,0 z m 44.21638,-1.41192 c -1.92005,-5.19878 -0.98211,3.64975 0,0 z m 108.19603,0.0295 c -2.2871,-2.8601 -2.65788,2.17801 0,0 z m -45.32128,-2.01475 c -3.00065,-1.08026 2.70174,4.11283 0,0 z m -44.92754,-0.32232 c -0.85604,-7.45448 -1.37108,6.3193 0,0 z m -34.27916,-0.54304 c -1.32672,-2.54832 -1.32672,2.54833 0,0 z m 200.63798,-0.52378 c 2.60383,-3.95187 -6.94395,3.6386 0,0 z m -79.71575,-1.50236 c 11.47593,-0.7983 -6.55384,-1.25044 0,0 z m 1.22252,-4.50613 c -3.79545,-1.86517 0.63913,4.74409 0,0 z m -78.37921,1.14809 c -0.67509,-1.94429 -1.15094,1.98576 0,0 z m 27.68634,-0.50691 -0.78374,0.33675 0.78374,-0.33675 z m 2.68503,-0.31567 -0.94112,0.0292 0.94112,-0.0292 z m -8.71721,-4.10222 -0.94113,0.0292 0.94113,-0.0292 z m -120.48868,-1.48166 c 4.00411,-8.21871 -4.74463,2.032 0,0 z m 111.08276,-0.0181 c -1.9895,-10.04882 -12.2693,2.65776 0,0 z m 7.49369,-0.25761 -2.77627,-0.3884 2.77627,0.3884 z m -3.35495,-2.51237 c -0.0487,-2.61242 -1.69136,1.76005 0,0 z m 64.88824,-1.57376 c -2.70595,-2.29498 -1.08357,2.38043 0,0 z m -72.30163,-1.79473 c -1.6239,-3.09926 -0.58576,2.73201 0,0 z m 72.65191,-1.37809 -0.0947,0.92627 0.0947,-0.92627 z m -150.46586,-6.90956 -1.2511,0.0245 1.2511,-0.0245 z m 25.12339,-11.71067 c -0.58919,-4.63473 -3.16246,5.63364 0,0 z m 139.09356,0.76917 c -0.67507,-1.9443 -1.15095,1.98576 0,0 z m -4.87138,-4.10223 c -1.23751,-2.01373 -1.23747,2.01374 0,0 z m 15.88791,-35.15448 c -4.77148,-10.13587 2.16995,9.83969 0,0 z m 8.70226,-0.86813 c 0.16426,-7.48465 -3.29738,2.2277 0,0 z m -8.1187,-1.75625 c -2.13613,-0.51043 2.48732,3.0681 0,0 z m 6.6035,-3.21305 c -0.75498,-2.7516 -1.67497,1.96086 0,0 z m 1.53833,-3.13721 c -1.53723,-2.74721 -0.0709,3.44118 0,0 z m -12.61791,-1.8064 c 1.70314,-7.67072 -3.58595,2.25717 0,0 z m -0.52413,-4.77602 0.52591,-2.50655 -0.52591,2.50655 z m 2.37372,-0.0534 c -1.15097,-1.98573 -0.67503,1.9443 0,0 z m 10.25557,-32.04858 c -1.15057,-2.81882 -0.48424,2.7457 0,0 z m 56.58463,-12.32308 c -1.65624,-2.61143 0.0983,3.55146 0,0 z m -84.27462,-29.75492 c -1.61791,-1.88251 -0.18081,2.61906 0,0 z m 1.28195,-1.76446 c -0.67507,-1.94429 -1.15097,1.98572 0,0 z m 79.73687,-1.02555 c -1.12849,-3.66261 -0.3943,3.58272 0,0 z m -18.73671,-76.58194 c 2.288,-4.41957 -10.01162,4.60484 0,0 z m 12.0706,-2.98088 c -2.70879,-1.37082 -4.34841,4.87362 0,0 z m 2.30749,-1.45602 c -1.44473,-2.19856 -2.23899,2.2639 0,0 z m 2.69209,-8.7102 c 12.05657,-16.52525 -11.91227,-0.44832 0,0 z m -11.99302,-12.05728 c -0.49992,-2.7368 -1.14057,2.80503 0,0 z m 4.68595,-2.52186 c -2.14101,-8.02386 -14.76476,5.21513 0,0 z m 34.47359,-9.32544 -0.94112,0.0292 0.94112,-0.0292 z m -108.87147,-7.93214 c 9.80748,-8.05219 -10.97835,-1.24131 0,0 z m 4.40376,-1.75726 c -1.22631,-2.83367 -1.22631,2.83367 0,0 z m -43.71402,-6.7943 c -2.29911,-2.73022 -2.33259,3.18255 0,0 z m 63.71233,-12.660978 -1.23388,-0.205231 1.23388,0.205231 z m 1.28195,-1.824974 c -0.67505,-1.944288 -1.15095,1.985717 0,0 z M 451.91275,74.296394 c 2.45884,-3.728191 -4.69503,4.305472 0,0 z M 613.18122,876.28023 c 1.15093,-1.98575 0.67512,1.94429 0,0 z M 131.1705,843.46242 c 1.15097,-1.98572 0.67502,1.9443 0,0 z m -1.74361,-3.71763 c -0.81536,-10.70361 4.14088,5.8768 0,0 z m 490.35265,-9.34995 c -2.1153,-10.85492 5.63035,2.46782 0,0 z m -5.54722,-13.97164 c -3.16548,-13.21818 10.87599,-2.38898 0,0 z m 1.76919,-9.05672 1.2247,-0.34397 -1.2247,0.34397 z m -484.02137,-2.66146 0.36329,0.31689 -0.36329,-0.31689 z m -1.06603,-12.00757 c 1.2088,-3.66576 1.2088,3.66577 0,0 z M 124.3762,651.42944 c -2.38961,-3.30846 4.35266,2.45103 0,0 z m 2.69209,-3.84798 c 0.67503,-1.9443 1.15097,1.98572 0,0 z m 3.52789,-1.77016 c -5.47611,-8.88415 5.4069,2.91614 0,0 z m -7.58759,-34.56822 c -1.59064,-2.48606 1.99763,0.50805 0,0 z m -1.56112,-7.72853 c -1.79721,-5.02518 3.79473,-0.18416 0,0 z m 500.47016,-55.02732 c 2.43538,-6.77189 -0.16445,5.8635 0,0 z m -183.84988,-13.7168 c 2.46967,-2.24374 2.46967,2.24373 0,0 z m 15.38334,-2.56389 c 1.53677,-3.33711 1.5367,3.33715 0,0 z m 5.12775,0.82897 2.03146,-0.26224 -2.03146,0.26224 z m 5.64056,-0.82897 c 3.09126,-2.27253 3.09123,2.27256 0,0 z m -0.66222,-2.04771 c 9.01001,-4.504 2.76486,2.89095 0,0 z m -12.41359,-1.54172 c 1.6186,-2.23408 0.78907,2.11758 0,0 z m 13.93045,-1.11105 c -2.30936,-7.16214 5.02882,6.04491 0,0 z m 11.9648,-0.94006 c 1.23746,-2.01374 1.23751,2.01372 0,0 z m -14.35777,-2.56389 c 1.75976,-2.13309 1.3263,2.09113 0,0 z m 7.08274,0.1625 0.92624,0.0947 -0.92624,-0.0947 z m 7.53142,-0.1625 c 3.09124,-2.27255 3.09127,2.27254 0,0 z m -4.87139,-1.02555 c 1.23745,-2.01371 1.23749,2.01371 0,0 z m 7.40178,-0.45392 c -17.59928,-8.95866 20.45974,3.24525 0,0 z m 12.59654,0.45392 c 1.00796,-2.05656 3.62498,2.31353 0,0 z M 119.633,521.69461 c -16.32942,-6.98309 3.75572,-4.68066 0,0 z m 378.42971,-0.59123 c -3.43614,-2.83765 5.71774,2.58185 0,0 z m 2.1902,-1.33486 c -27.23577,-6.02776 15.92535,-8.7177 0,0 z m 1.63373,-0.85875 c -0.0487,-2.61237 -1.69136,1.75999 0,0 z m -379.52947,0.58722 c -7.33141,-9.89357 5.42594,-1.76284 0,0 z m 397.62677,-2.5006 1.2511,0.0245 -1.2511,-0.0245 z m -305.9999,-0.54041 c -8.36015,-2.29844 6.43016,-3.73977 0,0 z m 292.79588,-0.0112 c -10.20569,-0.48597 2.82448,-2.52065 0,0 z m -6.6661,-1.16826 c -1.67091,-7.76165 4.77626,1.0768 0,0 z m -21.79304,-0.50483 c -0.91979,-1.92881 3.85156,1.70746 0,0 z m 9.71232,-0.0491 c -8.68571,-4.06302 7.90186,-3.53892 0,0 z m -13.30176,-0.97632 c 2.43469,-2.27711 3.18592,2.34952 0,0 z m 6.92249,-1.05581 1.0026,0.29403 -1.0026,-0.29403 z m 1.28341,-0.99075 c -0.50548,-5.72148 2.56586,3.56337 0,0 z m 20.76602,0.50822 c 1.23752,-2.01373 1.23746,2.01373 0,0 z m -23.07499,-1.82498 c 1.61787,-1.88251 0.18083,2.61902 0,0 z m 72.17342,-4.66795 1.25111,0.0245 -1.25111,-0.0245 z m -68.0712,-2.25455 1.00259,0.29405 -1.00259,-0.29405 z m 37.81734,-0.84437 2.29364,0.004 -2.29364,-0.004 z m -405.99149,-1.2067 c 1.71246,-2.80456 0.69014,3.64643 0,0 z m 414.8369,-1.20205 c 7.15753,-10.69645 10.48435,-0.89935 0,0 z m -48.20108,-1.01542 2.03146,-0.26221 -2.03146,0.26221 z m 5.64055,-0.26059 c -6.72193,-1.52194 2.13418,-2.96703 0,0 z m 82.04438,-2.61947 c 1.75981,-2.13307 1.32627,2.09115 0,0 z m -402.01747,-1.53831 c 1.75981,-2.13306 1.32625,2.09115 0,0 z m 353.81639,-0.0302 1.00262,0.29404 -1.00262,-0.29404 z m 9.48639,0.0302 c 1.15099,-1.98571 0.67504,1.94431 0,0 z m -6.88201,-0.81187 0.36328,0.31693 -0.36328,-0.31693 z m 3.89943,-0.66363 c -22.49853,-25.22158 27.28823,-28.93283 12.46729,-13.07669 -14.59976,5.68584 16.79852,12.78633 -12.46729,13.07669 z m 1.70065,-3.45565 c 13.96272,-3.94388 -8.20347,-5.09726 0,0 z m 2.9206,-7.04988 c 6.38583,-17.6977 -11.97639,8.10745 0,0 z m 3.72352,-4.66934 c -4.42964,-2.01742 1.42692,4.27037 0,0 z m 3.38265,-0.82873 c -2.13214,-5.12948 -6.00931,2.88942 0,0 z m -12.07789,-1.49365 c -1.88831,-2.20912 -2.47557,2.28429 0,0 z m 1.79471,-0.51278 c -0.67507,-1.94429 -1.15089,1.98575 0,0 z m 5.38418,0 c -1.15095,-1.98571 -0.67505,1.94428 0,0 z m 88.71049,16.66527 c 1.22631,-2.83368 1.22631,2.83367 0,0 z m -102.04272,0.0585 3.76663,-2.7235 -3.76663,2.7235 z m -23.39754,-1.18887 c 3.14409,-3.5561 7.32327,0.81395 0,0 z m 46.85317,-0.72717 c 1.90912,-3.21908 2.14959,2.68723 0,0 z m 3.72159,0.54528 1.00257,0.29403 -1.00257,-0.29403 z m 17.33828,-0.32002 0.92627,0.0947 -0.92627,-0.0947 z m 13.17196,-0.34171 c 6.42837,-3.6526 -1.34092,2.75194 0,0 z m -86.90091,-1.33907 c -1.63555,-2.82106 4.72719,2.91838 0,0 z m 69.56592,0.16481 c 1.89363,-4.62278 9.44593,3.44437 0,0 z m -9.43347,-0.88121 c -4.50049,-2.37767 4.63099,-0.90744 0,0 z m -7.56572,-0.80655 c 0.19555,-2.69098 2.02867,1.99943 0,0 z m 2.56389,0 c 0.0487,-2.61239 1.69137,1.76001 0,0 z m -56.17102,-0.45515 1.31377,-0.91918 -1.31377,0.91918 z m 51.38101,-0.22395 c -1.32514,-3.05243 3.02162,0.14652 0,0 z m -41.39573,-0.91713 c -2.15965,-14.27796 7.36068,-3.53826 0,0 z m 83.64961,0.16094 c 1.29299,-5.50372 6.62792,3.49193 0,0 z m -423.35074,-1.16369 c 2.46965,-2.2437 2.46969,2.2437 0,0 z m 336.99896,-0.41889 c 2.01294,-3.73321 2.67407,2.58891 0,0 z m 23.48353,-0.094 c 1.20881,-3.66577 1.20881,3.66577 0,0 z m 23.01114,-0.1282 c 2.25773,-14.57454 18.18898,-3.13662 0,0 z m 7.49911,-4.85243 c -3.18441,-3.40165 -3.92935,1.96281 0,0 z m 1.28194,-1.41299 c -2.07016,-2.05546 -0.97108,2.75191 0,0 z m -55.94702,4.21564 c 3.24234,-5.21607 0.90509,2.86883 0,0 z m 27.23149,0.14005 c -8.88473,-7.60241 3.67384,-1.39789 0,0 z m 29.74108,0.27812 c 6.79657,-8.58893 11.88175,-3.21022 0,0 z m 35.69613,-1.53971 c 2.63688,-3.17978 2.5134,2.11338 0,0 z m -435.44988,-0.36079 c 1.22598,-2.30778 1.86362,1.46833 0,0 z m 415.04094,0.23338 0.92628,0.0947 -0.92628,-0.0947 z m 4.45475,-0.1625 c 0.67508,-1.94431 1.15094,1.98575 0,0 z m -424.70786,-0.42025 c -4.41245,-2.48949 5.67616,-0.57684 0,0 z m 1.9634,-1.92998 0.36328,0.31692 -0.36328,-0.31692 z m 423.89822,-0.0744 c -26.85993,1.92231 5.80894,-4.46277 0,0 z m 48.86019,-1.29299 c 3.9599,-15.7107 0.13735,7.18113 0,0 z m -481.17426,0.29905 c -1.30259,-3.38812 4.7271,1.32673 0,0 z m 375.07042,-1.26103 c 8.52804,-1.42362 0.55335,-3.20515 0,0 z m -372.07921,0.57732 c -1.05354,-3.25861 3.36586,2.01756 0,0 z m 2.82026,-0.76917 c 1.63519,-4.32123 2.12541,4.81635 0,0 z m -8.7172,0 c 4.00314,-2.19533 -1.92666,-2.63357 0,0 z m -7.44911,-0.79154 1.74628,-0.29377 -1.74628,0.29377 z m 416.26087,-0.46145 c -2.54521,-7.14174 6.04422,2.59902 0,0 z m 8.04824,-0.11582 c 9.17294,-7.77207 5.44442,4.30981 0,0 z m 13.77685,0.24937 0.92628,0.0947 -0.92628,-0.0947 z m -428.07298,-0.94775 c 0.97114,-2.75196 2.07022,2.0555 0,0 z m -2.05109,-0.75308 c 1.32629,-2.09112 1.75975,2.13308 0,0 z m 428.105,0.16057 c -8.20188,-7.83786 13.66007,3.83357 0,0 z m -48.60926,-1.48525 0.36328,0.31694 -0.36328,-0.31694 z m 35.98211,-0.46044 c 0.58825,-10.91014 2.36277,4.48204 0,0 z m 22.43402,-0.6762 c -0.16969,-17.89767 23.1383,-11.53326 0,0 z m -15.12175,0.93136 c -0.49116,-4.8374 2.63709,1.25658 0,0 z m 21.53147,-0.009 c 1.23748,-2.0137 1.23745,2.01371 0,0 z m -33.20234,-0.35346 c -3.3292,-2.83984 3.51937,0.54923 0,0 z m 7.10669,-0.96741 c -0.99466,-3.45687 2.96183,1.50913 0,0 z m -24.07077,-1.32732 c -2.919,-6.81824 16.57917,3.04884 0,0 z m 29.70706,-0.2222 c -13.13791,-3.43279 4.7471,-8.544 0,0 z m -40.54977,-0.77525 c 2.70405,-12.97465 5.03566,4.60581 0,0 z m 45.1985,0.73991 c 2.0984,-3.64123 9.5985,4.22961 0,0 z m -22.90406,-1.42259 c 1.81754,-4.36048 1.11833,2.79082 0,0 z m 6.40971,0.22611 c 13.28297,-26.27539 -4.66216,-4.67604 -6.26648,-13.60932 12.99032,-26.29968 9.02864,7.52757 24.97851,-8.16324 -5.57979,7.29886 -13.59168,16.53477 -18.71203,21.77256 z m 1.2741,-1.15375 c 0.0427,-4.73319 -2.24637,2.50058 0,0 z m 5.04502,-8.41834 c -1.5455,-3.83153 -1.89556,3.29318 0,0 z m -1.96051,-0.3968 c -1.39503,-5.94476 -3.21418,4.78095 0,0 z m -9.74277,-0.79943 c -0.67506,-1.94429 -1.15097,1.98573 0,0 z m 1.45079,-7.35954 c -2.47027,-3.14555 -1.97929,4.07189 0,0 z m 9.31753,-3.12213 -1.00259,-0.29406 1.00259,0.29406 z m -425.09245,19.71215 c 1.15095,-1.98576 0.67508,1.94429 0,0 z m 403.55581,-0.51279 c -7.58997,-4.67631 3.33946,-0.75505 0,0 z m 6.1868,-0.21604 c 1.11645,-1.81328 2.6813,2.63874 0,0 z m -10.97272,-0.12581 c -1.10024,-3.43344 2.63842,1.42034 0,0 z m 39.73118,-0.52898 c -14.4095,-5.52121 26.30528,-19.18872 1.97487,-21.38077 22.80353,-17.78506 21.89362,0.89895 17.17639,9.69765 12.34139,0.0994 -17.82641,6.1807 -19.15126,11.68312 z m 6.07692,-8.87193 c -1.88836,-2.2091 -2.47546,2.28424 0,0 z m 3.07667,-0.51278 c -2.47548,-2.28426 -1.88838,2.2091 0,0 z m 10.04499,-11.53749 c 0.89694,-7.73812 -13.51042,2.60343 0,0 z m -0.0676,-4.90683 c -2.02868,-1.99944 -0.19555,2.69101 0,0 z m -46.38444,24.67902 0.60895,-0.65711 -0.60895,0.65711 z m 1.54231,0.098 c 4.45704,-6.21393 3.16431,1.95736 0,0 z m 52.95658,-0.27788 c -14.00572,-5.43918 6.45116,-4.55546 0,0 z m -41.67947,-0.58924 c 0.755,-2.75157 1.67496,1.96089 0,0 z m -17.68599,-0.19275 c -1.93084,-15.86552 -4.7416,-1.93552 0,0 z m 11.01989,-1.88861 c 1.85622,-3.02058 1.85622,3.02058 0,0 z m -432.99799,-0.18701 c -1.59215,-2.485 1.99842,0.50589 0,0 z m 340.69802,-0.76663 3.06904,-1.00911 -3.06904,1.00911 z m -355.6111,-0.32776 c 1.32626,-2.09113 1.75973,2.13308 0,0 z m 431.50215,0 c 1.15098,-1.98572 0.67504,1.9443 0,0 z m 31.29942,-1.12223 c -2.47964,-6.95345 7.05527,4.74386 0,0 z m -449.46937,0.0966 c 1.15098,-1.98572 0.67504,1.9443 0,0 z m 381.86272,-0.76917 c 0.69797,-2.34708 0.13589,3.27196 0,0 z m -364.1719,0.28666 c 0.75498,-2.7516 1.67497,1.96086 0,0 z m 353.00121,-0.35164 c -1.98824,-5.63601 2.38197,1.38216 0,0 z m -24.73197,-1.07529 c -2.73235,-5.99979 9.86758,6.03213 0,0 z M 117.83828,455.2899 c 1.15096,-1.98573 0.67505,1.94429 0,0 z m 371.92385,0.1625 0.92626,0.0947 -0.92626,-0.0947 z m 51.9658,-0.52741 c -3.20037,-7.21592 3.66533,3.41963 0,0 z m -414.40326,-0.17812 1.00259,0.29403 -1.00259,-0.29403 z M 99.463772,453.9225 c -2.357566,-1.51271 1.911768,-1.38229 0,0 z m 16.323418,-0.17093 c 2.47548,-2.28426 1.88835,2.2091 0,0 z m 13.25343,-0.0687 c 4.78191,-1.50095 -1.46669,2.03576 0,0 z m -16.48783,-0.68454 c -1.228,-3.95298 6.93698,4.37151 0,0 z m 357.30716,-0.0158 c -8.15973,-9.47558 8.37556,-16.56755 0,0 z m 3.20486,0.43546 c -2.01127,-3.76241 7.15635,1.78701 0,0 z m 37.24046,0.17986 c -19.08041,-1.88631 14.25896,-17.7065 2.98707,-1.31078 l -2.98707,1.31078 0,0 z m 92.91726,-1.17084 0.36331,0.31692 -0.36331,-0.31692 z m -121.3123,-0.21366 c 1.75973,-2.13309 1.32626,2.09112 0,0 z m -358.09404,-1.02563 c 0.44455,-2.33389 0.44457,2.33383 0,0 z m 369.63152,0.0302 c 0.69009,-3.64647 1.71247,2.8045 0,0 z m 48.58566,0.64181 c -4.13709,-5.62285 7.10526,1.96695 0,0 z m 54.48258,-0.1593 c 3.72299,-2.2652 3.72295,2.26518 0,0 z m -496.36849,-0.76918 c 1.65933,-2.9345 1.23658,2.90826 0,0 z m 386.8957,0.24803 1.2113,0.29726 -1.2113,-0.29726 z m -11.53237,-0.74841 c -0.78076,-2.65118 2.35514,2.61208 0,0 z M 97.758287,449.92712 c -3.041426,-6.60146 3.726443,-0.89061 0,0 z m 418.764403,0.26529 c 0.93912,-2.73373 1.96769,2.0679 0,0 z m -391.24914,-0.82968 c 1.67498,-1.96088 0.75501,2.7516 0,0 z m 372.78916,-0.48251 c -12.43287,-3.61645 6.10504,-0.50619 0,0 z m 92.93773,0.4285 c -1.60381,-2.41109 4.33923,1.50111 0,0 z m -99.60383,-0.94128 c 1.42021,-3.05923 2.22533,3.12581 0,0 z m 52.30328,-0.25639 c 3.64806,-6.64783 1.29234,5.82586 0,0 z m 56.02093,0.38459 c 3.39657,-2.82586 3.39657,2.82584 0,0 z m -112.42643,-0.85543 c -1.9442,-8.35441 3.77955,2.14579 0,0 z m -36.40719,-0.0421 c 1.23746,-2.01373 1.23749,2.01373 0,0 z m 65.12272,-0.2403 c 2.15093,-2.07376 1.55564,2.82478 0,0 z m 82.46023,-0.31079 c 0.24435,-6.5335 11.18899,1.90579 0,0 z m -483.96491,-0.47441 c 1.2375,-2.01372 1.23746,2.01374 0,0 z m 412.273,0 c 1.23749,-2.0137 1.23745,2.0137 0,0 z m 11.28111,-0.76915 c 4.84908,-3.82946 -0.99271,-3.58891 0,0 z m -44.22705,-0.0834 1.25109,0.0245 -1.25109,-0.0245 z m 52.50133,-0.0449 c -15.00233,-9.40904 -38.4553,-1.74627 -13.6997,-10.78193 -8.13606,-19.16321 26.13673,-8.88377 9.65289,-3.88575 10.60677,8.40943 10.14621,-16.23489 28.27205,1.28063 -1.58123,29.45823 -9.19287,-17.73465 -24.22524,13.38705 z m -1.60819,-3.20487 c -1.75974,-2.13308 -1.32628,2.09113 0,0 z m 2.34207,-3.20485 c -2.49976,-8.75894 -21.11338,1.92188 0,0 z m 4.58043,-1.92292 c -1.75975,-2.13309 -1.32628,2.09113 0,0 z m 16.35217,-0.29353 c 0.92086,-8.41558 -6.1683,3.96455 0,0 z m -25.83853,-2.78314 c -1.15097,-1.98573 -0.67506,1.94429 0,0 z m -2.94848,-0.89705 c -3.22121,-3.46996 -6.20517,2.03305 0,0 z m 27.56178,-0.74384 c -2.10391,-2.14005 0.24203,3.48103 0,0 z m -12.29635,-1.70456 c -0.25456,-3.55367 -5.80889,4.46058 0,0 z M 539.0849,429.7232 c 1.34987,-12.90318 -5.46756,4.31429 0,0 z m 23.58777,0.44048 c -1.15093,-1.98574 -0.67511,1.94429 0,0 z m -2.05112,-0.51277 c -0.67509,-1.94428 -1.15092,1.98573 0,0 z m -22.21193,-5.22392 -0.0947,0.92627 0.0947,-0.92627 z m 40.71238,20.22265 c 1.70351,-2.42504 0.75011,5.17221 0,0 z m 16.36841,0.8671 1.00259,0.29406 -1.00259,-0.29406 z M 96.387103,445.2052 c -1.870451,-2.26027 2.350278,0.32965 0,0 z M 448.3233,444.83841 c 0.20091,-3.48159 2.12361,1.83733 0,0 z m 78.28402,0.36679 c -0.89835,-3.15921 3.15922,0.89831 0,0 z m 7.3498,-0.17091 c 4.36669,-2.23655 4.36672,2.2365 0,0 z m -69.22494,-0.51279 c 1.23748,-2.01374 1.23748,2.01374 0,0 z m 41.27857,0 c 1.15095,-1.98576 0.67507,1.9443 0,0 z m 76.41983,-0.15031 c -1.20165,-4.12782 1.92366,2.27334 0,0 z M 427.8122,444.00871 c 1.32631,-2.09112 1.75976,2.13309 0,0 z m 15.93215,-0.89735 c 0.58874,-3.62569 0.76015,5.29137 0,0 z m 48.806,1.07053 c -3.6232,-4.49375 4.47654,1.83032 0,0 z m -29.86928,-0.71622 1.00258,0.29404 -1.00258,-0.29404 z m 17.9472,-0.22612 c 2.09632,-2.74213 1.91786,2.7244 0,0 z m 15.63971,0.25639 c 1.15094,-1.98576 0.6751,1.94429 0,0 z m -37.17635,-0.9953 c 2.40286,-5.57348 3.65737,4.65277 0,0 z m 19.27168,0.55132 c -1.59209,-2.48496 1.99845,0.50594 0,0 z m -11.83642,-0.56513 c -13.80384,-6.17102 7.52548,-1.19328 0,0 z m 8.97363,0.004 c -3.57974,-2.16206 6.15147,1.30526 0,0 z m -19.48557,-0.73537 1.77094,-0.24682 -1.77094,0.24682 z M 96.976513,440.16002 c -0.990505,-5.54077 3.471227,4.50202 0,0 z m 440.619017,0.8016 c -0.49529,-2.90601 3.03679,1.369 0,0 z m -416.93696,-1.68971 c -3.0392,-2.90703 6.87168,2.75024 0,0 z m 327.87225,-0.0774 c -8.75369,-2.76982 4.68034,-1.15538 0,0 z m 66.45355,-0.31393 c 0.52729,-11.31752 5.37184,3.43541 0,0 z m -94.86381,-0.51274 c 1.75978,-2.1331 1.32624,2.09115 0,0 z m 32.53374,-0.55747 c 0.13231,-4.16491 2.78242,1.74849 0,0 z m 6.43733,-0.72447 c 3.69318,-3.41897 0.45275,3.04219 0,0 z M 91.876355,435.85645 c -3.530958,-4.46118 4.445907,0.20615 0,0 z m 340.550855,-0.052 c 1.23751,-2.01373 1.23746,2.01374 0,0 z m 81.01882,0 c 1.15098,-1.98571 0.67504,1.94431 0,0 z m 58.54723,-0.28347 c 1.52725,-3.25723 1.71235,3.04065 0,0 z m -468.76128,-1.12665 c 2.03882,-1.71885 1.43656,3.06838 0,0 z m 315.35024,-0.5555 c 1.15505,-5.90023 0.43716,4.76121 0,0 z m 72.81439,1.04264 c -0.24703,-7.26924 3.67848,1.81071 0,0 z m 15.79995,0.0598 0.92626,0.0947 -0.92626,-0.0947 z m 19.0689,-1.18805 c 6.07442,-3.94703 0.37214,2.66327 0,0 z m 49.52553,0.0688 c -1.59207,-2.48504 1.99843,0.50598 0,0 z M 412.17251,433.2404 c 1.2375,-2.01373 1.23746,2.01375 0,0 z m 28.20274,0 c 1.32629,-2.09113 1.75975,2.13309 0,0 z m 132.29656,0 c 3.18596,-2.3495 2.43471,2.2771 0,0 z m -119.22072,-0.51277 c 1.23746,-2.01372 1.23749,2.01374 0,0 z m 76.40382,-0.25639 c 1.2263,-2.83367 1.2263,2.83368 0,0 z m -432.271335,-1.0255 c 1.519937,-4.16258 1.519937,4.16259 0,0 z m 426.764355,-0.0952 c 2.35543,-7.69553 6.37061,0.80727 0,0 z m -118.38141,-0.41769 c -1.74142,-2.71469 4.72499,2.19816 0,0 z m 98.07859,-0.0853 c -2.03184,-3.34588 1.98187,-1.01036 0,0 z m 11.77938,-0.42731 c 1.15054,-2.81882 0.48419,2.74571 0,0 z m -414.39508,-0.25632 c 0.67504,-1.9443 1.15098,1.98572 0,0 z m 301.16056,0.16248 0.92627,0.0947 -0.92627,-0.0947 z m 99.31858,-0.16248 c 1.32623,-2.09114 1.75979,2.13306 0,0 z m 3.84582,0 c 1.23745,-2.01372 1.23749,2.0137 0,0 z m 86.79501,-1.0751 c -9.75279,-5.455 9.72099,-1.74399 0,0 z M 95.620411,426.5868 c -3.290983,-11.36598 5.536039,11.03411 0,0 z m 7.860109,2.55152 c 2.4755,-2.28425 1.88836,2.2091 0,0 z m 310.48592,-0.28017 c -3.45113,-2.97698 5.73876,2.63167 0,0 z m 173.73616,0.44267 0.9263,0.0947 -0.9263,-0.0947 z m -480.11986,-0.6753 c 1.75978,-2.13311 1.32626,2.09116 0,0 z m 383.30108,-1.02556 c 1.23745,-2.0137 1.2375,2.01371 0,0 z m -86.4014,-1.02299 c 3.59293,-1.93964 6.81647,2.06369 0,0 z m 122.46674,-1.27027 c 1.36472,-2.88266 1.61937,2.40982 0,0 z m 87.59497,-0.78342 c 0.44457,-2.33382 0.44457,2.33384 0,0 z m -51.61509,-0.5207 c -18.08963,-6.86248 -33.6522,-1.42828 -10.97432,-9.36187 -1.13225,-1.99898 32.42958,7.4634 10.97432,9.36187 z M 99.121915,422.69831 c 3.232195,-3.75089 3.934355,2.49625 0,0 z m 428.411655,0.26425 1.74629,-0.29376 -1.74629,0.29376 z m 16.71957,-0.7895 0.3633,0.31694 -0.3633,-0.31694 z m 28.12676,0.0855 1.41216,-0.83318 -1.41216,0.83318 z m 2.63988,-1.62389 0.3633,0.31693 -0.3633,-0.31693 z m 68.81139,-1.23921 c 0.39158,-4.12558 0.39157,4.1256 0,0 z m -25.77856,0.51277 c 1.20883,-3.66577 1.20883,3.66577 0,0 z m -520.981801,0 c 1.237471,-2.01375 1.237471,2.01376 0,0 z m 21.793031,-0.51277 c 0.67507,-1.94429 1.15091,1.98575 0,0 z m 317.43857,-0.29831 c -0.54857,-2.73856 3.03187,2.75376 0,0 z m 175.85327,0.29831 c 1.15095,-1.98573 0.67506,1.94429 0,0 z m 3.33305,0 c 1.2375,-2.01372 1.23746,2.0137 0,0 z M 400.63501,418.6566 c 0.75498,-2.75159 1.67497,1.96084 0,0 z M 97.697671,418.08447 c -5.008023,-5.46244 5.578589,2.21227 0,0 z m 435.233899,0.28547 c 1.23749,-2.01372 1.23745,2.0137 0,0 z m 76.24687,-0.84069 c -0.55682,-3.37361 2.92634,0.91383 0,0 z m -45.37531,-1.8826 c -2.27026,-7.49384 4.87716,2.39054 0,0 z m -30.74336,-0.36936 0.30797,-0.88779 -0.30797,0.88779 z M 97.583575,414.7805 c 1.854536,-2.16124 1.854495,2.16126 0,0 z m 448.286445,-0.51278 c -10.962,2.0342 -2.22797,-4.56548 0,0 z m -10.37457,-0.0156 c 0.16325,-6.10899 4.11143,0.93741 0,0 z M 402.42972,413.755 c 1.8545,-2.1613 1.8545,2.16127 0,0 z m 120.24629,-0.22614 c 0.755,-2.75158 1.67499,1.96086 0,0 z m 7.1789,0.26807 c -2.77761,-4.7974 2.68991,0.96429 0,0 z m -3.9313,-0.88145 c 2.64075,-2.70235 1.30575,2.06356 0,0 z m 5.9824,-0.22034 c 4.71976,-2.65859 1.68179,2.12396 0,0 z m -56.40549,-0.99125 c 1.23746,-2.01374 1.23749,2.01373 0,0 z M 585.028,411.27121 c -0.0339,-2.74723 2.65892,0.63359 0,0 z M 96.353937,410.08459 c -5.192194,-10.99965 4.120763,2.42326 0,0 z m 395.042673,0.35538 c 0.57928,-2.32102 3.89904,1.18062 0,0 z m -27.17721,-1.29998 c 1.23748,-2.01374 1.23751,2.01372 0,0 z m 34.61247,-0.51279 c 2.682,-2.93733 5.5971,0.57202 0,0 z m 145.50171,-2.82025 c 0.59968,-3.25636 0.19136,4.17801 0,0 z m -233.95581,0.76916 c 1.85449,-2.16126 1.85454,2.16124 0,0 z m 132.29656,-0.54305 1.0026,0.29407 -1.0026,-0.29407 z m -126.75215,-1.34557 0.92627,0.0947 -0.92627,-0.0947 z m 227.00265,-0.32516 c -0.61963,-5.18501 2.22077,1.52183 0,0 z M 95.019693,401.51112 c 0.33645,-3.47779 2.576969,2.00687 0,0 z m 14.101367,0.45 c 1.75977,-2.1331 1.32631,2.09113 0,0 z m 331.51059,-0.29913 c 1.798,-2.46627 1.5535,3.01015 0,0 z m 71.53019,0.29549 c 1.67625,-3.95975 3.30457,3.22075 0,0 z m -45.37854,-0.64592 c 9.12113,-6.16972 3.72806,2.96926 0,0 z m -8.81338,-0.21352 0.92629,0.0947 -0.92629,-0.0947 z m 17.33086,-0.38163 c 2.04726,-3.08854 1.77282,2.65226 0,0 z m -35.60681,-0.65592 c 5.61887,-3.05601 2.09073,2.05191 0,0 z m 4.01434,0.36229 c 1.88829,-2.20911 2.47555,2.28426 0,0 z m 3.31922,0.0224 1.74629,0.29379 -1.74629,-0.29379 z m 26.42186,-0.30906 c 1.67496,-1.96083 0.75499,2.75158 0,0 z M 116.29996,398.8844 c 0.67506,-1.94431 1.15094,1.98574 0,0 z m 464.5763,-0.51279 c 0.6751,-1.94428 1.1509,1.98575 0,0 z m 1.79472,0 c 1.2375,-2.01373 1.23747,2.01373 0,0 z m 60.54818,-0.81188 0.3633,0.31693 -0.3633,-0.31693 z m -168.9389,-0.49418 c 0.93782,-3.23813 3.49775,1.40819 0,0 z M 117.3255,396.83329 c 1.45609,-5.57451 8.28903,4.03215 0,0 z m 330.35683,0.17317 1.25111,0.0245 -1.25111,-0.0245 z m -43.44303,-0.66905 c 2.6434,-5.78154 16.14601,5.29206 0,0 z m -290.11888,-1.68342 c 2.33253,-3.18258 2.29911,2.73021 0,0 z m 4.48703,-1.41014 c 2.46966,-2.24371 2.46969,2.2437 0,0 z m 284.59143,-1.28195 c 4.60949,-3.58001 3.18352,2.54345 0,0 z m 9.98533,0.23399 1.74629,-0.29376 -1.74629,0.29376 z m -300.7301,-1.03342 1.00259,0.29406 -1.00259,-0.29406 z m 3.49331,0.19276 0.92627,0.0947 -0.92627,-0.0947 z m 2.14726,-0.67527 c -0.61422,-2.20418 3.68895,2.96207 0,0 z m 351.76527,-0.51279 c 1.23747,-2.01372 1.23747,2.01372 0,0 z m 94.86381,-1.79471 c 1.6808,-4.23945 1.94179,4.9061 0,0 z m -165.31584,-0.0419 c 1.59634,-5.12981 7.56403,2.8205 0,0 z m 6.06828,0.0582 c -2.38002,-3.58252 4.64062,3.47273 0,0 z m 68.34922,0.17644 0.85835,-0.20592 -0.85835,0.20592 z m 6.0337,-0.44913 c 1.15091,-1.98575 0.67507,1.94429 0,0 z m -71.71158,-1.26552 c 0.46011,-3.95875 2.23686,2.70872 0,0 z m 4.79412,0.23997 c 1.23747,-2.01374 1.23752,2.01371 0,0 z m 15.25513,-0.85239 1.25111,0.0245 -1.25111,-0.0245 z m 126.27143,-0.17317 c 1.23751,-2.01375 1.23748,2.01372 0,0 z m -135.70229,-0.69206 c 2.28714,-2.5293 7.23481,2.8931 0,0 z m 51.44322,-0.025 c 3.82974,-8.50933 21.17765,-5.14167 0,0 z m 111.17987,-0.30842 c 1.85455,-2.16127 1.8545,2.16125 0,0 z m -19.83806,-0.3503 0.92628,0.0947 -0.92628,-0.0947 z m -135.97473,-0.51827 c -0.91391,-2.92637 3.37366,0.55674 0,0 z m 115.68798,-0.39044 c -2.50334,-5.96686 11.75189,3.71778 0,0 z m 96.35599,-0.10841 c -3.27509,-4.05623 5.85103,-7.3138 0,0 z m -84.17754,-2.19178 c 0.755,-2.75159 1.67497,1.96089 0,0 z m 81.53161,-1.53832 c 0.75499,-2.7516 1.67494,1.96087 0,0 z m -172.12529,-1.45398 c -3.95026,-6.86848 7.62701,1.88476 0,0 z m -16.51917,-1.09371 c 1.43528,-5.2944 -3.67019,-0.88849 0,0 z m -27.49121,-0.55924 c 0.67504,-1.9443 1.15098,1.98572 0,0 z m 29.25022,0.0354 c 0.69486,-3.18503 5.13745,3.38552 0,0 z m -50.0177,-0.86739 1.66502,0.59155 -1.66502,-0.59155 z m 32.22528,0.48782 c -5.98826,-5.54903 4.7349,-4.00513 0,0 z m 12.64275,-0.16866 c 0.67507,-1.94426 1.1509,1.98575 0,0 z m 9.90301,-0.35028 0.92626,0.0947 -0.92626,-0.0947 z m 18.04334,-0.3886 c 0.69006,-3.64647 1.71254,2.80448 0,0 z m 163.8748,-0.30103 c -4.19111,-6.03457 4.36531,-1.85197 0,0 z m -221.56224,-2.03674 4.31713,-0.42725 -4.31713,0.42725 z m 35.12524,0.51278 c 1.23752,-2.01373 1.23746,2.01373 0,0 z m -313.38429,-2.32333 c -5.04277,-27.79693 25.92522,-66.43621 47.82774,-56.9955 8.95645,-12.33255 48.90758,-54.48487 51.05958,-28.70821 -29.83367,16.02926 -57.68274,39.72236 -73.92858,70.0896 27.64093,-11.87615 -10.48356,27.45502 -24.95874,15.61411 z m 8.54437,-8.86599 -0.86495,1.03511 0.86495,-1.03511 z m 0.76293,-2.36894 -1.23389,-0.20525 1.23389,0.20525 z m 14.61417,-3.8761 c -0.6751,-1.94429 -1.15094,1.98576 0,0 z m 44.84262,-62.64972 c 3.47322,-4.38684 -6.32666,3.83486 0,0 z m 220.51966,79.05859 c 1.85455,-2.16124 1.85448,2.16126 0,0 z m -17.01778,-0.35028 0.92625,0.0947 -0.92625,-0.0947 z m 175.52855,-0.85629 c -1.11655,-3.72101 3.18112,1.6632 0,0 z m -182.16946,-0.67363 c 4.84869,-3.73728 9.24181,2.36817 0,0 z m 32.75565,0.55068 c -8.40797,-5.22919 13.29644,-3.70376 0,0 z m 199.85983,-0.72159 c 0.67507,-1.94428 1.15095,1.98573 0,0 z m -163.81606,-0.38457 c 3.76382,-6.08486 8.9533,1.14241 0,0 z m -52.78626,-0.66496 c -27.96551,-4.53234 32.20039,-0.77122 0,0 z m 215.83315,-0.42899 c -9.75427,-2.87362 4.18228,-2.61175 0,0 z m -232.03176,-1.08537 c 0.7891,-2.11756 1.61859,2.23407 0,0 z m 41.88095,-0.8557 c 2.66959,-3.71935 2.69114,3.26584 0,0 z m 9.74571,-0.29804 c 3.61656,-7.31226 4.24864,5.24132 0,0 z m 5.03524,0.1282 c 1.20881,-3.66578 1.20881,3.66578 0,0 z m 172.0582,-0.40596 c 0.50234,-3.50793 4.59062,2.56659 0,0 z m -158.87918,-0.43095 c -1.13151,-3.66326 5.80215,1.67782 0,0 z m -49.58622,-0.70142 c 1.85451,-2.1613 1.85451,2.16127 0,0 z m 39.01158,-0.29912 0.36327,0.31695 -0.36327,-0.31695 z m 128.0577,-0.0513 0.9263,0.0947 -0.9263,-0.0947 z m -169.37677,-0.67527 -3.50031,-0.90663 3.50031,0.90663 z m 32.30496,-0.51277 c 1.75982,-2.13308 1.32625,2.09114 0,0 z m -39.74023,-0.54304 1.00259,0.29403 -1.00259,-0.29403 z m 54.3544,-0.48252 1.17173,-0.1364 -1.17173,0.1364 z m 3.36709,-3.02424 c -1.63773,-2.68937 3.5308,2.13707 0,0 z m 9.45234,-0.56519 c 1.32627,-2.09116 1.75979,2.13308 0,0 z m 93.98681,-2.56389 c -10.40971,-4.0329 5.38018,-1.60478 0,0 z m -148.98039,-1.78999 c 4.12955,-4.58149 7.99197,4.90053 0,0 z m 199.08403,-1.82962 1.00258,0.29406 -1.00258,-0.29406 z m -53.39428,-1.34771 c 0.20797,-2.66816 4.28272,3.71356 0,0 z m -179.91582,-0.93387 c -1.49384,-13.26799 5.7299,4.3507 0,0 z m 3.07304,0.26073 c 1.23748,-2.01373 1.23752,2.01371 0,0 z m -4.20317,-6.44084 c 0.083,-7.35376 1.24928,6.19084 0,0 z m 192.00734,-6.39479 c -38.18277,-7.24583 -10.89528,-30.40705 11.51122,-12.29388 5.31853,5.15708 -8.1921,11.72432 -11.51122,12.29388 z m 11.66625,-4.08603 c 1.15094,-1.98572 0.67505,1.94429 0,0 z m -35.06629,-5.36612 c -3.75479,-8.78553 4.82015,4.23934 0,0 z m 26.86185,-13.12413 1.00257,0.29406 -1.00257,-0.29406 z m -66.37148,-19.91432 c 1.54958,-3.16585 5.67427,3.59154 0,0 z m -59.35513,-10.65956 0.92626,0.0947 -0.92626,-0.0947 z m -215.03603,-1.94456 c -3.94107,-8.69123 9.41655,6.72874 0,0 z m 3.42955,-2.8965 c -16.73818,-16.8992 23.50142,-24.84844 0,0 z m 221.70371,0.0667 c 3.66529,-4.68144 7.0298,3.22703 0,0 z M 300.8998,272.16269 c -19.17242,1.08974 -55.26395,-6.1409 -16.69817,-1.57707 -0.22679,0.83528 20.86804,-0.34784 16.69817,1.57707 z m 7.00346,-73.77421 c 0.44457,-2.33383 0.44454,2.33389 0,0 z M 266.80011,141.4702 c 1.15098,-1.98573 0.67504,1.9443 0,0 z m 112.17005,-29.07743 2.29364,0.004 -2.29364,-0.004 z m -73.71173,-10.91921 c 1.23746,-2.013733 1.23749,2.01374 0,0 z m 27.68997,-7.085833 1.31377,-0.919182 -1.31377,0.919182 z m 0.291,-8.885258 C 332.17416,63.090989 310.49604,6.2319594 324.14181,6.3302635 325.09892,27.937853 348.7182,72.358172 333.2394,85.502459 Z"
       id="path4147"
       inkscape:connector-curvature="0" />
  </g>
</svg>
